<svg width="50" height="50" viewBox="0 0 50 50" fill="none" xmlns="http://www.w3.org/2000/svg">
<g clip-path="url(#clip0_256_1644)">
<path d="M24.9997 12.3579C18.0264 12.3579 12.3477 18.0268 12.3477 25.0001C12.3477 31.9734 18.0264 37.6521 24.9997 37.6521C31.973 37.6521 37.6419 31.9734 37.6419 25.0001C37.6419 18.0268 31.973 12.3579 24.9997 12.3579Z" stroke="#42BADC" stroke-width="2.5" stroke-linecap="round" stroke-linejoin="round"/>
<path d="M18.8301 24.902L22.8807 28.8742L30.9917 20.8809" stroke="#42BADC" stroke-width="2.5" stroke-linecap="round" stroke-linejoin="round"/>
<path d="M27.3245 2.26569L31.6988 7.17938C31.993 7.51284 32.4245 7.68938 32.8659 7.65996L39.4371 7.27746C41.2908 7.16957 42.8306 8.69958 42.7227 10.5631L42.3402 17.1343C42.3108 17.5756 42.4971 18.0072 42.8208 18.3014L47.7345 22.6757C49.1173 23.9114 49.1173 26.0789 47.7345 27.3147L42.8208 31.689C42.4873 31.9832 42.3108 32.4148 42.3402 32.8561L42.7227 39.4273C42.8306 41.281 41.3006 42.8208 39.4371 42.7129L32.8659 42.3304C32.4245 42.301 31.993 42.4873 31.6988 42.811L27.3245 47.7247C26.0887 49.1076 23.9212 49.1076 22.6854 47.7247L18.3112 42.811C18.0169 42.4775 17.5854 42.301 17.144 42.3304L10.5728 42.7129C8.71916 42.8208 7.17934 41.2908 7.28722 39.4273L7.66973 32.8561C7.69915 32.4148 7.5128 31.9832 7.18914 31.689L2.27545 27.3147C0.892557 26.0789 0.892557 23.9114 2.27545 22.6757L7.18914 18.3014C7.52261 18.0072 7.69915 17.5756 7.66973 17.1343L7.28722 10.5631C7.17934 8.70939 8.70935 7.16957 10.5728 7.27746L17.144 7.65996C17.5854 7.68938 18.0169 7.50304 18.3112 7.17938L22.6854 2.26569C23.9212 0.882792 26.0887 0.882792 27.3245 2.26569Z" stroke="#42BADC" stroke-width="2.5" stroke-linecap="round" stroke-linejoin="round"/>
</g>
<defs>
<clipPath id="clip0_256_1644">
<rect width="50" height="50" fill="white"/>
</clipPath>
</defs>
</svg>
