<svg width="54" height="55" viewBox="0 0 54 55" fill="none" xmlns="http://www.w3.org/2000/svg">
<path d="M27.043 39.0625V44.575" stroke="#42BADC" stroke-width="2" stroke-linecap="round" stroke-linejoin="round"/>
<path d="M14.1641 53.5H39.9227V50.875C39.9227 47.9875 37.6044 45.625 34.7709 45.625H19.3158C16.4823 45.625 14.1641 47.9875 14.1641 50.875V53.5Z" stroke="#42BADC" stroke-width="2" stroke-miterlimit="10"/>
<path d="M11.5833 53.5H42.4936M26.6521 37.75C16.6835 37.75 8.62109 29.5337 8.62109 19.375V11.5C8.62109 5.69875 13.2319 1 18.9245 1H34.3797C40.0723 1 44.6831 5.69875 44.6831 11.5V19.375C44.6831 29.5337 36.6207 37.75 26.6521 37.75Z" stroke="#42BADC" stroke-width="2" stroke-linecap="round" stroke-linejoin="round"/>
<path d="M9.8352 26.3312C7.9033 25.7012 6.20324 24.5462 4.86379 23.1812C2.54552 20.5562 1 17.4062 1 13.7312C1 10.0562 3.83345 7.1687 7.43965 7.1687H9.11396C8.59879 8.3762 8.3412 9.71495 8.3412 11.1062V18.9812C8.3412 21.6062 8.88213 24.0737 9.8352 26.3312ZM43.4759 26.3312C45.4078 25.7012 47.1079 24.5462 48.4473 23.1812C50.7656 20.5562 52.3111 17.4062 52.3111 13.7312C52.3111 10.0562 49.4777 7.1687 45.8715 7.1687H44.1972C44.7123 8.3762 44.9699 9.71495 44.9699 11.1062V18.9812C44.9699 21.6062 44.429 24.0737 43.4759 26.3312Z" stroke="#42BADC" stroke-width="2" stroke-linecap="round" stroke-linejoin="round"/>
</svg>
