<svg width="52" height="53" viewBox="0 0 52 53" fill="none" xmlns="http://www.w3.org/2000/svg">
<path d="M45.3984 51C45.0235 47.0282 43.2917 43.3149 40.5035 40.5039C37.7152 37.6929 34.0463 35.9614 30.1327 35.6097C27.3167 35.3268 24.4801 35.3268 21.6642 35.6097C17.7545 35.972 14.0914 37.7069 11.3052 40.5159C8.51894 43.3248 6.78386 47.0322 6.39844 51M25.8984 22.4827C28.573 22.4827 31.1379 21.4037 33.0291 19.4831C34.9203 17.5624 35.9827 14.9575 35.9827 12.2413C35.9827 9.52516 34.9203 6.92024 33.0291 4.99962C31.1379 3.079 28.573 2 25.8984 2C23.2239 2 20.6589 3.079 18.7678 4.99962C16.8766 6.92024 15.8142 9.52516 15.8142 12.2413C15.8142 14.9575 16.8766 17.5624 18.7678 19.4831C20.6589 21.4037 23.2239 22.4827 25.8984 22.4827Z" stroke="#42BADC" stroke-width="2" stroke-linecap="round" stroke-linejoin="round"/>
</svg>
