<svg width="52" height="52" viewBox="0 0 52 52" fill="none" xmlns="http://www.w3.org/2000/svg">
<path d="M46 50C45.6154 46.1093 43.8393 42.4717 40.9795 39.7181C38.1198 36.9645 34.3567 35.2683 30.3429 34.9238C27.4547 34.6466 24.5453 34.6466 21.6571 34.9238C17.6472 35.2787 13.8902 36.9782 11.0325 39.7299C8.17488 42.4815 6.3953 46.1132 6 50M26 22.0647C28.7431 22.0647 31.3738 21.0077 33.3135 19.1263C35.2532 17.2448 36.3429 14.6931 36.3429 12.0323C36.3429 9.37159 35.2532 6.81983 33.3135 4.9384C31.3738 3.05698 28.7431 2 26 2C23.2569 2 20.6262 3.05698 18.6865 4.9384C16.7468 6.81983 15.6571 9.37159 15.6571 12.0323C15.6571 14.6931 16.7468 17.2448 18.6865 19.1263C20.6262 21.0077 23.2569 22.0647 26 22.0647Z" stroke="#42BADC" stroke-width="2" stroke-linecap="round" stroke-linejoin="round"/>
</svg>
