<svg width="55" height="55" viewBox="0 0 55 55" fill="none" xmlns="http://www.w3.org/2000/svg">
<path d="M32.0272 4.82714L36.6582 14.2324C37.2822 15.5331 38.9573 16.7671 40.3696 17.034L48.7449 18.4347C54.0985 19.3352 55.3466 23.2708 51.5038 27.2063L44.9678 33.8433C43.8839 34.944 43.2599 37.1118 43.6212 38.6794L45.4933 46.884C46.9713 53.3543 43.5555 55.889 37.9391 52.4871L30.0894 47.7511C28.6771 46.884 26.3123 46.884 24.9 47.7511L17.0502 52.4871C11.4338 55.8556 8.01802 53.3543 9.49602 46.884L11.3681 38.6794C11.7294 37.1452 11.1054 34.9773 10.0215 33.8433L3.48552 27.2063C-0.357256 23.3041 0.890825 19.3686 6.24444 18.4347L14.6197 17.034C16.032 16.8005 17.7071 15.5331 18.3311 14.2324L22.9622 4.82714C25.4255 -0.275713 29.4982 -0.275713 32.0272 4.82714Z" stroke="#42BADC" stroke-width="2" stroke-linecap="round" stroke-linejoin="round"/>
</svg>
