<svg width="55" height="55" viewBox="0 0 55 55" fill="none" xmlns="http://www.w3.org/2000/svg">
<path d="M10.8215 30.151L10.623 31.2531C10.5946 31.3672 10.5757 31.4907 10.5568 31.6142C10.3865 32.6214 10.727 33.6666 11.4551 34.3982L20.8927 43.8808C21.4885 44.4794 22.3112 44.8214 23.1528 44.8214C23.3325 44.8214 23.5027 44.8024 23.6729 44.7739C23.7864 44.7549 23.8999 44.7359 24.0134 44.7169L25.1292 44.5174L26.3491 52.4132C26.4437 53.0403 26.8503 53.5819 27.4366 53.8385C27.673 53.943 27.9284 54 28.1932 54C28.562 54 28.9118 53.8955 29.2239 53.6865L37.5173 48.1755C38.3494 47.6244 38.8696 46.7408 38.9452 45.7431L39.5977 37.2107M10.8215 30.151L2.96319 28.9252C2.32961 28.8302 1.80004 28.4217 1.54472 27.8326C1.28939 27.2435 1.34613 26.5783 1.69602 26.0368L7.18079 17.7038C7.72927 16.8677 8.60873 16.3451 9.60166 16.2691L18.0936 15.6135M10.8215 30.151L11.3511 28.1841C12.3062 24.9156 13.8382 21.685 15.8902 18.597L18.0936 15.6135M18.0936 15.6135C18.0936 15.6135 18.4813 15.1384 18.5097 15.1099C21.9613 10.9482 26.2829 7.34708 30.3587 5.22822C37.0634 1.73162 44.0328 1 48.7043 1C49.4892 1 50.2836 1.019 51.0401 1.06651C52.676 1.15203 53.9716 2.46325 54.0662 4.09753C54.3026 8.41126 54.0662 16.8392 49.9337 24.8871C47.8249 28.9823 44.2408 33.315 40.0989 36.7926C40.0705 36.8211 39.5977 37.2107 39.5977 37.2107M39.5977 37.2107L36.6094 39.415C33.5361 41.4864 30.3303 43.0161 27.0678 43.9758L25.2689 44.5M30.7428 42.6431L12.6325 24.607" stroke="#42BADC" stroke-width="1.5"/>
</svg>
