<svg width="52" height="53" viewBox="0 0 52 53" fill="none" xmlns="http://www.w3.org/2000/svg">
<path d="M9.76447 29.0797L9.57999 30.1036C9.55364 30.2095 9.53607 30.3243 9.5185 30.439C9.36038 31.3746 9.67662 32.3455 10.353 33.0252L19.1201 41.834C19.6735 42.3901 20.4378 42.7079 21.2196 42.7079C21.3865 42.7079 21.5446 42.6902 21.7028 42.6637C21.8082 42.6461 21.9136 42.6284 22.019 42.6108L23.0556 42.4254L24.1888 49.7602C24.2766 50.3428 24.6544 50.8459 25.199 51.0842C25.4186 51.1813 25.6558 51.2343 25.9018 51.2343C26.2444 51.2343 26.5694 51.1372 26.8593 50.943L34.5634 45.8236C35.3365 45.3117 35.8196 44.4908 35.8899 43.564L36.496 35.6378M9.76447 29.0797L2.46446 27.9411C1.87589 27.8528 1.38396 27.4733 1.14677 26.9261C0.909586 26.3788 0.962294 25.761 1.28732 25.2579L6.3824 17.517C6.8919 16.7403 7.70887 16.2548 8.63126 16.1842L16.5198 15.5752M9.76447 29.0797L10.2564 27.2526C11.1437 24.2163 12.5668 21.2153 14.473 18.3467L16.5198 15.5752M16.5198 15.5752C16.5198 15.5752 16.88 15.1338 16.9064 15.1074C20.1127 11.2414 24.1273 7.89611 27.9135 5.9278C34.1418 2.67964 40.616 2 44.9556 2C45.6847 2 46.4226 2.01765 47.1254 2.06179C48.6451 2.14122 49.8486 3.35928 49.9365 4.87744C50.1561 8.88468 49.9365 16.7138 46.0976 24.1898C44.1386 27.9941 40.8093 32.019 36.9616 35.2495C36.9353 35.2759 36.496 35.6378 36.496 35.6378M36.496 35.6378L33.7201 37.6856C30.8651 39.6098 27.8871 41.0308 24.8564 41.9223L23.1853 42.4093M28.2703 40.6843L11.4468 23.9297" stroke="#42BADC" stroke-width="1.5"/>
<path d="M30.3506 21.7451C31.5717 22.9631 33.1968 23.6428 34.9274 23.6428C36.658 23.6428 38.2831 22.972 39.5042 21.7451C40.7252 20.5182 41.4016 18.8853 41.4016 17.1465C41.4016 15.4076 40.7252 13.7747 39.5042 12.5478C38.2831 11.3298 36.658 10.6501 34.9274 10.6501C33.1968 10.6501 31.5717 11.321 30.3506 12.5478C29.1295 13.7747 28.4531 15.4076 28.4531 17.1465C28.4531 18.8853 29.1295 20.5182 30.3506 21.7451Z" stroke="#42BADC" stroke-width="1.5"/>
<path d="M1.17188 41.3672L6.04782 36.468" stroke="#42BADC" stroke-width="1.5"/>
<path d="M1.14453 50.379L10.5186 40.9602" stroke="#42BADC" stroke-width="1.5"/>
<path d="M15.6884 46.1506L10.8125 51.0498" stroke="#42BADC" stroke-width="1.5"/>
</svg>
