<?xml version="1.0" encoding="iso-8859-1"?>
<!-- Generator: Adobe Illustrator 17.0.0, SVG Export Plug-In . SVG Version: 6.00 Build 0)  -->
<!DOCTYPE svg PUBLIC "-//W3C//DTD SVG 1.1//EN" "http://www.w3.org/Graphics/SVG/1.1/DTD/svg11.dtd">
<svg version="1.1" id="Layer_1" xmlns="http://www.w3.org/2000/svg" xmlns:xlink="http://www.w3.org/1999/xlink" x="0px" y="0px"
	 width="353.175px" height="168.06px" viewBox="0 0 353.175 168.06" style="enable-background:new 0 0 353.175 168.06;"
	 xml:space="preserve">
<g>
	<defs>
		<rect id="SVGID_1_" width="353.175" height="168.06"/>
	</defs>
	<clipPath id="SVGID_2_">
		<use xlink:href="#SVGID_1_"  style="overflow:visible;"/>
	</clipPath>
	<path style="clip-path:url(#SVGID_2_);fill:#706F6F;" d="M153.342,155.824c0.01,1.07,0.02,1.921,0.047,2.55
		c0.011,0.635,0.028,1.221,0.047,1.762c0.019,0.54,0.042,1.041,0.06,1.508c0.025,0.462,0.061,1.035,0.108,1.714
		c0,0.168,0.009,0.32,0.018,0.459c-0.28-0.072-0.531-0.099-0.741-0.099c-0.187,0-0.387,0.027-0.597,0.083l-0.088,0.016
		c0.018-0.195,0.046-0.517,0.069-0.951c0.024-0.429,0.048-0.96,0.08-1.575c0.028-0.615,0.046-1.198,0.056-1.741
		c0.018-0.551,0.023-1.038,0.023-1.472c0-0.259-0.014-1.025-0.033-2.306c-0.018-1.214-0.018-1.904-0.018-2.094v-2.113h0.051
		c0.107,0.022,0.182,0.03,0.229,0.03c0.055,0,0.139,0,0.247-0.013c0.008,0,0.05-0.007,0.126-0.017l0.578,0.684
		c0.293,0.33,0.568,0.64,0.835,0.931c0.264,0.297,0.643,0.703,1.132,1.217c0.522,0.543,0.942,0.985,1.254,1.323
		c1.516,1.584,2.415,2.526,2.7,2.827c0.279,0.3,0.615,0.653,1.025,1.063c0.401,0.41,0.793,0.811,1.166,1.198v-0.653
		c0-2.501-0.01-4.172-0.028-5.018c-0.01-0.597-0.033-1.18-0.061-1.733c-0.027-0.559-0.08-1.175-0.136-1.839
		c0.262,0.068,0.49,0.101,0.691,0.101c0.195,0,0.447-0.033,0.755-0.101c-0.13,1.138-0.214,2.268-0.242,3.397
		c-0.041,1.126-0.056,2.533-0.056,4.223c0,1.035,0,1.945,0.005,2.73c0.005,0.783,0.032,1.457,0.06,2.012
		c-0.055-0.014-0.093-0.021-0.103-0.021c-0.093-0.015-0.167-0.019-0.228-0.019c-0.032,0-0.088,0.004-0.177,0.019
		c-0.051,0.012-0.08,0.021-0.107,0.021c-0.149-0.192-0.401-0.482-0.756-0.883c-0.349-0.402-0.764-0.857-1.239-1.376
		c-0.477-0.515-0.934-0.997-1.362-1.441c-0.419-0.449-0.774-0.799-1.063-1.055c-0.196-0.192-0.494-0.483-0.894-0.884l-3.433-3.571
		V155.824z"/>
	<path style="clip-path:url(#SVGID_2_);fill:#706F6F;" d="M167.813,159.209c-0.02,0.019-0.028,0.06-0.056,0.119
		c-0.304,0.692-0.587,1.385-0.844,2.077c-0.256,0.697-0.508,1.498-0.742,2.415c-0.055-0.014-0.111-0.024-0.177-0.037
		c-0.196-0.045-0.373-0.068-0.541-0.068c-0.167,0-0.358,0.023-0.578,0.068c-0.074,0.013-0.139,0.023-0.195,0.037
		c0.43-0.94,0.914-1.986,1.431-3.147c0.517-1.154,1.026-2.282,1.515-3.38c0.491-1.098,0.951-2.156,1.39-3.18
		c0.442-1.02,0.801-1.89,1.081-2.62l0.126,0.014c0.136,0.03,0.233,0.04,0.322,0.04c0.116,0,0.242-0.021,0.381-0.054
		c0.318,0.856,0.752,1.94,1.297,3.237c0.541,1.309,1.119,2.63,1.707,3.982c0.596,1.35,1.118,2.525,1.566,3.532
		c0.448,1.002,0.69,1.529,0.717,1.576c-0.4-0.072-0.745-0.105-1.044-0.105c-0.302,0-0.679,0.033-1.123,0.105
		c-0.247-0.87-0.509-1.648-0.787-2.325c-0.271-0.683-0.575-1.379-0.905-2.096l-0.089-0.19H167.813z M170.013,153.957l-1.846,4.368
		h3.748L170.013,153.957z"/>
	<path style="clip-path:url(#SVGID_2_);fill:#706F6F;" d="M189.012,160.234c-0.349,0.817-0.843,1.489-1.468,2.02
		c-0.634,0.526-1.343,0.923-2.14,1.174c-0.796,0.259-1.651,0.392-2.554,0.392c-0.033,0-0.323-0.01-0.864-0.019
		c-0.541-0.023-0.969-0.039-1.295-0.044c-0.318-0.009-0.533-0.009-0.644-0.009c-0.209,0-0.443,0.005-0.699,0.017
		c-0.262,0.013-0.653,0.031-1.185,0.055v-0.072c0.038-0.42,0.071-0.863,0.099-1.322c0.032-0.459,0.051-0.903,0.06-1.336
		c0.018-0.436,0.028-1.014,0.038-1.744c0.008-0.729,0.018-1.584,0.018-2.574c0-1.183-0.01-2.136-0.038-2.869
		c-0.008-0.314-0.018-0.624-0.027-0.926c-0.019-0.295-0.041-0.755-0.075-1.38c0.974,0.034,1.935,0.054,2.881,0.054
		c0.989,0,1.763,0.01,2.313,0.028c0.554,0.015,1.072,0.063,1.556,0.138c0.485,0.077,0.942,0.205,1.375,0.387
		c0.426,0.182,0.845,0.435,1.242,0.751c0.703,0.561,1.202,1.225,1.496,1.985c0.294,0.768,0.438,1.581,0.438,2.448
		C189.539,158.468,189.366,159.419,189.012,160.234 M187.506,156.491c-0.056-0.371-0.145-0.749-0.271-1.117
		c-0.13-0.373-0.317-0.73-0.549-1.074c-0.234-0.348-0.522-0.644-0.881-0.908c-0.546-0.41-1.134-0.668-1.768-0.773
		c-0.625-0.106-1.417-0.161-2.368-0.161c-0.383,0-0.657,0.005-0.811,0.01c-0.15,0.008-0.364,0.028-0.647,0.062h-0.09
		c-0.036,0.716-0.06,1.492-0.074,2.334c-0.01,0.839-0.015,1.741-0.015,2.701v3.224c0.01,0.319,0.02,0.601,0.029,0.853
		c0.005,0.254,0.009,0.674,0.024,1.261c0.33,0.038,0.623,0.062,0.89,0.077c0.26,0.019,0.596,0.029,0.997,0.029
		c0.295,0,0.574-0.01,0.845-0.019c0.27-0.01,0.568-0.045,0.885-0.096c0.326-0.053,0.654-0.14,0.989-0.254
		c0.336-0.119,0.643-0.277,0.922-0.478c0.387-0.266,0.718-0.596,0.98-0.967c0.26-0.373,0.466-0.769,0.605-1.18
		c0.146-0.41,0.243-0.815,0.299-1.228c0.061-0.401,0.089-0.797,0.089-1.189C187.586,157.236,187.562,156.868,187.506,156.491"/>
	<path style="clip-path:url(#SVGID_2_);fill:#706F6F;" d="M198.714,159.209c-0.015,0.019-0.028,0.06-0.052,0.119
		c-0.308,0.692-0.588,1.385-0.848,2.077c-0.256,0.697-0.504,1.498-0.737,2.415c-0.06-0.014-0.116-0.024-0.177-0.037
		c-0.201-0.045-0.378-0.068-0.546-0.068c-0.167,0-0.353,0.023-0.578,0.068c-0.07,0.013-0.139,0.023-0.195,0.037
		c0.43-0.94,0.914-1.986,1.431-3.147c0.522-1.154,1.031-2.282,1.515-3.38c0.494-1.098,0.951-2.156,1.394-3.18
		c0.438-1.02,0.802-1.89,1.077-2.62l0.126,0.014c0.136,0.03,0.233,0.04,0.322,0.04c0.116,0,0.242-0.021,0.386-0.054
		c0.313,0.856,0.747,1.94,1.292,3.237c0.545,1.309,1.119,2.63,1.712,3.982c0.591,1.35,1.113,2.525,1.566,3.532
		c0.447,1.002,0.685,1.529,0.712,1.576c-0.401-0.072-0.745-0.105-1.039-0.105c-0.307,0-0.681,0.033-1.128,0.105
		c-0.247-0.87-0.509-1.648-0.788-2.325c-0.27-0.683-0.574-1.379-0.899-2.096l-0.094-0.19H198.714z M200.914,153.957l-1.846,4.368
		h3.753L200.914,153.957z"/>
	<path style="clip-path:url(#SVGID_2_);fill:#706F6F;" d="M212.15,162.84c0.19,0.004,0.424,0.004,0.704,0.004
		c0.507,0,1.071-0.014,1.692-0.051c0.621-0.032,1.119-0.086,1.492-0.153c-0.046,0.204-0.071,0.4-0.071,0.578
		c0,0.209,0.025,0.41,0.071,0.601c-0.225-0.014-0.541-0.024-0.965-0.037c-0.425-0.024-0.854-0.04-1.291-0.054
		c-0.444-0.014-0.956-0.014-1.548-0.014c-0.573,0-1.002,0-1.282,0.014c-0.284,0.014-0.649,0.03-1.11,0.054
		c-0.201,0.013-0.382,0.023-0.542,0.037c0.057-1.026,0.094-2.009,0.121-2.96c0.02-0.95,0.034-2.106,0.034-3.469
		c0-0.609-0.005-1.205-0.019-1.785c-0.015-0.583-0.022-1.158-0.042-1.716c-0.018-0.562-0.033-1.054-0.051-1.474
		c-0.018-0.417-0.028-0.674-0.028-0.783c0.023,0,0.051,0.005,0.089,0.019c0.153,0.023,0.289,0.043,0.41,0.063
		c0.126,0.019,0.275,0.027,0.447,0.027c0.323,0,0.691-0.039,1.115-0.109c-0.038,0.979-0.066,1.914-0.088,2.815
		c-0.025,0.909-0.048,1.71-0.056,2.416c-0.01,1.033-0.019,3.019-0.019,5.954C211.651,162.826,211.959,162.835,212.15,162.84"/>
	<path style="clip-path:url(#SVGID_2_);fill:#706F6F;" d="M229.054,153.868c-0.074-0.2-0.163-0.391-0.274-0.573
		c-0.108-0.175-0.261-0.353-0.448-0.515c-0.191-0.166-0.428-0.297-0.723-0.401c-0.293-0.095-0.629-0.147-1.007-0.147
		c-0.444,0-0.817,0.07-1.114,0.21c-0.303,0.142-0.533,0.319-0.695,0.538c-0.163,0.219-0.279,0.436-0.344,0.659
		c-0.066,0.224-0.099,0.43-0.099,0.617c0,0.328,0.06,0.62,0.186,0.864c0.126,0.247,0.29,0.453,0.485,0.616
		c0.201,0.162,0.406,0.3,0.616,0.404c0.214,0.106,0.471,0.22,0.773,0.334l0.122,0.04c0.555,0.219,0.951,0.378,1.188,0.474
		c0.244,0.092,0.458,0.184,0.645,0.27c0.19,0.09,0.348,0.176,0.489,0.267c0.13,0.087,0.275,0.192,0.429,0.324
		c0.364,0.292,0.616,0.642,0.769,1.039c0.145,0.4,0.215,0.806,0.215,1.216c0,0.468-0.085,0.935-0.252,1.399
		c-0.174,0.464-0.443,0.887-0.802,1.27c-0.364,0.375-0.83,0.683-1.389,0.911c-0.565,0.229-1.227,0.343-1.973,0.343
		c-0.61,0-1.189-0.075-1.729-0.233c-0.542-0.163-1.031-0.405-1.474-0.735c0.098-0.372,0.174-0.687,0.224-0.951
		c0.047-0.259,0.076-0.481,0.088-0.687v-0.014h0.23c0.269,0.548,0.661,0.993,1.17,1.326c0.512,0.336,1.1,0.506,1.771,0.506
		c0.853,0,1.506-0.233,1.944-0.697c0.444-0.466,0.662-1.012,0.662-1.646c0-0.645-0.187-1.141-0.559-1.479
		c-0.364-0.338-0.909-0.655-1.627-0.952l-0.191-0.091c-0.667-0.266-1.096-0.443-1.286-0.525c-0.187-0.081-0.366-0.16-0.528-0.246
		c-0.168-0.082-0.303-0.159-0.415-0.24c-0.116-0.075-0.223-0.166-0.346-0.271c-0.288-0.235-0.512-0.55-0.656-0.952
		c-0.149-0.395-0.22-0.81-0.22-1.234c0-1.075,0.374-1.916,1.128-2.518c0.746-0.596,1.679-0.897,2.785-0.897
		c0.605,0,1.188,0.091,1.733,0.268c0.555,0.172,0.976,0.359,1.259,0.543c-0.112,0.191-0.21,0.426-0.322,0.722
		c-0.107,0.297-0.167,0.572-0.191,0.844H229.054z"/>
	<path style="clip-path:url(#SVGID_2_);fill:#706F6F;" d="M235.214,160.456v1.813c0,0.341,0.014,0.856,0.032,1.548
		c-0.368-0.072-0.69-0.104-0.945-0.104c-0.272,0-0.603,0.032-1.004,0.104c0.033-0.715,0.07-1.371,0.104-1.971
		c0.037-0.598,0.06-1.143,0.084-1.619c0.017-0.482,0.027-0.932,0.032-1.356c0.005-0.425,0.01-0.917,0.01-1.48
		c0-0.602-0.005-1.203-0.02-1.814c-0.022-0.564-0.041-1.051-0.056-1.462c-0.009-0.41-0.033-1.088-0.065-2.042
		c0-0.13-0.009-0.272-0.019-0.44c0.155,0.035,0.294,0.063,0.439,0.082c0.144,0.013,0.326,0.023,0.546,0.023
		c0.223,0,0.41-0.01,0.55-0.023c0.135-0.019,0.284-0.047,0.438-0.082c-0.024,0.378-0.047,1.042-0.075,1.996
		c-0.037,0.96-0.051,2-0.051,3.133c1.547,0.042,2.717,0.067,3.506,0.067c0.62,0,1.183-0.012,1.687-0.021
		c0.508-0.009,1.03-0.019,1.572-0.033c0-0.2,0.005-0.554,0.013-1.06v-0.649c0-0.467-0.005-0.911-0.013-1.328
		c-0.015-0.415-0.037-1.049-0.071-1.895l-0.018-0.21c0.154,0.035,0.299,0.063,0.437,0.082c0.146,0.013,0.327,0.023,0.552,0.023
		c0.372,0,0.698-0.033,0.983-0.105c-0.075,1.375-0.122,2.751-0.15,4.131c-0.027,1.379-0.046,2.816-0.046,4.319
		c0,0.731,0.01,1.319,0.024,1.763c0.008,0.281,0.019,0.554,0.027,0.811c0.015,0.258,0.028,0.646,0.056,1.16
		c-0.061-0.013-0.097-0.013-0.121-0.013c-0.354-0.059-0.616-0.091-0.792-0.091c-0.225,0-0.56,0.032-1.002,0.104
		c0.008-0.114,0.022-0.382,0.041-0.788c0.019-0.414,0.028-0.783,0.043-1.111c0.009-0.331,0.017-0.627,0.027-0.898
		c0.005-0.272,0.01-0.445,0.01-0.531v-2.639c-0.247-0.014-0.499-0.019-0.76-0.028c-0.257-0.007-0.499-0.016-0.723-0.025h-1.902
		h-1.837c-0.327,0-0.834,0.009-1.543,0.039V160.456z"/>
	<path style="clip-path:url(#SVGID_2_);fill:#706F6F;" d="M264.97,155.579c-0.196,0.338-0.442,0.611-0.731,0.816
		c-0.286,0.205-0.566,0.358-0.826,0.459c-0.266,0.101-0.522,0.175-0.769,0.237c-0.121,0.034-0.21,0.064-0.242,0.082
		c-0.034,0.014-0.052,0.033-0.052,0.061c0,0.021,0.014,0.035,0.042,0.04c0.027,0.009,0.116,0.022,0.252,0.047h0.051
		c0.554,0.057,1.035,0.181,1.435,0.368c0.398,0.19,0.719,0.424,0.966,0.706c0.247,0.282,0.424,0.588,0.531,0.916
		c0.116,0.326,0.173,0.655,0.173,0.983c0,0.565-0.149,1.113-0.442,1.649c-0.295,0.533-0.742,0.958-1.339,1.275
		c-0.341,0.189-0.76,0.328-1.259,0.424s-1.012,0.138-1.538,0.138c-0.121,0-0.467-0.005-1.06-0.015
		c-0.562-0.013-0.884-0.017-0.963-0.017c-0.206,0-0.412,0.004-0.635,0.017c-0.223,0.01-0.54,0.028-0.951,0.055
		c0.019-0.332,0.043-0.702,0.07-1.119c0.019-0.415,0.038-0.807,0.056-1.168c0.019-0.674,0.033-1.658,0.033-2.961
		c0-2.655-0.056-4.979-0.159-6.975c0.186,0.024,0.411,0.038,0.675,0.042c0.267,0.01,0.668,0.01,1.203,0.01
		c1.474,0,2.518,0.035,3.138,0.096c0.62,0.067,1.119,0.231,1.501,0.487c0.346,0.249,0.63,0.555,0.835,0.921
		c0.206,0.372,0.303,0.768,0.303,1.188C265.268,154.824,265.171,155.239,264.97,155.579 M262.645,152.929
		c-0.523-0.373-1.17-0.557-1.935-0.557c-0.373,0-0.784,0.028-1.235,0.088c-0.028,0.718-0.052,1.461-0.052,2.24
		c0,0.502,0.014,1.257,0.037,2.268c0.131,0,0.318,0.005,0.565,0.02c0.168,0.012,0.284,0.012,0.373,0.012
		c0.232,0,0.438-0.008,0.61-0.032c0.177-0.025,0.358-0.053,0.55-0.091c0.598-0.124,1.058-0.396,1.39-0.806
		c0.326-0.41,0.494-0.902,0.494-1.481C263.441,153.85,263.174,153.297,262.645,152.929 M263.512,158.896
		c-0.247-0.372-0.551-0.639-0.919-0.812c-0.364-0.167-0.718-0.277-1.053-0.314c-0.341-0.044-0.69-0.063-1.045-0.063
		c-0.158,0-0.494,0.019-1.003,0.054h-0.032c-0.023,1.149-0.037,2.042-0.037,2.673c0,0.858,0.024,1.704,0.052,2.539h0.163
		c0.293,0.024,0.545,0.032,0.76,0.032c0.474,0,0.903-0.013,1.281-0.05c0.373-0.034,0.69-0.124,0.933-0.264
		c0.48-0.271,0.81-0.61,0.994-1.012c0.185-0.406,0.274-0.847,0.274-1.331C263.879,159.751,263.758,159.269,263.512,158.896"/>
	<path style="clip-path:url(#SVGID_2_);fill:#706F6F;" d="M270.094,159.209c-0.014,0.019-0.028,0.06-0.051,0.119
		c-0.303,0.692-0.588,1.385-0.844,2.077c-0.256,0.697-0.508,1.498-0.741,2.415c-0.056-0.014-0.112-0.024-0.178-0.037
		c-0.2-0.045-0.377-0.068-0.54-0.068c-0.168,0-0.359,0.023-0.578,0.068c-0.075,0.013-0.14,0.023-0.196,0.037
		c0.429-0.94,0.91-1.986,1.432-3.147c0.517-1.154,1.025-2.282,1.51-3.38c0.493-1.098,0.951-2.156,1.394-3.18
		c0.443-1.02,0.802-1.89,1.082-2.62l0.121,0.014c0.136,0.03,0.237,0.04,0.322,0.04c0.121,0,0.242-0.021,0.386-0.054
		c0.317,0.856,0.751,1.94,1.297,3.237c0.54,1.309,1.114,2.63,1.705,3.982c0.593,1.35,1.12,2.525,1.566,3.532
		c0.449,1.002,0.686,1.529,0.719,1.576c-0.401-0.072-0.746-0.105-1.044-0.105c-0.304,0-0.682,0.033-1.123,0.105
		c-0.252-0.87-0.514-1.648-0.789-2.325c-0.274-0.683-0.573-1.379-0.903-2.096l-0.089-0.19H270.094z M272.295,153.957l-1.847,4.368
		h3.754L272.295,153.957z"/>
	<polygon style="clip-path:url(#SVGID_2_);fill:#706F6F;" points="253.551,158.141 248.975,158.141 248.975,162.388 
		254.074,162.388 254.074,163.661 247.454,163.661 247.454,151.888 253.813,151.888 253.813,153.161 248.975,153.161 
		248.975,156.881 253.551,156.881 	"/>
	<path style="clip-path:url(#SVGID_2_);fill:#2B2A7F;" d="M174.394,26.597c-0.693-0.049-1.281-0.113-1.895-0.113
		c-0.697,0-1.311,0.064-1.94,0.113c-1.064-3.034-2.375-6.543-3.835-9.88h-9.285c-1.281,3.224-2.602,6.441-3.625,9.88
		c-0.498-0.049-0.918-0.113-1.356-0.113c-0.468,0-0.876,0.064-1.262,0.113l11.39-25.559h0.853L174.394,26.597z M162.113,5.829
		l-3.981,9.355h8.038L162.113,5.829z"/>
	<path style="clip-path:url(#SVGID_2_);fill:#2B2A7F;" d="M202.679,1.588c0.966,9.026,1.984,18.019,2.974,25.008
		c-0.656-0.049-1.177-0.112-1.72-0.112c-0.584,0-1.169,0.063-1.716,0.112c-0.629-7.36-1.351-15.248-1.872-18.877
		c-4.235,7.577-7.375,13.42-9.577,18.465h-0.407l-1.997-4.124c-2.349-4.82-4.903-9.577-7.382-14.341
		c-0.817,7.143-1.802,14.371-1.802,18.877c-0.48-0.049-0.869-0.112-1.28-0.112c-0.472,0-0.873,0.063-1.319,0.112
		c0.963-5.888,3.138-21.165,3.521-25.008h0.943c2.922,5.798,6.435,12.682,10.353,19.15c3.475-6.258,6.831-12.607,10.524-19.15
		H202.679z"/>
	<path style="clip-path:url(#SVGID_2_);fill:#2B2A7F;" d="M213.941,12.483h5.659c1.109,0,2.168-0.153,3.259-0.187
		c-0.03,0.289-0.098,0.622-0.098,0.955c0,0.277,0.068,0.622,0.098,1.019c-1.091-0.03-2.15-0.176-3.259-0.176h-5.659V24.76
		c2.229,0.079,4.435-0.067,6.625-0.146c1.131-0.033,2.221-0.146,3.356-0.322c-0.03,0.401-0.105,0.734-0.105,1.09
		c0,0.367,0.075,0.734,0.105,1.101h-13.195V1.588h12.97c-0.029,0.397-0.101,0.727-0.101,1.109c0,0.356,0.072,0.711,0.101,1.075
		c-1.086-0.221-2.183-0.307-3.288-0.397l-3.644-0.079h-2.824V12.483z"/>
	<path style="clip-path:url(#SVGID_2_);fill:#2B2A7F;" d="M229.042,1.589h7.757c5.606,0,8.104,1.876,8.104,5.55
		c0,4.243-3.804,6.288-7.494,6.955l7.525,9.532l1.763,2.056l0.694,0.914c-0.768-0.048-1.423-0.112-2.116-0.112
		c-0.705,0-1.423,0.064-2.082,0.112c-0.817-1.138-1.537-2.157-2.308-3.179l-4.311-5.603l-2.936-3.439h-1.382v12.221
		c-0.584-0.048-1.104-0.112-1.604-0.112c-0.542,0-1.096,0.064-1.61,0.112V1.589z M232.256,12.986c0.517,0.041,2.85,0.187,4.712-0.18
		c2.674-0.532,4.688-2.378,4.688-5.225c0-2.516-1.288-4.172-4.033-4.61c-1.348-0.217-3.835-0.105-5.367-0.042V12.986z"/>
	<path style="clip-path:url(#SVGID_2_);fill:#2B2A7F;" d="M251.555,1.588c0.513,0.042,1.063,0.105,1.606,0.105
		c0.513,0,1.023-0.063,1.607-0.105v25.008c-0.584-0.049-1.094-0.112-1.607-0.112c-0.543,0-1.093,0.063-1.606,0.112V1.588z"/>
	<path style="clip-path:url(#SVGID_2_);fill:#2B2A7F;" d="M280.574,24.937c-2.308,1.547-5.292,2.101-8.075,2.101
		c-8.037,0-12.862-5.09-12.862-13.098c0-8.235,6.068-12.902,13.776-12.902c2.666,0,5.412,0.626,7.853,1.682
		c-0.359,0.921-0.58,1.861-0.767,2.809l-0.247,0.045c-0.521-0.667-3.214-3.146-6.986-3.146c-6.722,0-10.051,5.446-10.051,11.666
		c0,7.011,4.018,11.51,9.79,11.51c3.951,0,7.026-2.334,7.753-2.963L280.574,24.937z"/>
	<path style="clip-path:url(#SVGID_2_);fill:#2B2A7F;" d="M304.776,26.597c-0.685-0.049-1.277-0.113-1.902-0.113
		c-0.697,0-1.318,0.064-1.93,0.113c-1.063-3.034-2.374-6.543-3.838-9.88h-9.289c-1.284,3.224-2.595,6.441-3.614,9.88
		c-0.521-0.049-0.921-0.113-1.359-0.113c-0.472,0-0.872,0.064-1.278,0.113l11.408-25.559h0.836L304.776,26.597z M292.495,5.829
		l-3.978,9.355h8.035L292.495,5.829z"/>
	<path style="clip-path:url(#SVGID_2_);fill:#2B2A7F;" d="M330.215,26.596h-1.098c-0.397-0.517-1.138-1.39-1.895-2.232
		L311.425,6.885h-0.36v19.711c-0.371-0.049-0.693-0.112-1.03-0.112c-0.36,0-0.693,0.063-1.015,0.112V1.588h1.424l17.359,18.828
		h0.359V1.588c0.333,0.042,0.656,0.106,1.033,0.106c0.323,0,0.656-0.064,1.02-0.106V26.596z"/>
	<path style="clip-path:url(#SVGID_2_);fill:#2B2A7F;" d="M152.249,56.428c1.434,2.33,3.078,3.794,5.929,3.794
		c2.955,0,5.078-2.441,5.078-5.356c0-6.786-11.453-3.786-11.453-12.041c0-4.708,3.738-7.022,8.128-7.022
		c1.763,0,3.864,0.551,5.228,1.757c-0.446,0.943-0.697,1.98-0.989,2.988h-0.375c-0.756-1.963-2.367-3.169-4.521-3.169
		c-2.528,0-4.614,1.683-4.614,4.271c0,6.73,11.514,4.022,11.514,11.808c0,5.225-4.057,8.345-9.019,8.345
		c-1.798,0-4.723-0.779-5.959-2.124c0.36-1.067,0.543-2.164,0.682-3.251H152.249z"/>
	<path style="clip-path:url(#SVGID_2_);fill:#2B2A7F;" d="M190.154,59.702c-2.307,1.547-5.307,2.102-8.074,2.102
		c-8.037,0-12.873-5.09-12.873-13.098c0-8.235,6.075-12.902,13.783-12.902c2.67,0,5.408,0.625,7.861,1.681
		c-0.363,0.921-0.585,1.862-0.771,2.809l-0.247,0.045c-0.518-0.666-3.226-3.146-6.99-3.146c-6.722,0-10.048,5.446-10.048,11.667
		c0,7.011,4.022,11.509,9.797,11.509c3.941,0,7.008-2.334,7.757-2.963L190.154,59.702z"/>
	<path style="clip-path:url(#SVGID_2_);fill:#2B2A7F;" d="M214.098,36.354c0.509,0.041,1.067,0.104,1.61,0.104
		c0.498,0,1.023-0.063,1.604-0.104v25.007c-0.581-0.049-1.106-0.112-1.604-0.112c-0.543,0-1.101,0.063-1.61,0.112V48.785
		c-2.596-0.079-5.12-0.192-7.678-0.192c-2.569,0-5.082,0.113-7.708,0.192v12.576c-0.595-0.049-1.101-0.112-1.618-0.112
		c-0.543,0-1.1,0.063-1.606,0.112V36.354c0.506,0.041,1.063,0.104,1.606,0.104c0.517,0,1.023-0.063,1.618-0.104v10.498
		c2.626,0.064,5.18,0.187,7.708,0.187c2.558,0,5.082-0.123,7.678-0.187V36.354z"/>
	<path style="clip-path:url(#SVGID_2_);fill:#2B2A7F;" d="M222.178,48.86c0-8.012,5.947-13.057,13.516-13.057
		c6.865,0,13.85,3.737,13.85,12.49c0,8.165-5.772,13.51-13.921,13.51C227.548,61.803,222.178,56.668,222.178,48.86 M243.66,40.548
		c-1.82-2.296-4.674-3.531-7.592-3.531c-6.441,0-10.314,4.853-10.314,12.276c0,7.42,4.536,11.285,9.981,11.285
		c7.704,0,10.487-7.963,10.239-11.985C245.974,45.57,245.562,43.001,243.66,40.548"/>
	<path style="clip-path:url(#SVGID_2_);fill:#2B2A7F;" d="M252.615,48.86c0-8.012,5.963-13.057,13.52-13.057
		c6.876,0,13.855,3.737,13.855,12.49c0,8.165-5.768,13.51-13.918,13.51C257.993,61.803,252.615,56.668,252.615,48.86
		 M274.109,40.548c-1.827-2.296-4.678-3.531-7.595-3.531c-6.438,0-10.311,4.853-10.311,12.276c0,7.42,4.528,11.285,9.973,11.285
		c7.72,0,10.488-7.963,10.233-11.985C276.409,45.57,276.008,43.001,274.109,40.548"/>
	<path style="clip-path:url(#SVGID_2_);fill:#2B2A7F;" d="M288.001,59.526c2.221,0.078,4.416-0.067,6.606-0.135
		c1.176-0.045,2.315-0.187,3.484-0.334c-0.037,0.402-0.112,0.735-0.112,1.091c0,0.366,0.075,0.733,0.112,1.101H284.78V36.354
		c0.513,0.041,1.056,0.105,1.615,0.105c0.504,0,1.026-0.064,1.606-0.105V59.526z"/>
	<path style="clip-path:url(#SVGID_2_);fill:#2B2A7F;" d="M308.032,48.849c0-8.002,5.955-13.046,13.522-13.046
		c6.866,0,13.865,3.729,13.865,12.494c0,8.16-5.789,13.506-13.941,13.506C313.402,61.803,308.032,56.683,308.032,48.849
		 M329.533,40.548c-1.834-2.298-4.697-3.527-7.616-3.527c-6.43,0-10.309,4.853-10.309,12.272c0,7.426,4.536,11.301,9.987,11.301
		c7.712,0,10.49-7.967,10.24-11.999C331.835,45.56,331.424,42.999,329.533,40.548"/>
	<path style="clip-path:url(#SVGID_2_);fill:#2B2A7F;" d="M340.201,36.351h12.974c-0.036,0.396-0.105,0.734-0.105,1.089
		c0,0.367,0.069,0.742,0.105,1.1c-1.101-0.217-2.19-0.335-3.282-0.394l-3.661-0.085h-2.805v9.185h5.656
		c1.104,0,2.157-0.142,3.258-0.191c-0.037,0.295-0.11,0.625-0.11,0.956c0,0.286,0.073,0.609,0.11,1.02
		c-1.101-0.036-2.154-0.182-3.258-0.182h-5.656V61.36c-0.598-0.053-1.11-0.121-1.618-0.121c-0.551,0-1.096,0.068-1.608,0.121V36.351
		z"/>
	<path style="clip-path:url(#SVGID_2_);fill:#2B2A7F;" d="M172.14,94.24c-2.311,1.532-5.31,2.097-8.088,2.097
		c-8.047,0-12.856-5.084-12.856-13.095c0-8.229,6.063-12.905,13.771-12.905c2.673,0,5.419,0.621,7.862,1.673
		c-0.363,0.923-0.585,1.862-0.77,2.83l-0.246,0.041c-0.516-0.67-3.234-3.158-6.991-3.158c-6.733,0-10.055,5.451-10.055,11.66
		c0,7.015,4.019,11.526,9.797,11.526c3.951,0,7.031-2.342,7.761-2.963L172.14,94.24z"/>
	<path style="clip-path:url(#SVGID_2_);fill:#2B2A7F;" d="M177.473,70.884h7.742c5.644,0,8.127,1.854,8.127,5.548
		c0,4.249-3.793,6.305-7.495,6.95l7.539,9.556l1.743,2.032l0.697,0.923c-0.766-0.053-1.427-0.121-2.116-0.121
		c-0.698,0-1.432,0.068-2.097,0.121c-0.786-1.141-1.532-2.169-2.286-3.181l-4.318-5.597l-2.935-3.423h-1.379v12.201
		c-0.601-0.053-1.113-0.121-1.616-0.121c-0.541,0-1.101,0.068-1.606,0.121V70.884z M180.695,82.294
		c0.504,0.032,2.847,0.165,4.709-0.178c2.661-0.556,4.677-2.383,4.677-5.241c0-2.523-1.27-4.16-4.016-4.604
		c-1.354-0.218-3.85-0.105-5.37-0.037V82.294z"/>
	<path style="clip-path:url(#SVGID_2_);fill:#2B2A7F;" d="M202.978,81.778h5.681c1.096,0,2.148-0.141,3.249-0.189
		c-0.033,0.294-0.101,0.625-0.101,0.956c0,0.286,0.068,0.608,0.101,1.019c-1.101-0.036-2.153-0.182-3.249-0.182h-5.681v10.681
		c2.241,0.069,4.435-0.068,6.628-0.157c1.141-0.032,2.242-0.146,3.358-0.311c-0.028,0.4-0.1,0.73-0.1,1.088
		c0,0.371,0.072,0.731,0.1,1.089h-13.195V70.884h12.985c-0.04,0.396-0.116,0.734-0.116,1.089c0,0.367,0.076,0.742,0.116,1.101
		c-1.1-0.218-2.193-0.335-3.29-0.395l-3.652-0.085h-2.834V81.778z"/>
	<path style="clip-path:url(#SVGID_2_);fill:#2B2A7F;" d="M238.601,95.893c-0.697-0.052-1.281-0.121-1.898-0.121
		c-0.698,0-1.319,0.069-1.94,0.121c-1.055-3.04-2.378-6.543-3.842-9.865h-9.285c-1.273,3.201-2.6,6.418-3.616,9.865
		c-0.52-0.052-0.907-0.121-1.358-0.121c-0.477,0-0.879,0.069-1.279,0.121l11.406-25.556h0.838L238.601,95.893z M226.313,75.118
		l-3.975,9.365h8.038L226.313,75.118z"/>
	<path style="clip-path:url(#SVGID_2_);fill:#2B2A7F;" d="M248.435,95.977c-0.589-0.052-1.101-0.137-1.613-0.137
		c-0.544,0-1.084,0.085-1.597,0.137V72.63c-3.692,0-5.946,0.226-8.006,0.444c0.032-0.359,0.101-0.735,0.101-1.101
		c0-0.355-0.069-0.693-0.101-1.089h18.863c-0.032,0.396-0.112,0.734-0.112,1.089c0,0.366,0.08,0.742,0.112,1.101
		c-1.83-0.218-4.398-0.444-7.647-0.444V95.977z"/>
	<path style="clip-path:url(#SVGID_2_);fill:#2B2A7F;" d="M260.289,70.884c0.512,0.036,1.06,0.097,1.601,0.097
		c0.515,0,1.027-0.061,1.612-0.097v25.009c-0.585-0.053-1.097-0.121-1.612-0.121c-0.541,0-1.089,0.068-1.601,0.121V70.884z"/>
	<path style="clip-path:url(#SVGID_2_);fill:#2B2A7F;" d="M285.914,77.573l2.201-6.104l0.249-0.584
		c0.432,0.036,0.88,0.096,1.352,0.096c0.394,0,0.854-0.06,1.314-0.096c-1.161,2.221-9.249,20.953-10.559,25.008
		c-0.262-0.052-0.512-0.121-0.73-0.121c-0.262,0-0.524,0.069-0.778,0.121c-4.16-8.588-9.503-21.908-11.115-25.008
		c0.556,0.036,1.181,0.096,1.766,0.096c0.58,0,1.116-0.06,1.778-0.096c0.488,1.125,0.915,2.342,1.354,3.54l2.464,6.398l4.486,11.087
		h0.327c0.705-1.512,1.468-2.931,2.044-4.411L285.914,77.573z"/>
	<path style="clip-path:url(#SVGID_2_);fill:#2B2A7F;" d="M297.823,81.778h5.668c1.105,0,2.165-0.141,3.266-0.189
		c-0.044,0.294-0.113,0.632-0.113,0.956c0,0.286,0.069,0.62,0.113,1.027c-1.101-0.044-2.161-0.177-3.266-0.177h-5.668v10.668
		c2.241,0.069,4.435-0.068,6.624-0.157c1.141-0.032,2.23-0.13,3.362-0.311c-0.032,0.4-0.104,0.73-0.104,1.088
		c0,0.371,0.072,0.731,0.104,1.089h-13.191V70.884h12.981c-0.04,0.396-0.116,0.734-0.116,1.089c0,0.367,0.076,0.742,0.116,1.101
		c-1.104-0.218-2.205-0.335-3.285-0.395l-3.673-0.085h-2.818V81.778z"/>
	<path style="clip-path:url(#SVGID_2_);fill:#2B2A7F;" d="M152.268,124.122c1.41,2.354,3.063,3.813,5.903,3.813
		c2.967,0,5.083-2.455,5.083-5.352c0-6.796-11.438-3.797-11.438-12.056c0-4.722,3.728-7.016,8.129-7.016
		c1.741,0,3.874,0.548,5.216,1.753c-0.448,0.955-0.69,1.975-0.992,2.991h-0.35c-0.782-1.975-2.391-3.181-4.538-3.181
		c-2.528,0-4.616,1.686-4.616,4.297c0,6.719,11.511,4.002,11.511,11.785c0,5.239-4.047,8.355-9.023,8.355
		c-1.794,0-4.72-0.785-5.957-2.124c0.358-1.08,0.544-2.168,0.701-3.265H152.268z"/>
	<path style="clip-path:url(#SVGID_2_);fill:#2B2A7F;" d="M190.157,127.407c-2.293,1.531-5.304,2.104-8.068,2.104
		c-8.057,0-12.877-5.09-12.877-13.099c0-8.226,6.069-12.901,13.792-12.901c2.66,0,5.4,0.621,7.846,1.672
		c-0.358,0.923-0.584,1.862-0.761,2.829l-0.254,0.041c-0.516-0.669-3.224-3.156-6.989-3.156c-6.726,0-10.051,5.449-10.051,11.668
		c0,7.001,4.03,11.511,9.805,11.511c3.951,0,7.013-2.342,7.746-2.962L190.157,127.407z"/>
	<path style="clip-path:url(#SVGID_2_);fill:#2B2A7F;" d="M195.676,104.058c0.503,0.037,1.06,0.097,1.616,0.097
		c0.512,0,1.016-0.06,1.608-0.097v25.001c-0.592-0.053-1.096-0.121-1.608-0.121c-0.556,0-1.113,0.068-1.616,0.121V104.058z"/>
	<path style="clip-path:url(#SVGID_2_);fill:#2B2A7F;" d="M208.834,114.949h5.675c1.089,0,2.152-0.142,3.241-0.189
		c-0.036,0.293-0.101,0.632-0.101,0.955c0,0.286,0.065,0.621,0.101,1.027c-1.089-0.044-2.152-0.177-3.241-0.177h-5.675v10.664
		c2.229,0.07,4.43-0.068,6.635-0.157c1.12-0.032,2.22-0.129,3.356-0.31c-0.052,0.399-0.124,0.729-0.124,1.088
		c0,0.37,0.072,0.73,0.124,1.088h-13.207v-24.88h12.97c-0.032,0.396-0.105,0.734-0.105,1.089c0,0.366,0.073,0.741,0.105,1.101
		c-1.096-0.219-2.185-0.335-3.293-0.396l-3.651-0.085h-2.81V114.949z"/>
	<path style="clip-path:url(#SVGID_2_);fill:#2B2A7F;" d="M245.494,129.059h-1.088c-0.407-0.516-1.148-1.374-1.906-2.229
		l-15.795-17.459h-0.358v19.688c-0.375-0.053-0.702-0.121-1.024-0.121c-0.371,0-0.698,0.068-1.02,0.121v-25.001h1.419l17.35,18.83
		h0.379v-18.83c0.323,0.037,0.661,0.097,1.016,0.097c0.335,0,0.673-0.06,1.027-0.097V129.059z"/>
	<path style="clip-path:url(#SVGID_2_);fill:#2B2A7F;" d="M271.41,127.407c-2.302,1.531-5.304,2.104-8.077,2.104
		c-8.044,0-12.865-5.09-12.865-13.099c0-8.226,6.07-12.901,13.776-12.901c2.668,0,5.405,0.621,7.867,1.672
		c-0.375,0.923-0.588,1.862-0.769,2.829l-0.275,0.041c-0.508-0.669-3.196-3.156-6.96-3.156c-6.735,0-10.064,5.449-10.064,11.668
		c0,7.001,4.03,11.511,9.805,11.511c3.947,0,7.014-2.342,7.748-2.962L271.41,127.407z"/>
	<path style="clip-path:url(#SVGID_2_);fill:#2B2A7F;" d="M279.922,114.949h5.671c1.093,0,2.152-0.142,3.249-0.189
		c-0.028,0.293-0.109,0.632-0.109,0.955c0,0.286,0.081,0.621,0.109,1.027c-1.097-0.044-2.156-0.177-3.249-0.177h-5.671v10.664
		c2.226,0.07,4.43-0.068,6.618-0.157c1.137-0.032,2.237-0.129,3.37-0.31c-0.045,0.399-0.113,0.729-0.113,1.088
		c0,0.37,0.068,0.73,0.113,1.088h-13.196v-24.88h12.966c-0.032,0.396-0.112,0.734-0.112,1.089c0,0.366,0.08,0.741,0.112,1.101
		c-1.084-0.219-2.196-0.335-3.284-0.396l-3.661-0.085h-2.813V114.949z"/>
	<path style="clip-path:url(#SVGID_2_);fill:#F7323F;" d="M49.638,157.788c16.594-1.975,33.094-14.111,42.743-32.721
		c-1.636,0.957-3.356,1.806-5.144,2.534c-28.819,11.541-66.42-14.662-83.996-58.532c-1.087-2.708-2.072-5.413-2.946-8.124
		c1.678,31.303,11.008,58.508,33.878,82.514c5.173,5.43,10.962,10.753,17.046,15.611C50.69,158.651,50.166,158.222,49.638,157.788"
		/>
	<path style="clip-path:url(#SVGID_2_);fill:#2B2A7F;" d="M63.808,0.005L37.644,0c10.1,4.991,21.804,11.774,33.462,20.758
		c26.69,20.554,43.771,45.143,51.318,71.814c3.651-13.322,5.19-27.482,5.19-42.55V0.005H63.808z"/>
	<path style="clip-path:url(#SVGID_2_);fill:#E63329;" d="M74.123,23.133c-0.145,0.085-0.282,0.172-0.427,0.266
		c-14.647,9.652-27.485,21.183-38.303,34.296C46.341,64.564,57.875,73.35,67.979,84.27c9.766-14.873,20.93-26.752,31.4-35.961
		C92.321,39.415,83.897,30.994,74.123,23.133"/>
	<path style="clip-path:url(#SVGID_2_);fill:#2B2A7F;" d="M92.381,125.059c-9.635,18.611-26.149,30.754-42.743,32.729
		c4.569,3.727,9.321,7.215,14.148,10.272c10.623-6.758,21-15.527,29.657-24.602c0.871-0.917,1.722-1.839,2.56-2.77
		C95.194,135.232,93.969,130.019,92.381,125.059"/>
	<path style="clip-path:url(#SVGID_2_);fill:#0070BA;" d="M127.614,0.005h-0.146c-10.601,2.419-31.115,8.583-53.345,23.128
		c9.774,7.861,18.198,16.282,25.256,25.176c10.982-9.649,21.198-16.37,28.235-20.479V0.005z"/>
	<path style="clip-path:url(#SVGID_2_);fill:#2B2A7F;" d="M35.392,57.696C24.214,71.251,15.199,86.514,8.605,103.157
		c5.393,14.397,13.642,27.779,25.567,40.302c2.609,2.735,5.382,5.455,8.266,8.09c4.026-27.11,13.769-49.366,25.541-67.279
		C57.874,73.35,46.34,64.564,35.392,57.696"/>
	<path style="clip-path:url(#SVGID_2_);fill:#B20E10;" d="M67.979,84.27c13.623,14.735,24.636,33.344,28.023,56.418
		c13.303-14.774,21.665-30.737,26.422-48.115c-4.412-15.598-12.094-30.489-23.046-44.264C88.909,57.518,77.745,69.397,67.979,84.27"
		/>
	<path style="clip-path:url(#SVGID_2_);fill:#E42313;" d="M73.696,23.399c0.145-0.094,0.282-0.181,0.427-0.266
		c-0.993-0.798-1.997-1.59-3.017-2.375C59.448,11.774,47.744,4.992,37.644,0.001H0v40.01c7.666,2.92,21.011,8.644,35.392,17.685
		C46.211,44.582,59.049,33.051,73.696,23.399"/>
</g>
</svg>
