<?xml version="1.0" encoding="utf-8"?>
<!-- Generator: Adobe Illustrator 17.0.0, SVG Export Plug-In . SVG Version: 6.00 Build 0)  -->
<!DOCTYPE svg PUBLIC "-//W3C//DTD SVG 1.1//EN" "http://www.w3.org/Graphics/SVG/1.1/DTD/svg11.dtd">
<svg version="1.1" id="Layer_1" xmlns="http://www.w3.org/2000/svg" xmlns:xlink="http://www.w3.org/1999/xlink" x="0px" y="0px"
	 width="412.667px" height="174.667px" viewBox="0 0 412.667 174.667" enable-background="new 0 0 412.667 174.667"
	 xml:space="preserve">
<g>
	<path fill="#00A94F" d="M51.902,162.442c16.888-2.013,33.698-14.376,43.521-33.33c-1.669,0.987-3.416,1.851-5.242,2.582
		c-29.346,11.756-67.64-14.926-85.536-59.596c-1.105-2.757-2.104-5.515-3.001-8.27c1.707,31.874,11.211,59.569,34.501,84.015
		c5.274,5.535,11.163,10.957,17.361,15.899C52.968,163.312,52.434,162.881,51.902,162.442"/>
	<path fill="#27318B" d="M66.323,1.761H39.68C49.969,6.836,61.886,13.75,73.765,22.897c27.17,20.929,44.57,45.978,52.258,73.133
		c3.715-13.571,5.277-27.982,5.277-43.336V1.761H66.323z"/>
	<path fill="#00A94F" d="M76.828,25.31c-0.146,0.094-0.29,0.188-0.434,0.282c-14.914,9.821-27.988,21.56-39.002,34.916
		c11.142,6.997,22.893,15.942,33.179,27.064C80.52,72.431,91.886,60.33,102.55,50.95C95.362,41.901,86.788,33.321,76.828,25.31"/>
	<path fill="#27318B" d="M95.422,129.106c-9.816,18.957-26.628,31.323-43.521,33.336c4.646,3.803,9.491,7.348,14.4,10.464
		c10.825-6.874,21.393-15.817,30.199-25.063c0.888-0.93,1.756-1.87,2.607-2.813C98.29,139.472,97.044,134.168,95.422,129.106"/>
	<path fill="#7AC143" d="M131.299,1.761h-0.146c-10.8,2.469-31.685,8.737-54.326,23.549c9.96,8.011,18.534,16.591,25.722,25.64
		c11.177-9.829,21.582-16.667,28.75-20.857V1.761z"/>
	<path fill="#27318B" d="M37.392,60.507C26.004,74.321,16.825,89.863,10.11,106.818c5.495,14.648,13.893,28.278,26.035,41.025
		c2.66,2.792,5.478,5.555,8.412,8.244c4.107-27.611,14.023-50.267,26.014-68.516c-5.143-5.56-10.652-10.577-16.268-15.078
		C48.687,67.991,42.963,64.006,37.392,60.507"/>
	<path fill="#00703C" d="M70.571,87.572c13.88,15.002,25.097,33.964,28.536,57.458c13.551-15.045,22.069-31.308,26.916-49
		c-4.498-15.884-12.317-31.041-23.473-45.08C91.885,60.33,80.52,72.43,70.571,87.572"/>
	<path fill="#7AC143" d="M76.394,25.592c0.144-0.094,0.287-0.188,0.434-0.282c-1.01-0.806-2.027-1.615-3.063-2.413
		C61.886,13.75,49.969,6.836,39.68,1.761H1.348v40.74C9.15,45.48,22.741,51.31,37.392,60.508
		C48.406,47.152,61.48,35.412,76.394,25.592"/>
	<path fill="#27318B" d="M157.173,5.402c0.472,0.033,0.979,0.102,1.484,0.102c0.473,0,0.948-0.069,1.486-0.102v23.094
		c-0.538-0.036-1.013-0.1-1.486-0.1c-0.505,0-1.012,0.064-1.484,0.1V5.402z"/>
	<path fill="#27318B" d="M186.306,28.496h-1.011c-0.372-0.472-1.046-1.285-1.757-2.059L168.954,10.3h-0.34v18.196
		c-0.337-0.036-0.64-0.1-0.942-0.1c-0.338,0-0.638,0.064-0.947,0.1V5.402h1.318l16.035,17.39h0.335V5.402
		c0.307,0.033,0.61,0.102,0.948,0.102c0.304,0,0.606-0.069,0.945-0.102V28.496z"/>
	<path fill="#27318B" d="M200.656,28.564c-0.542-0.036-1.016-0.105-1.486-0.105c-0.51,0-1.012,0.069-1.486,0.105V7.024
		c-3.414,0-5.47,0.2-7.396,0.403c0.036-0.332,0.101-0.675,0.101-1.011c0-0.339-0.065-0.643-0.101-1.015h17.421
		c-0.032,0.372-0.102,0.676-0.102,1.015c0,0.336,0.07,0.679,0.102,1.011c-1.69-0.203-4.048-0.403-7.053-0.403V28.564z"/>
	<path fill="#27318B" d="M214.358,15.462h5.232c1.018,0,1.997-0.133,3.009-0.169c-0.039,0.271-0.106,0.576-0.106,0.877
		c0,0.269,0.067,0.577,0.106,0.947c-1.012-0.035-1.991-0.168-3.009-0.168h-5.232v9.858c2.059,0.068,4.09-0.065,6.112-0.136
		c1.05-0.032,2.059-0.132,3.106-0.305c-0.032,0.376-0.102,0.676-0.102,1.015c0,0.336,0.07,0.675,0.102,1.015h-12.188V5.402h11.985
		c-0.032,0.372-0.102,0.675-0.102,1.015c0,0.336,0.07,0.678,0.102,1.011c-1.013-0.203-2.026-0.305-3.039-0.371l-3.376-0.069h-2.6
		V15.462z"/>
	<path fill="#27318B" d="M228.299,5.402h7.16c5.2,0,7.498,1.721,7.498,5.132c0,3.919-3.515,5.807-6.924,6.415l6.96,8.81l1.612,1.894
		l0.643,0.843c-0.706-0.036-1.318-0.1-1.958-0.1c-0.642,0-1.317,0.064-1.923,0.1c-0.742-1.049-1.416-1.993-2.124-2.939l-3.987-5.164
		l-2.702-3.173h-1.285v11.276c-0.535-0.036-1.011-0.1-1.484-0.1c-0.503,0-1.013,0.064-1.486,0.1V5.402z M231.269,15.936
		c0.474,0.035,2.636,0.169,4.357-0.169c2.469-0.504,4.325-2.193,4.325-4.83c0-2.324-1.187-3.841-3.714-4.25
		c-1.254-0.203-3.548-0.105-4.968-0.032V15.936z"/>
	<path fill="#27318B" d="M268.846,28.496h-1.013c-0.371-0.472-1.046-1.285-1.757-2.059L251.495,10.3h-0.34v18.196
		c-0.338-0.036-0.64-0.1-0.942-0.1c-0.337,0-0.648,0.064-0.947,0.1V5.402h1.318l16.036,17.39h0.334V5.402
		c0.305,0.033,0.61,0.102,0.945,0.102c0.304,0,0.609-0.069,0.947-0.102V28.496z"/>
	<path fill="#27318B" d="M293.53,28.495c-0.643-0.036-1.181-0.1-1.757-0.1c-0.64,0-1.213,0.064-1.79,0.1
		c-0.974-2.806-2.19-6.045-3.54-9.116h-8.579c-1.184,2.97-2.393,5.94-3.34,9.116c-0.469-0.036-0.846-0.1-1.249-0.1
		c-0.443,0-0.814,0.064-1.184,0.1l10.532-23.596h0.778L293.53,28.495z M282.184,9.319l-3.681,8.642h7.431L282.184,9.319z"/>
	<path fill="#27318B" d="M302.61,28.564c-0.541-0.036-1.013-0.105-1.481-0.105c-0.512,0-1.017,0.069-1.489,0.105V7.024
		c-3.406,0-5.471,0.2-7.392,0.403c0.033-0.332,0.101-0.675,0.101-1.011c0-0.339-0.068-0.643-0.101-1.015h17.42
		c-0.034,0.372-0.099,0.676-0.099,1.015c0,0.336,0.065,0.679,0.099,1.011c-1.685-0.203-4.049-0.403-7.058-0.403V28.564z"/>
	<path fill="#27318B" d="M313.548,5.402c0.472,0.033,0.977,0.102,1.485,0.102c0.472,0,0.944-0.069,1.489-0.102v23.094
		c-0.545-0.036-1.017-0.1-1.489-0.1c-0.508,0-1.013,0.064-1.485,0.1V5.402z"/>
	<path fill="#27318B" d="M321.145,16.949c0-7.396,5.503-12.05,12.492-12.05c6.346,0,12.794,3.438,12.794,11.54
		c0,7.533-5.333,12.46-12.864,12.46C326.107,28.899,321.145,24.172,321.145,16.949 M340.999,9.286
		c-1.691-2.127-4.32-3.273-7.028-3.273c-5.943,0-9.519,4.489-9.519,11.34c0,6.854,4.186,10.431,9.221,10.431
		c7.116,0,9.686-7.359,9.447-11.073C343.12,13.908,342.75,11.548,340.999,9.286"/>
	<path fill="#27318B" d="M370.805,28.496h-1.013c-0.373-0.472-1.049-1.285-1.759-2.059L353.449,10.3h-0.335v18.196
		c-0.337-0.036-0.642-0.1-0.951-0.1c-0.331,0-0.639,0.064-0.944,0.1V5.402h1.318l16.039,17.39h0.334V5.402
		c0.305,0.033,0.611,0.102,0.948,0.102c0.305,0,0.606-0.069,0.947-0.102V28.496z"/>
	<path fill="#27318B" d="M395.483,28.495c-0.64-0.036-1.177-0.1-1.754-0.1c-0.64,0-1.217,0.064-1.787,0.1
		c-0.977-2.806-2.196-6.045-3.546-9.116h-8.572c-1.184,2.97-2.404,5.94-3.344,9.116c-0.472-0.036-0.843-0.1-1.246-0.1
		c-0.439,0-0.813,0.064-1.187,0.1l10.532-23.596h0.778L395.483,28.495z M384.14,9.319l-3.681,8.642h7.432L384.14,9.319z"/>
	<path fill="#27318B" d="M402.003,26.807c2.056,0.067,4.081-0.065,6.107-0.136c1.079-0.032,2.124-0.169,3.209-0.305
		c-0.033,0.376-0.105,0.675-0.105,1.015c0,0.336,0.072,0.675,0.105,1.014H399.03V5.402c0.472,0.032,0.977,0.101,1.485,0.101
		c0.471,0,0.944-0.069,1.488-0.101V26.807z"/>
	<path fill="#6D6E71" d="M159.319,159.3c0.01,1.07,0.02,1.921,0.048,2.55c0.01,0.635,0.027,1.221,0.046,1.762
		c0.019,0.54,0.042,1.041,0.06,1.508c0.025,0.462,0.061,1.035,0.108,1.714c0,0.168,0.009,0.32,0.018,0.459
		c-0.28-0.072-0.531-0.099-0.741-0.099c-0.186,0-0.387,0.027-0.597,0.083l-0.088,0.016c0.018-0.195,0.046-0.517,0.069-0.951
		c0.024-0.429,0.048-0.96,0.08-1.575c0.028-0.615,0.047-1.198,0.056-1.741c0.018-0.551,0.023-1.038,0.023-1.472
		c0-0.259-0.014-1.025-0.032-2.306c-0.019-1.214-0.019-1.904-0.019-2.094v-2.113h0.051c0.107,0.022,0.182,0.03,0.229,0.03
		c0.055,0,0.139,0,0.247-0.013c0.008,0,0.051-0.007,0.127-0.017l0.577,0.684c0.293,0.33,0.568,0.64,0.835,0.931
		c0.265,0.297,0.643,0.703,1.132,1.217c0.522,0.543,0.942,0.985,1.254,1.323c1.516,1.584,2.415,2.526,2.7,2.827
		c0.279,0.3,0.615,0.653,1.025,1.063c0.401,0.41,0.793,0.811,1.166,1.198v-0.653c0-2.501-0.01-4.172-0.028-5.018
		c-0.01-0.597-0.033-1.18-0.061-1.733c-0.027-0.559-0.08-1.175-0.136-1.839c0.262,0.068,0.49,0.101,0.691,0.101
		c0.195,0,0.447-0.033,0.755-0.101c-0.13,1.138-0.214,2.268-0.242,3.397c-0.041,1.126-0.056,2.533-0.056,4.223
		c0,1.035,0,1.945,0.005,2.73c0.005,0.783,0.033,1.457,0.06,2.012c-0.055-0.014-0.093-0.021-0.102-0.021
		c-0.094-0.015-0.168-0.019-0.229-0.019c-0.032,0-0.088,0.004-0.177,0.019c-0.051,0.012-0.08,0.021-0.107,0.021
		c-0.149-0.192-0.401-0.482-0.756-0.883c-0.349-0.402-0.764-0.857-1.239-1.376c-0.477-0.515-0.933-0.997-1.362-1.441
		c-0.419-0.449-0.774-0.799-1.063-1.055c-0.196-0.192-0.494-0.483-0.894-0.884l-3.433-3.571V159.3z"/>
	<path fill="#6D6E71" d="M173.792,162.685c-0.02,0.019-0.029,0.06-0.057,0.119c-0.304,0.692-0.587,1.385-0.844,2.077
		c-0.256,0.697-0.508,1.498-0.741,2.415c-0.055-0.014-0.112-0.024-0.177-0.037c-0.197-0.045-0.374-0.068-0.542-0.068
		c-0.167,0-0.358,0.023-0.578,0.068c-0.073,0.013-0.138,0.023-0.194,0.037c0.429-0.94,0.913-1.986,1.431-3.147
		c0.516-1.154,1.025-2.282,1.514-3.38c0.491-1.098,0.951-2.156,1.39-3.18c0.442-1.02,0.801-1.89,1.081-2.62l0.126,0.014
		c0.136,0.03,0.233,0.04,0.322,0.04c0.116,0,0.242-0.021,0.382-0.054c0.317,0.856,0.751,1.94,1.296,3.237
		c0.542,1.309,1.119,2.63,1.707,3.982c0.596,1.35,1.118,2.525,1.566,3.532c0.448,1.002,0.69,1.529,0.717,1.576
		c-0.4-0.072-0.745-0.105-1.044-0.105c-0.302,0-0.679,0.033-1.123,0.105c-0.247-0.87-0.509-1.648-0.787-2.325
		c-0.271-0.683-0.574-1.379-0.905-2.096l-0.089-0.19H173.792z M175.991,157.433l-1.846,4.368h3.748L175.991,157.433z"/>
	<path fill="#6D6E71" d="M194.989,163.71c-0.349,0.817-0.843,1.489-1.468,2.02c-0.634,0.526-1.343,0.923-2.14,1.174
		c-0.796,0.259-1.651,0.392-2.554,0.392c-0.033,0-0.323-0.01-0.864-0.019c-0.541-0.023-0.969-0.039-1.295-0.044
		c-0.318-0.009-0.533-0.009-0.644-0.009c-0.209,0-0.443,0.005-0.699,0.017c-0.261,0.013-0.653,0.031-1.185,0.055v-0.072
		c0.038-0.42,0.071-0.863,0.099-1.322c0.032-0.459,0.051-0.903,0.06-1.336c0.018-0.436,0.028-1.014,0.038-1.744
		c0.008-0.729,0.018-1.584,0.018-2.574c0-1.183-0.01-2.136-0.038-2.869c-0.008-0.314-0.018-0.624-0.027-0.926
		c-0.019-0.295-0.041-0.755-0.075-1.38c0.975,0.034,1.935,0.054,2.881,0.054c0.989,0,1.763,0.01,2.313,0.028
		c0.554,0.015,1.072,0.063,1.556,0.138c0.486,0.077,0.942,0.205,1.375,0.387c0.426,0.182,0.845,0.435,1.242,0.751
		c0.703,0.561,1.202,1.225,1.496,1.985c0.294,0.768,0.438,1.581,0.438,2.448C195.516,161.944,195.344,162.895,194.989,163.71
		 M193.483,159.967c-0.056-0.371-0.144-0.749-0.271-1.117c-0.129-0.373-0.316-0.73-0.549-1.074
		c-0.234-0.348-0.522-0.644-0.881-0.908c-0.546-0.41-1.134-0.668-1.767-0.773c-0.626-0.106-1.418-0.161-2.369-0.161
		c-0.383,0-0.657,0.005-0.811,0.01c-0.149,0.008-0.364,0.028-0.647,0.062h-0.09c-0.036,0.716-0.06,1.492-0.074,2.334
		c-0.01,0.839-0.015,1.741-0.015,2.701v3.224c0.01,0.319,0.02,0.601,0.029,0.853c0.005,0.254,0.009,0.674,0.024,1.261
		c0.33,0.038,0.624,0.062,0.89,0.077c0.26,0.019,0.596,0.029,0.998,0.029c0.294,0,0.573-0.01,0.844-0.019
		c0.27-0.01,0.568-0.045,0.885-0.096c0.326-0.053,0.654-0.14,0.989-0.254c0.336-0.119,0.643-0.277,0.922-0.478
		c0.387-0.266,0.718-0.596,0.98-0.967c0.26-0.373,0.466-0.769,0.605-1.18c0.146-0.41,0.243-0.815,0.3-1.228
		c0.061-0.401,0.088-0.797,0.088-1.189C193.563,160.712,193.539,160.344,193.483,159.967"/>
	<path fill="#6D6E71" d="M204.691,162.685c-0.014,0.019-0.028,0.06-0.052,0.119c-0.308,0.692-0.588,1.385-0.848,2.077
		c-0.256,0.697-0.504,1.498-0.737,2.415c-0.06-0.014-0.116-0.024-0.177-0.037c-0.201-0.045-0.378-0.068-0.546-0.068
		c-0.167,0-0.353,0.023-0.578,0.068c-0.07,0.013-0.138,0.023-0.194,0.037c0.429-0.94,0.913-1.986,1.431-3.147
		c0.521-1.154,1.03-2.282,1.514-3.38c0.495-1.098,0.951-2.156,1.394-3.18c0.438-1.02,0.802-1.89,1.077-2.62l0.126,0.014
		c0.136,0.03,0.233,0.04,0.322,0.04c0.116,0,0.242-0.021,0.387-0.054c0.312,0.856,0.746,1.94,1.291,3.237
		c0.545,1.309,1.119,2.63,1.712,3.982c0.591,1.35,1.113,2.525,1.566,3.532c0.448,1.002,0.685,1.529,0.712,1.576
		c-0.4-0.072-0.745-0.105-1.039-0.105c-0.307,0-0.681,0.033-1.128,0.105c-0.247-0.87-0.509-1.648-0.787-2.325
		c-0.271-0.683-0.574-1.379-0.9-2.096l-0.094-0.19H204.691z M206.891,157.433l-1.846,4.368h3.753L206.891,157.433z"/>
	<path fill="#6D6E71" d="M218.128,166.317c0.19,0.004,0.424,0.004,0.704,0.004c0.508,0,1.072-0.014,1.692-0.051
		c0.621-0.032,1.119-0.086,1.492-0.153c-0.046,0.204-0.071,0.4-0.071,0.578c0,0.209,0.025,0.41,0.071,0.601
		c-0.225-0.014-0.54-0.024-0.965-0.037c-0.425-0.024-0.854-0.04-1.291-0.054c-0.444-0.014-0.956-0.014-1.548-0.014
		c-0.573,0-1.002,0-1.282,0.014c-0.284,0.014-0.649,0.03-1.11,0.054c-0.201,0.013-0.382,0.023-0.542,0.037
		c0.058-1.026,0.094-2.009,0.121-2.96c0.02-0.95,0.034-2.106,0.034-3.469c0-0.609-0.005-1.205-0.019-1.785
		c-0.015-0.583-0.022-1.158-0.042-1.716c-0.018-0.562-0.033-1.054-0.051-1.474c-0.018-0.417-0.028-0.674-0.028-0.783
		c0.023,0,0.051,0.005,0.089,0.019c0.153,0.023,0.289,0.043,0.41,0.063c0.126,0.019,0.275,0.027,0.447,0.027
		c0.323,0,0.691-0.039,1.115-0.109c-0.038,0.979-0.066,1.914-0.088,2.815c-0.025,0.909-0.048,1.71-0.056,2.416
		c-0.01,1.033-0.019,3.019-0.019,5.954C217.629,166.303,217.937,166.312,218.128,166.317"/>
	<path fill="#6D6E71" d="M235.032,157.344c-0.073-0.2-0.163-0.391-0.274-0.573c-0.108-0.175-0.261-0.353-0.448-0.515
		c-0.191-0.166-0.428-0.297-0.723-0.401c-0.293-0.095-0.629-0.147-1.007-0.147c-0.444,0-0.817,0.07-1.114,0.21
		c-0.303,0.142-0.532,0.319-0.695,0.538s-0.279,0.436-0.344,0.659c-0.066,0.224-0.099,0.43-0.099,0.617
		c0,0.328,0.06,0.62,0.186,0.864c0.126,0.247,0.29,0.453,0.486,0.616c0.2,0.162,0.405,0.3,0.615,0.404
		c0.214,0.106,0.471,0.22,0.773,0.334l0.123,0.04c0.554,0.219,0.95,0.378,1.187,0.474c0.244,0.092,0.458,0.184,0.645,0.27
		c0.19,0.09,0.349,0.176,0.49,0.267c0.129,0.087,0.274,0.192,0.428,0.324c0.364,0.292,0.616,0.642,0.769,1.039
		c0.145,0.4,0.215,0.806,0.215,1.216c0,0.468-0.085,0.935-0.252,1.399c-0.173,0.464-0.443,0.887-0.802,1.27
		c-0.363,0.375-0.83,0.683-1.389,0.911c-0.565,0.229-1.227,0.343-1.973,0.343c-0.61,0-1.189-0.075-1.729-0.233
		c-0.541-0.163-1.031-0.405-1.474-0.735c0.098-0.372,0.174-0.687,0.224-0.951c0.047-0.259,0.076-0.481,0.088-0.687v-0.014h0.23
		c0.27,0.548,0.661,0.993,1.17,1.326c0.512,0.336,1.1,0.506,1.771,0.506c0.853,0,1.506-0.233,1.944-0.697
		c0.444-0.466,0.662-1.012,0.662-1.646c0-0.645-0.187-1.141-0.559-1.479c-0.364-0.338-0.909-0.655-1.627-0.952l-0.191-0.091
		c-0.667-0.266-1.096-0.443-1.286-0.525c-0.187-0.081-0.366-0.16-0.528-0.246c-0.168-0.082-0.303-0.159-0.415-0.24
		c-0.116-0.075-0.223-0.166-0.346-0.271c-0.288-0.235-0.512-0.55-0.656-0.952c-0.149-0.395-0.22-0.81-0.22-1.234
		c0-1.075,0.374-1.916,1.128-2.518c0.746-0.596,1.68-0.897,2.785-0.897c0.605,0,1.188,0.091,1.733,0.268
		c0.555,0.172,0.976,0.359,1.259,0.543c-0.112,0.191-0.21,0.426-0.322,0.722c-0.107,0.297-0.167,0.572-0.191,0.844H235.032z"/>
	<path fill="#6D6E71" d="M241.191,163.932v1.813c0,0.341,0.014,0.856,0.033,1.548c-0.369-0.072-0.691-0.104-0.946-0.104
		c-0.272,0-0.603,0.032-1.003,0.104c0.032-0.715,0.069-1.371,0.103-1.971c0.037-0.598,0.06-1.143,0.084-1.619
		c0.017-0.482,0.027-0.932,0.032-1.356c0.005-0.425,0.01-0.917,0.01-1.48c0-0.602-0.005-1.203-0.02-1.814
		c-0.022-0.564-0.041-1.051-0.056-1.462c-0.009-0.41-0.032-1.088-0.065-2.042c0-0.13-0.009-0.272-0.019-0.44
		c0.155,0.035,0.294,0.063,0.44,0.082c0.143,0.013,0.325,0.023,0.545,0.023c0.223,0,0.41-0.01,0.55-0.023
		c0.135-0.019,0.284-0.047,0.438-0.082c-0.024,0.378-0.047,1.042-0.075,1.996c-0.037,0.96-0.051,2-0.051,3.133
		c1.547,0.042,2.717,0.067,3.506,0.067c0.62,0,1.183-0.012,1.687-0.021c0.508-0.009,1.031-0.019,1.572-0.033
		c0-0.2,0.005-0.554,0.013-1.06v-0.649c0-0.467-0.005-0.911-0.013-1.328c-0.015-0.415-0.037-1.049-0.071-1.895l-0.018-0.21
		c0.154,0.035,0.299,0.063,0.437,0.082c0.146,0.013,0.327,0.023,0.552,0.023c0.372,0,0.699-0.033,0.983-0.105
		c-0.075,1.375-0.122,2.751-0.15,4.131c-0.027,1.379-0.046,2.816-0.046,4.319c0,0.731,0.01,1.319,0.024,1.763
		c0.009,0.281,0.019,0.554,0.027,0.811c0.015,0.258,0.028,0.646,0.056,1.16c-0.061-0.013-0.097-0.013-0.121-0.013
		c-0.354-0.059-0.616-0.091-0.792-0.091c-0.225,0-0.56,0.032-1.002,0.104c0.008-0.114,0.023-0.382,0.041-0.788
		c0.019-0.414,0.028-0.783,0.043-1.111c0.009-0.331,0.017-0.627,0.027-0.898c0.005-0.272,0.01-0.445,0.01-0.531v-2.639
		c-0.247-0.014-0.499-0.019-0.76-0.028c-0.257-0.007-0.499-0.016-0.723-0.025h-1.902h-1.837c-0.326,0-0.834,0.009-1.543,0.039
		V163.932z"/>
	<path fill="#6D6E71" d="M270.948,159.056c-0.196,0.338-0.442,0.611-0.731,0.816c-0.286,0.205-0.565,0.358-0.826,0.459
		c-0.266,0.101-0.522,0.175-0.769,0.237c-0.121,0.034-0.209,0.064-0.242,0.082c-0.034,0.014-0.052,0.033-0.052,0.061
		c0,0.021,0.015,0.035,0.042,0.04c0.028,0.009,0.116,0.022,0.252,0.047h0.051c0.554,0.057,1.035,0.181,1.435,0.368
		c0.398,0.19,0.719,0.424,0.966,0.706c0.247,0.282,0.424,0.588,0.532,0.916c0.116,0.326,0.172,0.655,0.172,0.983
		c0,0.565-0.149,1.113-0.442,1.649c-0.295,0.533-0.742,0.958-1.339,1.275c-0.34,0.189-0.76,0.328-1.259,0.424
		c-0.499,0.096-1.012,0.138-1.538,0.138c-0.121,0-0.467-0.005-1.059-0.015c-0.563-0.013-0.885-0.017-0.964-0.017
		c-0.206,0-0.411,0.004-0.635,0.017c-0.223,0.01-0.54,0.028-0.951,0.055c0.019-0.332,0.043-0.702,0.07-1.119
		c0.019-0.415,0.038-0.807,0.056-1.168c0.019-0.674,0.033-1.658,0.033-2.961c0-2.655-0.056-4.979-0.159-6.975
		c0.186,0.024,0.411,0.038,0.675,0.042c0.267,0.01,0.668,0.01,1.203,0.01c1.474,0,2.518,0.035,3.138,0.096
		c0.62,0.067,1.119,0.231,1.501,0.487c0.346,0.249,0.63,0.555,0.835,0.921c0.206,0.372,0.303,0.768,0.303,1.188
		C271.246,158.301,271.149,158.716,270.948,159.056 M268.622,156.406c-0.523-0.373-1.17-0.557-1.935-0.557
		c-0.373,0-0.784,0.028-1.235,0.088c-0.028,0.718-0.051,1.461-0.051,2.24c0,0.502,0.013,1.257,0.036,2.268
		c0.131,0,0.318,0.005,0.565,0.02c0.168,0.012,0.284,0.012,0.373,0.012c0.232,0,0.438-0.008,0.61-0.032
		c0.177-0.025,0.358-0.053,0.55-0.091c0.598-0.124,1.059-0.396,1.39-0.806c0.326-0.41,0.494-0.902,0.494-1.481
		C269.419,157.327,269.152,156.774,268.622,156.406 M269.489,162.373c-0.247-0.372-0.551-0.639-0.919-0.812
		c-0.363-0.167-0.718-0.277-1.053-0.314c-0.341-0.044-0.69-0.063-1.045-0.063c-0.158,0-0.494,0.019-1.003,0.054h-0.032
		c-0.023,1.149-0.036,2.042-0.036,2.673c0,0.858,0.023,1.704,0.051,2.539h0.163c0.293,0.024,0.545,0.032,0.76,0.032
		c0.474,0,0.903-0.013,1.281-0.05c0.374-0.034,0.69-0.124,0.934-0.264c0.479-0.271,0.81-0.61,0.993-1.012
		c0.185-0.406,0.274-0.847,0.274-1.331C269.857,163.228,269.736,162.746,269.489,162.373"/>
	<path fill="#6D6E71" d="M276.071,162.685c-0.014,0.019-0.028,0.06-0.051,0.119c-0.303,0.692-0.588,1.385-0.843,2.077
		c-0.257,0.697-0.509,1.498-0.742,2.415c-0.056-0.014-0.112-0.024-0.178-0.037c-0.2-0.045-0.377-0.068-0.54-0.068
		c-0.167,0-0.358,0.023-0.578,0.068c-0.075,0.013-0.14,0.023-0.196,0.037c0.429-0.94,0.91-1.986,1.432-3.147
		c0.517-1.154,1.025-2.282,1.51-3.38c0.493-1.098,0.951-2.156,1.394-3.18c0.443-1.02,0.802-1.89,1.082-2.62l0.121,0.014
		c0.136,0.03,0.237,0.04,0.322,0.04c0.121,0,0.242-0.021,0.386-0.054c0.317,0.856,0.752,1.94,1.297,3.237
		c0.54,1.309,1.114,2.63,1.705,3.982c0.593,1.35,1.12,2.525,1.566,3.532c0.449,1.002,0.687,1.529,0.719,1.576
		c-0.401-0.072-0.746-0.105-1.044-0.105c-0.303,0-0.682,0.033-1.123,0.105c-0.252-0.87-0.514-1.648-0.789-2.325
		c-0.274-0.683-0.573-1.379-0.903-2.096l-0.089-0.19H276.071z M278.272,157.433l-1.846,4.368h3.753L278.272,157.433z"/>
	<polygon fill="#6D6E71" points="259.528,161.618 254.952,161.618 254.952,165.865 260.051,165.865 260.051,167.138 
		253.431,167.138 253.431,155.365 259.791,155.365 259.791,156.638 254.952,156.638 254.952,160.358 259.528,160.358 	"/>
	<path fill="#27318B" d="M158.226,59.905c1.435,2.33,3.078,3.794,5.929,3.794c2.955,0,5.078-2.441,5.078-5.356
		c0-6.786-11.453-3.786-11.453-12.041c0-4.708,3.738-7.022,8.128-7.022c1.763,0,3.864,0.551,5.228,1.757
		c-0.446,0.943-0.697,1.98-0.989,2.988h-0.375c-0.756-1.963-2.366-3.169-4.521-3.169c-2.527,0-4.613,1.683-4.613,4.271
		c0,6.73,11.513,4.022,11.513,11.808c0,5.225-4.057,8.345-9.019,8.345c-1.798,0-4.723-0.779-5.959-2.124
		c0.36-1.067,0.543-2.164,0.682-3.251H158.226z"/>
	<path fill="#27318B" d="M196.131,63.178c-2.307,1.547-5.307,2.102-8.074,2.102c-8.037,0-12.873-5.09-12.873-13.098
		c0-8.235,6.075-12.902,13.783-12.902c2.67,0,5.408,0.625,7.861,1.681c-0.363,0.921-0.584,1.862-0.771,2.809l-0.247,0.045
		c-0.517-0.666-3.225-3.146-6.99-3.146c-6.722,0-10.047,5.446-10.047,11.667c0,7.011,4.021,11.509,9.796,11.509
		c3.941,0,7.008-2.334,7.757-2.963L196.131,63.178z"/>
	<path fill="#27318B" d="M220.076,39.831c0.51,0.041,1.067,0.104,1.61,0.104c0.498,0,1.023-0.063,1.604-0.104v25.007
		c-0.581-0.049-1.106-0.112-1.604-0.112c-0.543,0-1.1,0.063-1.61,0.112V52.262c-2.596-0.079-5.12-0.192-7.678-0.192
		c-2.569,0-5.082,0.113-7.708,0.192v12.576c-0.595-0.049-1.1-0.112-1.618-0.112c-0.543,0-1.1,0.063-1.606,0.112V39.831
		c0.506,0.041,1.063,0.104,1.606,0.104c0.518,0,1.023-0.063,1.618-0.104v10.498c2.626,0.064,5.18,0.187,7.708,0.187
		c2.558,0,5.082-0.123,7.678-0.187V39.831z"/>
	<path fill="#27318B" d="M228.155,52.337c0-8.012,5.947-13.057,13.516-13.057c6.865,0,13.85,3.737,13.85,12.49
		c0,8.165-5.772,13.51-13.921,13.51C233.525,65.28,228.155,60.145,228.155,52.337 M249.637,44.025
		c-1.82-2.296-4.674-3.531-7.592-3.531c-6.441,0-10.314,4.853-10.314,12.276c0,7.42,4.536,11.285,9.981,11.285
		c7.704,0,10.488-7.963,10.239-11.985C251.951,49.047,251.54,46.478,249.637,44.025"/>
	<path fill="#27318B" d="M258.592,52.337c0-8.012,5.963-13.057,13.52-13.057c6.877,0,13.855,3.737,13.855,12.49
		c0,8.165-5.768,13.51-13.918,13.51C263.971,65.28,258.592,60.145,258.592,52.337 M280.088,44.025
		c-1.828-2.296-4.679-3.531-7.596-3.531c-6.438,0-10.311,4.853-10.311,12.276c0,7.42,4.528,11.285,9.973,11.285
		c7.72,0,10.488-7.963,10.233-11.985C282.387,49.047,281.986,46.478,280.088,44.025"/>
	<path fill="#27318B" d="M293.978,63.002c2.221,0.078,4.416-0.067,6.606-0.135c1.177-0.045,2.316-0.187,3.484-0.334
		c-0.037,0.402-0.112,0.735-0.112,1.091c0,0.366,0.075,0.733,0.112,1.101h-13.311V39.83c0.513,0.041,1.057,0.105,1.615,0.105
		c0.505,0,1.026-0.064,1.606-0.105V63.002z"/>
	<path fill="#27318B" d="M314.009,52.326c0-8.002,5.955-13.046,13.522-13.046c6.867,0,13.865,3.729,13.865,12.494
		c0,8.16-5.789,13.506-13.941,13.506C319.379,65.28,314.009,60.16,314.009,52.326 M335.51,44.025
		c-1.834-2.298-4.697-3.527-7.616-3.527c-6.43,0-10.309,4.853-10.309,12.272c0,7.426,4.536,11.301,9.987,11.301
		c7.712,0,10.49-7.967,10.241-11.999C337.813,49.037,337.402,46.476,335.51,44.025"/>
	<path fill="#27318B" d="M346.178,39.828h12.974c-0.036,0.396-0.105,0.734-0.105,1.089c0,0.367,0.069,0.742,0.105,1.1
		c-1.101-0.217-2.19-0.335-3.282-0.394l-3.661-0.085h-2.805v9.185h5.656c1.104,0,2.157-0.142,3.258-0.191
		c-0.036,0.295-0.11,0.625-0.11,0.956c0,0.286,0.074,0.609,0.11,1.02c-1.101-0.036-2.154-0.182-3.258-0.182h-5.656v12.511
		c-0.598-0.053-1.11-0.121-1.618-0.121c-0.551,0-1.096,0.068-1.608,0.121V39.828z"/>
	<path fill="#27318B" d="M178.118,97.716c-2.311,1.532-5.31,2.097-8.088,2.097c-8.047,0-12.856-5.084-12.856-13.095
		c0-8.229,6.063-12.905,13.771-12.905c2.674,0,5.419,0.621,7.862,1.673c-0.363,0.923-0.585,1.862-0.77,2.83l-0.246,0.041
		c-0.516-0.67-3.234-3.158-6.991-3.158c-6.733,0-10.055,5.451-10.055,11.66c0,7.015,4.019,11.526,9.797,11.526
		c3.951,0,7.032-2.342,7.761-2.963L178.118,97.716z"/>
	<path fill="#27318B" d="M183.452,74.361h7.741c5.644,0,8.127,1.854,8.127,5.548c0,4.249-3.793,6.305-7.495,6.95l7.54,9.556
		l1.742,2.032l0.697,0.923c-0.766-0.053-1.427-0.121-2.116-0.121c-0.698,0-1.432,0.068-2.097,0.121
		c-0.786-1.141-1.532-2.169-2.286-3.181l-4.318-5.597l-2.935-3.423h-1.379V99.37c-0.601-0.053-1.112-0.121-1.616-0.121
		c-0.541,0-1.101,0.068-1.605,0.121V74.361z M186.673,85.771c0.504,0.032,2.847,0.165,4.709-0.178
		c2.661-0.556,4.677-2.383,4.677-5.241c0-2.523-1.27-4.16-4.016-4.604c-1.354-0.218-3.85-0.105-5.37-0.037V85.771z"/>
	<path fill="#27318B" d="M208.956,85.254h5.681c1.096,0,2.148-0.141,3.249-0.189c-0.033,0.294-0.101,0.625-0.101,0.956
		c0,0.286,0.068,0.608,0.101,1.019c-1.101-0.036-2.153-0.182-3.249-0.182h-5.681v10.681c2.241,0.069,4.435-0.068,6.628-0.157
		c1.142-0.032,2.242-0.146,3.358-0.311c-0.028,0.4-0.1,0.73-0.1,1.088c0,0.371,0.072,0.731,0.1,1.089h-13.195V74.36h12.985
		c-0.04,0.396-0.116,0.734-0.116,1.089c0,0.367,0.076,0.742,0.116,1.101c-1.1-0.218-2.193-0.335-3.289-0.395l-3.653-0.085h-2.834
		V85.254z"/>
	<path fill="#27318B" d="M244.58,99.369c-0.697-0.052-1.282-0.121-1.899-0.121c-0.698,0-1.319,0.069-1.94,0.121
		c-1.055-3.04-2.378-6.543-3.842-9.865h-9.285c-1.273,3.201-2.599,6.418-3.616,9.865c-0.52-0.052-0.907-0.121-1.358-0.121
		c-0.477,0-0.879,0.069-1.279,0.121l11.406-25.556h0.838L244.58,99.369z M232.291,78.594l-3.975,9.365h8.039L232.291,78.594z"/>
	<path fill="#27318B" d="M254.413,99.454c-0.589-0.052-1.101-0.137-1.613-0.137c-0.544,0-1.084,0.085-1.596,0.137V76.107
		c-3.693,0-5.947,0.226-8.007,0.444c0.032-0.359,0.101-0.735,0.101-1.101c0-0.355-0.069-0.693-0.101-1.089h18.863
		c-0.031,0.396-0.112,0.734-0.112,1.089c0,0.366,0.081,0.742,0.112,1.101c-1.83-0.218-4.398-0.444-7.647-0.444V99.454z"/>
	<path fill="#27318B" d="M266.266,74.361c0.512,0.036,1.06,0.097,1.601,0.097c0.515,0,1.027-0.061,1.612-0.097V99.37
		c-0.585-0.053-1.097-0.121-1.612-0.121c-0.541,0-1.089,0.068-1.601,0.121V74.361z"/>
	<path fill="#27318B" d="M291.891,81.049l2.201-6.104l0.25-0.584c0.431,0.036,0.879,0.096,1.351,0.096
		c0.394,0,0.854-0.06,1.314-0.096c-1.161,2.221-9.249,20.953-10.559,25.008c-0.262-0.052-0.512-0.121-0.73-0.121
		c-0.262,0-0.524,0.069-0.778,0.121c-4.16-8.588-9.503-21.908-11.115-25.008c0.556,0.036,1.181,0.096,1.766,0.096
		c0.58,0,1.116-0.06,1.778-0.096c0.488,1.125,0.915,2.342,1.354,3.54l2.464,6.398l4.487,11.087H286
		c0.705-1.512,1.468-2.931,2.044-4.411L291.891,81.049z"/>
	<path fill="#27318B" d="M303.8,85.254h5.669c1.104,0,2.164-0.141,3.266-0.189c-0.045,0.294-0.114,0.632-0.114,0.956
		c0,0.286,0.069,0.62,0.114,1.027c-1.102-0.044-2.162-0.177-3.266-0.177H303.8v10.668c2.241,0.069,4.435-0.068,6.624-0.157
		c1.141-0.032,2.23-0.13,3.362-0.311c-0.032,0.4-0.104,0.73-0.104,1.088c0,0.371,0.072,0.731,0.104,1.089h-13.191V74.36h12.981
		c-0.04,0.396-0.116,0.734-0.116,1.089c0,0.367,0.076,0.742,0.116,1.101c-1.104-0.218-2.205-0.335-3.285-0.395l-3.673-0.085H303.8
		V85.254z"/>
	<path fill="#27318B" d="M158.246,127.598c1.41,2.354,3.063,3.813,5.904,3.813c2.966,0,5.082-2.455,5.082-5.352
		c0-6.796-11.438-3.797-11.438-12.056c0-4.722,3.728-7.016,8.13-7.016c1.741,0,3.873,0.548,5.215,1.753
		c-0.448,0.955-0.69,1.975-0.992,2.991h-0.35c-0.782-1.975-2.391-3.181-4.538-3.181c-2.528,0-4.616,1.686-4.616,4.297
		c0,6.719,11.511,4.002,11.511,11.785c0,5.239-4.047,8.355-9.023,8.355c-1.794,0-4.72-0.785-5.957-2.124
		c0.358-1.08,0.544-2.168,0.701-3.265H158.246z"/>
	<path fill="#27318B" d="M196.134,130.883c-2.293,1.531-5.304,2.104-8.068,2.104c-8.057,0-12.877-5.09-12.877-13.099
		c0-8.226,6.07-12.901,13.792-12.901c2.66,0,5.4,0.621,7.846,1.672c-0.358,0.923-0.584,1.862-0.761,2.829l-0.254,0.041
		c-0.516-0.669-3.224-3.156-6.989-3.156c-6.726,0-10.051,5.449-10.051,11.668c0,7.001,4.03,11.511,9.805,11.511
		c3.951,0,7.013-2.342,7.746-2.962L196.134,130.883z"/>
	<path fill="#27318B" d="M201.653,107.535c0.503,0.037,1.06,0.097,1.616,0.097c0.512,0,1.016-0.06,1.608-0.097v25.001
		c-0.592-0.053-1.096-0.121-1.608-0.121c-0.556,0-1.113,0.068-1.616,0.121V107.535z"/>
	<path fill="#27318B" d="M214.811,118.425h5.675c1.089,0,2.152-0.142,3.241-0.189c-0.036,0.293-0.101,0.632-0.101,0.955
		c0,0.286,0.065,0.621,0.101,1.027c-1.089-0.044-2.152-0.177-3.241-0.177h-5.675v10.664c2.229,0.07,4.43-0.068,6.635-0.157
		c1.12-0.032,2.22-0.129,3.357-0.31c-0.053,0.399-0.125,0.729-0.125,1.088c0,0.37,0.072,0.73,0.125,1.088h-13.208v-24.88h12.97
		c-0.032,0.396-0.105,0.734-0.105,1.089c0,0.366,0.073,0.741,0.105,1.101c-1.096-0.219-2.185-0.335-3.293-0.396l-3.651-0.085h-2.81
		V118.425z"/>
	<path fill="#27318B" d="M251.472,132.536h-1.088c-0.408-0.516-1.149-1.374-1.907-2.229l-15.795-17.459h-0.358v19.688
		c-0.375-0.053-0.702-0.121-1.024-0.121c-0.371,0-0.697,0.068-1.02,0.121v-25.001h1.419l17.35,18.83h0.379v-18.83
		c0.323,0.037,0.661,0.097,1.016,0.097c0.335,0,0.674-0.06,1.028-0.097V132.536z"/>
	<path fill="#27318B" d="M277.387,130.883c-2.302,1.531-5.304,2.104-8.077,2.104c-8.044,0-12.865-5.09-12.865-13.099
		c0-8.226,6.07-12.901,13.776-12.901c2.668,0,5.405,0.621,7.867,1.672c-0.375,0.923-0.588,1.862-0.769,2.829l-0.275,0.041
		c-0.508-0.669-3.196-3.156-6.96-3.156c-6.735,0-10.064,5.449-10.064,11.668c0,7.001,4.03,11.511,9.806,11.511
		c3.946,0,7.013-2.342,7.747-2.962L277.387,130.883z"/>
	<path fill="#27318B" d="M285.899,118.425h5.671c1.093,0,2.152-0.142,3.249-0.189c-0.028,0.293-0.109,0.632-0.109,0.955
		c0,0.286,0.081,0.621,0.109,1.027c-1.097-0.044-2.156-0.177-3.249-0.177h-5.671v10.664c2.226,0.07,4.43-0.068,6.618-0.157
		c1.137-0.032,2.237-0.129,3.37-0.31c-0.045,0.399-0.113,0.729-0.113,1.088c0,0.37,0.068,0.73,0.113,1.088h-13.196v-24.88h12.966
		c-0.032,0.396-0.112,0.734-0.112,1.089c0,0.366,0.08,0.741,0.112,1.101c-1.084-0.219-2.196-0.335-3.284-0.396l-3.661-0.085h-2.813
		V118.425z"/>
</g>
</svg>
