<?xml version="1.0" encoding="utf-8"?>
<!-- Generator: Adobe Illustrator 26.5.0, SVG Export Plug-In . SVG Version: 6.00 Build 0)  -->
<svg version="1.1" id="Layer_1" xmlns="http://www.w3.org/2000/svg" xmlns:xlink="http://www.w3.org/1999/xlink" x="0px" y="0px"
	 viewBox="0 0 418 178.51" style="enable-background:new 0 0 418 178.51;" xml:space="preserve">
<style type="text/css">
	.st0{fill:#6D6E71;}
	.st1{fill:#FFFFFF;}
	.st2{fill:#00A94F;}
	.st3{fill:#27318B;}
	.st4{fill:#7AC143;}
	.st5{fill:#00703C;}
	.st6{fill:#2C3588;}
</style>
<g>
	<path class="st0" d="M164.41,158.81c0-0.84-0.02-1.66-0.05-2.47s-0.07-1.62-0.11-2.43c0.33,0.03,0.67,0.05,1.01,0.07
		s0.68,0.03,1.01,0.03s0.67-0.02,1.01-0.05s0.68-0.05,1.01-0.05c0.54,0,1.06,0.04,1.54,0.12s0.91,0.23,1.27,0.44
		s0.66,0.49,0.87,0.85c0.22,0.35,0.32,0.8,0.32,1.33c0,0.94-0.3,1.67-0.88,2.2c-0.59,0.53-1.36,0.91-2.31,1.12v0.04
		c1.13,0.05,2.02,0.32,2.67,0.82c0.65,0.49,0.98,1.29,0.98,2.38c0,0.71-0.15,1.31-0.44,1.79c-0.29,0.48-0.67,0.87-1.14,1.17
		s-0.99,0.51-1.55,0.63c-0.56,0.12-1.12,0.18-1.68,0.18c-0.3,0-0.61-0.01-0.92-0.02c-0.31-0.01-0.62-0.02-0.92-0.02h-0.92
		c-0.31,0-0.62,0.01-0.92,0.04c0.04-0.81,0.07-1.62,0.11-2.42c0.03-0.8,0.05-1.62,0.05-2.46L164.41,158.81L164.41,158.81z
		 M166.99,159.74c0.44,0,0.88-0.05,1.32-0.13c0.44-0.09,0.83-0.24,1.17-0.45s0.62-0.49,0.83-0.84c0.21-0.35,0.31-0.79,0.31-1.32
		c0-0.52-0.09-0.93-0.29-1.24c-0.19-0.31-0.43-0.55-0.72-0.72c-0.29-0.17-0.62-0.29-0.99-0.34c-0.37-0.06-0.73-0.08-1.1-0.08
		c-0.33,0-0.61,0.01-0.84,0.03s-0.43,0.04-0.61,0.07c-0.02,0.61-0.05,1.21-0.08,1.8c-0.03,0.6-0.04,1.2-0.04,1.81v1.43h1.04V159.74z
		 M165.96,162.38c0,0.65,0.01,1.29,0.04,1.92c0.02,0.63,0.05,1.27,0.08,1.92c0.24,0.02,0.53,0.05,0.86,0.07s0.66,0.03,1.01,0.03
		c0.4,0,0.79-0.07,1.17-0.21c0.37-0.14,0.7-0.35,0.98-0.62c0.28-0.27,0.5-0.61,0.67-1.01c0.16-0.4,0.25-0.85,0.25-1.36
		c0-0.54-0.1-0.99-0.29-1.34c-0.2-0.35-0.48-0.62-0.84-0.82c-0.37-0.2-0.81-0.33-1.32-0.41c-0.51-0.08-1.09-0.11-1.72-0.11H166v1.94
		H165.96z"/>
	<path class="st0" d="M185.8,166.96c-0.18-0.03-0.35-0.04-0.5-0.04h-0.5h-0.5c-0.16,0-0.33,0.01-0.5,0.04
		c-0.09-0.29-0.21-0.64-0.36-1.06c-0.15-0.41-0.32-0.84-0.5-1.29s-0.37-0.91-0.56-1.37c-0.19-0.46-0.37-0.9-0.53-1.32
		c-0.4-0.01-0.82-0.02-1.23-0.03c-0.42-0.01-0.84-0.01-1.25-0.01c-0.39,0-0.78,0-1.16,0.01s-0.77,0.01-1.16,0.03
		c-0.41,0.99-0.77,1.93-1.1,2.82c-0.33,0.89-0.58,1.63-0.74,2.21c-0.21-0.03-0.45-0.04-0.7-0.04s-0.49,0.01-0.7,0.04
		c1.02-2.22,2.03-4.42,3-6.61s1.96-4.42,2.94-6.69h0.36c0.3,0.74,0.63,1.53,0.99,2.38c0.35,0.86,0.71,1.72,1.08,2.59
		s0.73,1.74,1.1,2.6c0.37,0.86,0.71,1.66,1.04,2.4c0.32,0.74,0.61,1.4,0.87,1.99C185.42,166.21,185.64,166.66,185.8,166.96
		 M177.38,161.05c0.33,0,0.67,0.01,1.03,0.02c0.36,0.01,0.7,0.02,1.03,0.02c0.35,0,0.71,0,1.06-0.01c0.35-0.01,0.71-0.02,1.07-0.03
		l-2.11-4.83L177.38,161.05z"/>
	<path class="st0" d="M197.44,156.37c-0.03-0.8-0.07-1.62-0.1-2.46c0.16,0.02,0.32,0.05,0.47,0.07s0.3,0.03,0.46,0.03
		c0.15,0,0.3-0.01,0.46-0.03c0.15-0.02,0.31-0.04,0.48-0.07c-0.04,0.84-0.07,1.66-0.11,2.46c-0.03,0.81-0.05,1.62-0.05,2.46v3.27
		c0,0.84,0.02,1.66,0.05,2.47s0.07,1.61,0.11,2.4c-0.29-0.03-0.6-0.04-0.93-0.04c-0.33,0-0.64,0.01-0.93,0.04
		c0.04-0.79,0.07-1.58,0.1-2.4c0.03-0.81,0.05-1.63,0.05-2.47v-1.71c-0.68-0.01-1.35-0.02-1.98-0.03c-0.64-0.01-1.3-0.01-1.99-0.01
		c-0.68,0-1.35,0-1.99,0.01s-1.3,0.02-1.99,0.03v1.71c0,0.84,0.02,1.66,0.05,2.47s0.07,1.61,0.11,2.4c-0.29-0.03-0.6-0.04-0.93-0.04
		c-0.33,0-0.64,0.01-0.93,0.04c0.04-0.79,0.07-1.58,0.1-2.4c0.03-0.81,0.05-1.63,0.05-2.47v-3.27c0-0.84-0.02-1.66-0.05-2.46
		s-0.07-1.62-0.1-2.46c0.16,0.02,0.32,0.05,0.47,0.07s0.3,0.03,0.46,0.03c0.15,0,0.3-0.01,0.46-0.03c0.15-0.02,0.31-0.04,0.48-0.07
		c-0.04,0.84-0.07,1.66-0.11,2.46c-0.03,0.81-0.05,1.62-0.05,2.46v0.66c0.68,0.01,1.35,0.02,1.99,0.04c0.64,0.01,1.3,0.02,1.99,0.02
		c0.68,0,1.35-0.01,1.99-0.02c0.64-0.01,1.3-0.02,1.98-0.04v-0.66C197.49,157.99,197.47,157.17,197.44,156.37"/>
	<path class="st0" d="M202.77,158.83c0-0.84-0.02-1.66-0.05-2.46s-0.07-1.62-0.11-2.46c0.37,0.02,0.73,0.05,1.08,0.07
		c0.36,0.02,0.72,0.03,1.08,0.03s0.73-0.02,1.08-0.05c0.36-0.03,0.72-0.05,1.08-0.05c0.53,0,1.04,0.05,1.52,0.15
		c0.48,0.1,0.9,0.27,1.26,0.5s0.65,0.54,0.86,0.92s0.31,0.86,0.31,1.43c0,0.61-0.14,1.13-0.41,1.57s-0.61,0.8-1,1.08
		c-0.39,0.29-0.81,0.51-1.26,0.66c-0.45,0.16-0.86,0.26-1.23,0.31c0.15,0.19,0.36,0.46,0.63,0.8s0.56,0.72,0.89,1.13
		s0.67,0.84,1.03,1.29c0.35,0.45,0.7,0.88,1.03,1.29c0.33,0.41,0.64,0.79,0.93,1.13c0.29,0.34,0.53,0.6,0.7,0.78
		c-0.19-0.03-0.38-0.04-0.57-0.04h-0.57h-0.55c-0.19,0-0.37,0.01-0.55,0.04c-0.19-0.27-0.48-0.66-0.87-1.2
		c-0.39-0.53-0.81-1.1-1.28-1.71s-0.95-1.21-1.43-1.82c-0.49-0.6-0.93-1.11-1.34-1.53h-0.72v1.39c0,0.84,0.02,1.66,0.05,2.47
		s0.07,1.61,0.1,2.4c-0.29-0.03-0.6-0.04-0.93-0.04c-0.33,0-0.64,0.01-0.93,0.04c0.04-0.79,0.07-1.58,0.11-2.4
		c0.03-0.81,0.05-1.63,0.05-2.47L202.77,158.83L202.77,158.83z M204.33,159.91c0.18,0.04,0.37,0.06,0.58,0.08
		c0.21,0.01,0.44,0.02,0.69,0.02c0.39,0,0.8-0.04,1.23-0.13c0.42-0.09,0.81-0.24,1.17-0.47c0.35-0.22,0.65-0.52,0.88-0.89
		c0.23-0.38,0.35-0.85,0.35-1.42c0-0.49-0.09-0.9-0.27-1.22c-0.18-0.32-0.42-0.58-0.71-0.77c-0.29-0.19-0.61-0.32-0.95-0.39
		c-0.34-0.07-0.68-0.1-1.01-0.1c-0.44,0-0.81,0.01-1.1,0.03c-0.29,0.02-0.54,0.04-0.74,0.07c-0.02,0.7-0.05,1.39-0.08,2.07
		c-0.03,0.68-0.04,1.37-0.04,2.05V159.91z"/>
	<path class="st0" d="M224.86,166.96c-0.18-0.03-0.35-0.04-0.5-0.04h-0.5h-0.5c-0.16,0-0.33,0.01-0.5,0.04
		c-0.09-0.29-0.21-0.64-0.36-1.06c-0.15-0.41-0.32-0.84-0.5-1.29s-0.37-0.91-0.56-1.37c-0.19-0.46-0.37-0.9-0.53-1.32
		c-0.4-0.01-0.82-0.02-1.23-0.03c-0.42-0.01-0.84-0.01-1.25-0.01c-0.39,0-0.78,0-1.16,0.01s-0.77,0.01-1.16,0.03
		c-0.41,0.99-0.77,1.93-1.1,2.82c-0.33,0.89-0.58,1.63-0.74,2.21c-0.21-0.03-0.45-0.04-0.7-0.04s-0.49,0.01-0.7,0.04
		c1.02-2.22,2.03-4.42,3-6.61s1.96-4.42,2.94-6.69h0.36c0.3,0.74,0.63,1.53,0.99,2.38c0.35,0.86,0.71,1.72,1.08,2.59
		s0.73,1.74,1.1,2.6c0.37,0.86,0.71,1.66,1.04,2.4c0.32,0.74,0.61,1.4,0.87,1.99C224.49,166.21,224.7,166.66,224.86,166.96
		 M216.45,161.05c0.33,0,0.67,0.01,1.03,0.02c0.36,0.01,0.7,0.02,1.03,0.02c0.35,0,0.71,0,1.06-0.01c0.35-0.01,0.71-0.02,1.07-0.03
		l-2.11-4.83L216.45,161.05z"/>
	<path class="st0" d="M227,156.37c-0.03-0.8-0.07-1.62-0.1-2.46c0.16,0.02,0.32,0.05,0.47,0.07s0.3,0.03,0.46,0.03
		c0.15,0,0.3-0.01,0.46-0.03c0.15-0.02,0.31-0.04,0.48-0.07c-0.04,0.84-0.07,1.66-0.11,2.46c-0.03,0.81-0.05,1.62-0.05,2.46v3.27
		c0,0.84,0.02,1.66,0.05,2.47s0.07,1.61,0.11,2.4c-0.29-0.03-0.6-0.04-0.93-0.04c-0.33,0-0.64,0.01-0.93,0.04
		c0.04-0.79,0.07-1.58,0.1-2.4c0.03-0.81,0.05-1.63,0.05-2.47v-3.27C227.05,157.99,227.03,157.17,227,156.37"/>
	<path class="st0" d="M238.37,162.03c-1.65-1.77-3.29-3.52-4.94-5.27c-0.01,0.35-0.03,0.83-0.04,1.42c-0.01,0.6-0.02,1.41-0.02,2.43
		c0,0.27,0,0.6,0.01,0.99s0.01,0.81,0.02,1.24c0.01,0.43,0.02,0.87,0.03,1.31s0.02,0.86,0.04,1.24c0.01,0.38,0.02,0.71,0.04,1
		c0.01,0.28,0.02,0.48,0.04,0.58c-0.2-0.03-0.42-0.04-0.67-0.04s-0.49,0.01-0.7,0.04c0.02-0.13,0.05-0.36,0.09-0.7
		c0.03-0.34,0.06-0.75,0.08-1.23s0.05-0.99,0.09-1.55c0.03-0.56,0.06-1.11,0.08-1.67s0.03-1.1,0.05-1.63
		c0.01-0.53,0.02-1.01,0.02-1.42c0-1.22,0-2.26-0.01-3.13c-0.01-0.87-0.02-1.53-0.05-1.96h0.31c0.77,0.84,1.6,1.73,2.48,2.69
		c0.88,0.96,1.75,1.9,2.62,2.83c0.87,0.93,1.69,1.81,2.47,2.64s1.46,1.54,2.04,2.12v-2.58c0-1.33-0.01-2.62-0.03-3.88
		c-0.02-1.26-0.06-2.45-0.12-3.56c0.25,0.06,0.47,0.1,0.65,0.1c0.15,0,0.35-0.03,0.61-0.1c-0.03,0.28-0.06,0.7-0.09,1.25
		c-0.03,0.56-0.06,1.15-0.09,1.79c-0.03,0.63-0.06,1.25-0.09,1.86c-0.02,0.61-0.04,1.1-0.04,1.46v1.14c0,0.43,0,0.88,0.01,1.35
		s0.01,0.94,0.02,1.42c0.01,0.47,0.01,0.92,0.02,1.33c0.01,0.41,0.01,0.77,0.01,1.07v0.63h-0.27
		C241.57,165.52,240.02,163.8,238.37,162.03"/>
	<path class="st1" d="M0,0v62.52c0.86,16.15,3.97,31.68,9.3,45.92c0,0.01-0.01,0.02-0.01,0.02c0.16,0.46,0.34,0.91,0.51,1.35
		c0.13,0.33,0.25,0.65,0.38,0.98c0.62,1.56,1.27,3.1,1.96,4.64c0.13,0.28,0.25,0.57,0.38,0.86c0.71,1.56,1.45,3.1,2.22,4.63
		c0.14,0.27,0.27,0.52,0.4,0.78c0.8,1.55,1.63,3.08,2.49,4.6c0.14,0.24,0.28,0.49,0.42,0.73c0.89,1.53,1.81,3.05,2.77,4.55
		c0.15,0.23,0.3,0.46,0.45,0.69c0.98,1.52,1.99,3.02,3.06,4.52c0.15,0.21,0.3,0.41,0.45,0.62c1.09,1.51,2.21,3.02,3.38,4.51
		c0.14,0.17,0.28,0.34,0.42,0.52c1.21,1.52,2.46,3.04,3.76,4.54c0.09,0.11,0.19,0.22,0.29,0.33c1.37,1.57,2.78,3.12,4.25,4.67
		c5.1,5.35,10.77,10.59,16.72,15.46h-0.03c0.57,0.47,1.14,0.93,1.71,1.38c-0.28-0.22-0.55-0.46-0.83-0.69
		c4.66,3.76,9.49,7.29,14.4,10.39c11.46-7.29,22.66-16.75,32-26.55c0.94-0.99,1.86-1.99,2.76-2.99
		c14.35-15.94,23.38-33.17,28.51-51.92c3.94-14.37,5.6-29.66,5.6-45.91V27.19V0.01h-0.16L0,0z"/>
	<path class="st2" d="M54.91,161.38c16.38-1.95,32.68-13.94,42.21-32.33c-1.62,0.96-3.31,1.79-5.08,2.5
		c-28.46,11.4-65.61-14.48-82.96-57.8C8,71.08,7.03,68.4,6.16,65.73c1.66,30.92,10.88,57.78,33.46,81.49
		c5.11,5.37,10.83,10.63,16.84,15.42C55.94,162.22,55.43,161.81,54.91,161.38"/>
	<path class="st3" d="M68.9,5.53H43.06c9.98,4.92,21.54,11.63,33.06,20.5c26.35,20.3,43.23,44.6,50.69,70.93
		c3.6-13.16,5.12-27.14,5.12-42.03V5.53H68.9z"/>
	<path class="st2" d="M79.09,28.37c-0.14,0.09-0.28,0.18-0.42,0.27C64.2,38.17,51.52,49.56,40.84,62.51
		c10.81,6.79,22.21,15.46,32.18,26.25c9.65-14.69,20.67-26.42,31.02-35.52C97.06,44.46,88.75,36.14,79.09,28.37"/>
	<path class="st3" d="M97.12,129.05c-9.52,18.39-25.83,30.38-42.21,32.33c4.51,3.69,9.21,7.13,13.97,10.15
		c10.5-6.67,20.75-15.34,29.29-24.31c0.86-0.9,1.7-1.81,2.53-2.73C99.9,139.1,98.7,133.96,97.12,129.05"/>
	<path class="st4" d="M131.92,5.53h-0.14C121.3,7.92,101.05,14,79.09,28.37c9.66,7.77,17.98,16.09,24.95,24.87
		c10.84-9.53,20.93-16.17,27.89-20.23L131.92,5.53L131.92,5.53z"/>
	<path class="st3" d="M40.84,62.51c-11.05,13.4-19.95,28.47-26.46,44.92c5.33,14.21,13.48,27.43,25.25,39.79
		c2.58,2.71,5.31,5.39,8.16,8c3.98-26.78,13.6-48.76,25.23-66.45c-4.99-5.39-10.33-10.26-15.78-14.62
		C51.79,69.77,46.24,65.9,40.84,62.51"/>
	<path class="st5" d="M73.02,88.76c13.46,14.55,24.34,32.94,27.68,55.73c13.14-14.59,21.41-30.37,26.11-47.53
		c-4.36-15.41-11.95-30.11-22.77-43.72C93.69,62.34,82.67,74.08,73.02,88.76"/>
	<path class="st4" d="M78.67,28.64c0.14-0.09,0.28-0.18,0.42-0.27c-0.98-0.78-1.97-1.57-2.97-2.34
		C64.6,17.16,53.04,10.45,43.06,5.53H5.88v39.52c7.57,2.89,20.75,8.54,34.96,17.47C51.52,49.56,64.2,38.17,78.67,28.64"/>
	<path class="st6" d="M165.99,27.44c0.17,0.02,0.35,0.03,0.54,0.04l0.27,0.02V3.88l-0.27,0.02c-0.21,0.01-0.4,0.03-0.6,0.05
		c-0.65,0.06-1.26,0.05-1.87-0.01c-0.16-0.01-0.32-0.03-0.47-0.04l-0.27-0.02v23.63l0.67-0.06
		C164.64,27.39,165.29,27.38,165.99,27.44"/>
	<path class="st6" d="M173.44,27.45c0.39-0.06,0.77-0.07,1.21,0c0.11,0.01,0.22,0.03,0.34,0.04l0.28,0.03V9.31l14.49,16.03
		c0.69,0.75,1.35,1.55,1.74,2.04l0.08,0.1h1.38V3.87l-0.27,0.03c-0.13,0.01-0.26,0.03-0.38,0.05c-0.4,0.06-0.77,0.05-1.15-0.01
		c-0.11-0.01-0.21-0.03-0.32-0.04l-0.28-0.03v17.39l-16-17.37h-1.68v23.62l0.28-0.03C173.25,27.47,173.34,27.46,173.44,27.45"/>
	<path class="st6" d="M196.44,6.14l-0.03,0.31l0.31-0.03c2.03-0.21,3.98-0.39,7.12-0.4v21.56l0.27-0.02
		c0.15-0.01,0.29-0.03,0.44-0.04c0.62-0.06,1.24-0.07,1.92-0.01c0.18,0.02,0.37,0.04,0.57,0.05l0.27,0.02V6.02
		c2.36,0.01,4.63,0.14,6.77,0.4l0.31,0.04l-0.03-0.31c-0.01-0.12-0.03-0.24-0.04-0.36c-0.03-0.22-0.06-0.42-0.06-0.62
		s0.03-0.38,0.05-0.57c0.02-0.14,0.04-0.27,0.05-0.42l0.02-0.27h-17.97l0.03,0.27c0.01,0.13,0.03,0.26,0.05,0.38
		c0.03,0.21,0.05,0.4,0.05,0.61c0,0.22-0.03,0.45-0.06,0.67C196.47,5.94,196.46,6.04,196.44,6.14"/>
	<path class="st6" d="M230.23,27.11c-0.01-0.12-0.03-0.24-0.04-0.37c-0.03-0.22-0.06-0.42-0.06-0.62s0.03-0.38,0.05-0.57
		c0.02-0.13,0.04-0.27,0.05-0.42l0.03-0.32l-0.32,0.05c-1.04,0.17-2.04,0.27-3.07,0.3c-0.48,0.02-0.96,0.04-1.43,0.06
		c-1.44,0.06-2.93,0.12-4.42,0.09v-9.36H226c0.58,0,1.16,0.04,1.71,0.09c0.43,0.03,0.85,0.07,1.29,0.08l0.29,0.01l-0.03-0.29
		c-0.01-0.14-0.03-0.28-0.05-0.4c-0.03-0.19-0.05-0.36-0.05-0.52c0-0.2,0.03-0.42,0.07-0.62l0.08-0.51l-0.3,0.01
		c-0.43,0.02-0.86,0.05-1.28,0.08c-0.56,0.04-1.14,0.09-1.72,0.09h-4.98V5.98h2.35l3.36,0.07c1.21,0.08,2.14,0.19,3.01,0.37
		l0.33,0.07l-0.03-0.33c-0.01-0.12-0.03-0.24-0.04-0.36c-0.03-0.22-0.06-0.42-0.06-0.62c0-0.19,0.03-0.38,0.05-0.57
		c0.02-0.13,0.04-0.27,0.05-0.42l0.02-0.27h-12.51v23.49h12.71L230.23,27.11z"/>
	<path class="st6" d="M237.12,27.44c0.17,0.01,0.35,0.03,0.53,0.04l0.27,0.02V16.21h0.92l2.62,3.08l3.98,5.16
		c0.75,1,1.46,2,2.12,2.93l0.08,0.11l0.65-0.04c0.88-0.06,1.74-0.07,2.64-0.01c0.22,0.01,0.46,0.03,0.7,0.04l0.54,0.03l-0.98-1.28
		l-1.61-1.89l-6.7-8.49c4.22-0.87,6.72-3.31,6.72-6.58c0-3.62-2.54-5.38-7.75-5.38h-7.41V27.5l0.68-0.06
		C235.78,27.39,236.42,27.38,237.12,27.44 M237.92,5.63c1.63-0.08,3.57-0.14,4.68,0.04c2.33,0.38,3.5,1.72,3.5,4
		c0,2.34-1.54,4.06-4.12,4.59c-1.48,0.29-3.28,0.23-4.06,0.18V5.63z"/>
	<path class="st6" d="M257.19,27.44c0.11,0.02,0.22,0.03,0.34,0.04l0.28,0.03V9.31l14.49,16.03c0.7,0.76,1.38,1.58,1.74,2.04
		l0.08,0.1h1.38V3.87l-0.28,0.03c-0.13,0.01-0.25,0.03-0.38,0.05c-0.4,0.06-0.78,0.05-1.15,0c-0.11-0.02-0.21-0.03-0.31-0.04
		l-0.28-0.03v17.39l-16-17.38h-1.68v23.63l0.54-0.07C256.34,27.39,256.74,27.38,257.19,27.44"/>
	<path class="st6" d="M278.84,27.45c0.48-0.06,1.02-0.07,1.59-0.01c0.15,0.02,0.31,0.03,0.48,0.05l0.2,0.02l0.06-0.19
		c0.88-2.95,2-5.76,3.09-8.49l0.18-0.45h8.25c1.16,2.65,2.33,5.66,3.47,8.95l0.06,0.18l0.19-0.01c0.17-0.01,0.34-0.02,0.51-0.04
		c0.74-0.06,1.53-0.07,2.37-0.01c0.21,0.02,0.42,0.03,0.64,0.04l0.4,0.02L290.04,3.54l-0.06-0.15h-1.11L278.1,27.53l0.43-0.04
		C278.63,27.48,278.73,27.46,278.84,27.45 M285.29,16.45l3.3-7.76l3.37,7.76H285.29z"/>
	<path class="st6" d="M298.4,6.14l-0.03,0.31l0.31-0.03c2.03-0.21,3.97-0.39,7.12-0.4v21.56l0.27-0.02
		c0.14-0.01,0.29-0.03,0.43-0.04c0.62-0.06,1.24-0.07,1.93-0.01c0.18,0.02,0.37,0.04,0.57,0.05l0.27,0.02V6.02
		c2.36,0.01,4.64,0.14,6.78,0.4l0.31,0.04l-0.03-0.31c-0.01-0.11-0.03-0.22-0.04-0.33c-0.03-0.22-0.06-0.44-0.06-0.65
		c0-0.2,0.03-0.39,0.05-0.59c0.02-0.13,0.03-0.26,0.05-0.4l0.02-0.27h-17.97l0.02,0.27c0.01,0.14,0.03,0.28,0.05,0.41
		c0.03,0.2,0.05,0.38,0.05,0.58c0,0.21-0.03,0.42-0.06,0.64C298.43,5.92,298.42,6.03,298.4,6.14"/>
	<path class="st6" d="M322.36,27.44c0.18,0.02,0.36,0.03,0.55,0.04l0.27,0.02V3.88l-0.26,0.02c-0.21,0.01-0.41,0.03-0.61,0.05
		c-0.65,0.06-1.26,0.05-1.86-0.01c-0.16-0.01-0.32-0.03-0.47-0.04l-0.27-0.02v23.63l0.67-0.06
		C321.02,27.39,321.66,27.38,322.36,27.44"/>
	<path class="st6" d="M340.04,3.39c-7.5,0-12.74,5.06-12.74,12.3c0,7.3,5.09,12.2,12.67,12.2c7.84,0,13.11-5.11,13.11-12.71
		C353.08,7.04,346.53,3.39,340.04,3.39 M346.27,23.63c-1.65,1.76-3.73,2.65-6.19,2.65c-5.45,0-8.97-4-8.97-10.18
		c0-6.84,3.55-11.09,9.27-11.09c2.74,0,5.23,1.16,6.83,3.18c1.72,2.22,2.07,4.51,2.07,7.29C349.42,17.7,348.54,21.21,346.27,23.63"
		/>
	<path class="st6" d="M376.81,3.94c-0.4,0.06-0.79,0.05-1.15-0.01c-0.11-0.01-0.21-0.03-0.31-0.04l-0.28-0.03v17.39L359.05,3.89
		h-1.68v23.62l0.28-0.03c0.09-0.01,0.18-0.02,0.27-0.04c0.39-0.06,0.79-0.07,1.23-0.01c0.11,0.01,0.22,0.03,0.34,0.04l0.28,0.03
		V9.32l14.49,16.03c0.69,0.76,1.36,1.55,1.75,2.04l0.08,0.1h1.38V3.87L377.2,3.9C377.05,3.91,376.93,3.92,376.81,3.94"/>
	<path class="st6" d="M391.93,3.39h-1.11l-10.77,24.14l0.43-0.04c0.11-0.01,0.21-0.02,0.32-0.04c0.48-0.06,1.01-0.07,1.58-0.01
		c0.15,0.02,0.31,0.03,0.49,0.05l0.2,0.01l0.06-0.19c0.85-2.88,1.95-5.63,3.02-8.29l0.26-0.65h8.24c1.16,2.66,2.33,5.67,3.47,8.95
		l0.06,0.18l0.19-0.01c0.16-0.01,0.33-0.02,0.49-0.04c0.74-0.06,1.54-0.07,2.38-0.01c0.2,0.01,0.42,0.03,0.64,0.04l0.4,0.02
		L391.99,3.54L391.93,3.39z M393.92,16.45h-6.67l3.3-7.76L393.92,16.45z"/>
	<path class="st6" d="M417.93,26.74c-0.03-0.22-0.06-0.42-0.06-0.62c0-0.19,0.03-0.37,0.05-0.57c0.02-0.14,0.04-0.27,0.05-0.42
		l0.03-0.31l-0.45,0.06c-1.04,0.13-2.02,0.25-3.04,0.29c-0.48,0.02-0.96,0.04-1.44,0.06c-1.44,0.06-2.93,0.12-4.41,0.09V3.88
		L408.4,3.9c-0.21,0.01-0.41,0.03-0.6,0.05c-0.65,0.06-1.26,0.05-1.86-0.01c-0.16-0.01-0.32-0.03-0.47-0.04l-0.27-0.02v23.51H418
		l-0.03-0.27C417.96,26.99,417.94,26.87,417.93,26.74"/>
	<path class="st6" d="M169.54,64.27c5.46,0,9.27-3.53,9.27-8.59c0-4.21-3.31-5.51-6.23-6.66c-2.72-1.07-5.28-2.08-5.28-5.15
		c0-2.33,1.83-4.02,4.36-4.02c1.99,0,3.55,1.1,4.29,3.01l0.06,0.16h0.73l0.21-0.73c0.23-0.81,0.46-1.64,0.82-2.4l0.08-0.17
		l-0.14-0.12c-1.52-1.34-3.78-1.82-5.39-1.82c-5.09,0-8.38,2.85-8.38,7.27c0,4.5,3.35,5.81,6.31,6.97c2.65,1.04,5.15,2.02,5.15,5.07
		c0,2.86-2.12,5.11-4.83,5.11c-2.45,0-4.11-1.07-5.71-3.68l-0.07-0.12h-0.73l-0.03,0.22c-0.12,0.96-0.3,2.1-0.67,3.2l-0.05,0.14
		l0.1,0.11C164.65,63.43,167.56,64.27,169.54,64.27"/>
	<path class="st6" d="M181.34,50.92c0,8.23,5.03,13.35,13.12,13.35c2.29,0,5.57-0.37,8.21-2.14l0.1-0.07l0.26-3.01l-0.46,0.39
		c-0.58,0.49-3.66,2.9-7.6,2.9c-5.71,0-9.55-4.52-9.55-11.26c0-8.43,5.28-11.42,9.8-11.42c3.67,0,6.29,2.4,6.79,3.05l0.09,0.12
		l0.56-0.1l0.03-0.17c0.17-0.84,0.39-1.82,0.76-2.77l0.09-0.22l-0.22-0.1c-2.58-1.11-5.34-1.7-7.96-1.7
		C186.98,37.77,181.34,43.06,181.34,50.92"/>
	<path class="st6" d="M226.72,63.81c0.81-0.08,1.61-0.1,2.53-0.02l0.69,0.06V38.3l-0.27,0.02c-0.18,0.01-0.35,0.03-0.52,0.04
		c-0.83,0.07-1.56,0.05-2.3-0.01l-0.62-0.05v10.52c-0.78,0.02-1.56,0.04-2.33,0.07c-1.67,0.05-3.4,0.11-5.1,0.11
		c-1.67,0-3.33-0.05-5.07-0.11c-0.79-0.03-1.58-0.05-2.38-0.07V38.3l-0.27,0.02c-0.19,0.01-0.37,0.03-0.55,0.04
		c-0.81,0.07-1.55,0.05-2.29-0.01l-0.62-0.05v25.55l0.48-0.05c0.82-0.08,1.63-0.1,2.52-0.02l0.73,0.06v-12.6
		c0.56-0.02,1.12-0.04,1.67-0.05c1.98-0.07,3.85-0.13,5.79-0.13c1.94,0,3.83,0.06,5.82,0.13l1.61,0.05v12.61L226.72,63.81z"/>
	<path class="st6" d="M248,64.27c8.48,0,14.17-5.53,14.17-13.76c0-8.8-7.08-12.74-14.1-12.74c-8.1,0-13.77,5.47-13.77,13.31
		C234.31,58.97,239.81,64.27,248,64.27 M238.39,51.51c0-7.42,3.86-12.03,10.06-12.03c2.92,0,5.69,1.28,7.39,3.43
		c1.88,2.42,2.26,4.9,2.26,7.91c0.15,2.43-0.81,6.24-3.28,8.86c-1.79,1.9-4.05,2.86-6.71,2.86
		C242.2,62.55,238.39,58.21,238.39,51.51"/>
	<path class="st6" d="M292.62,50.51c0-8.8-7.08-12.74-14.1-12.74c-8.11,0-13.77,5.47-13.77,13.31c0,7.89,5.51,13.19,13.71,13.19
		C286.93,64.27,292.62,58.74,292.62,50.51 M268.84,51.51c0-7.42,3.85-12.03,10.06-12.03c2.92,0,5.68,1.28,7.4,3.43
		c1.86,2.41,2.24,4.9,2.25,7.91c0.15,2.43-0.8,6.23-3.26,8.85c-1.79,1.9-4.05,2.87-6.72,2.87
		C272.65,62.55,268.84,58.21,268.84,51.51"/>
	<path class="st6" d="M310.72,61.3l0.03-0.31l-0.31,0.04c-1.18,0.15-2.29,0.29-3.46,0.33c-0.57,0.02-1.13,0.04-1.7,0.06
		c-1.52,0.06-3.09,0.12-4.65,0.08V38.3l-0.27,0.02c-0.18,0.01-0.35,0.03-0.52,0.04c-0.83,0.07-1.57,0.05-2.29-0.01l-0.64-0.05v25.42
		h13.84l-0.03-0.28c-0.01-0.13-0.03-0.25-0.05-0.38c-0.03-0.24-0.06-0.47-0.06-0.7c0-0.2,0.03-0.41,0.06-0.63
		C310.69,61.6,310.71,61.45,310.72,61.3"/>
	<path class="st6" d="M333.94,37.77c-8.11,0-13.77,5.47-13.77,13.3c0,7.9,5.5,13.2,13.7,13.2c8.49,0,14.19-5.53,14.19-13.76
		C348.05,41.71,340.96,37.77,333.94,37.77 M340.69,59.7c-1.79,1.9-4.05,2.86-6.72,2.86c-5.91,0-9.74-4.34-9.74-11.05
		c0-7.42,3.85-12.02,10.06-12.02c2.93,0,5.7,1.28,7.42,3.43c1.87,2.42,2.25,4.9,2.25,7.91C344.12,53.26,343.16,57.08,340.69,59.7"/>
	<path class="st6" d="M365.76,40.39c-0.03-0.24-0.06-0.49-0.06-0.73c0-0.21,0.03-0.42,0.05-0.65c0.02-0.13,0.03-0.27,0.05-0.42
		l0.02-0.27h-13.5v25.54l0.51-0.05c0.79-0.08,1.59-0.11,2.49-0.02l0.73,0.07V51.32h5.41c0.62,0,1.24,0.05,1.84,0.09
		c0.47,0.04,0.94,0.07,1.41,0.09l0.28,0.01l-0.02-0.28c-0.02-0.18-0.04-0.34-0.06-0.49c-0.02-0.19-0.05-0.36-0.05-0.51
		c0-0.21,0.03-0.43,0.07-0.64c0.02-0.1,0.03-0.19,0.04-0.28l0.04-0.29l-0.29,0.01c-0.44,0.02-0.88,0.05-1.31,0.09
		c-0.63,0.05-1.29,0.1-1.94,0.1h-5.41v-8.68h2.55l3.65,0.09c1.18,0.06,2.25,0.19,3.25,0.39l0.33,0.07l-0.03-0.34
		C365.79,40.62,365.78,40.51,365.76,40.39"/>
	<path class="st6" d="M177.2,74.19c3.65,0,6.33,2.45,6.79,3.06l0.09,0.12l0.57-0.09l0.03-0.17c0.16-0.83,0.37-1.81,0.76-2.79
		l0.09-0.23l-0.22-0.1c-2.57-1.11-5.33-1.69-7.96-1.69c-8.39,0-14.02,5.29-14.02,13.16c0,8.23,5.02,13.34,13.11,13.34
		c2.28,0,5.56-0.37,8.23-2.14l0.1-0.07l0.24-3.02l-0.46,0.39c-0.57,0.49-3.61,2.9-7.6,2.9c-5.71,0-9.55-4.53-9.55-11.28
		C167.4,77.18,172.68,74.19,177.2,74.19"/>
	<path class="st6" d="M207.7,97.03L205.97,95l-7.29-9.23c4.58-0.92,7.29-3.56,7.29-7.12c0-3.9-2.74-5.8-8.38-5.8h-7.99v25.54
		l0.47-0.05c0.45-0.05,0.92-0.1,1.38-0.1c0.36,0,0.72,0.04,1.13,0.08l0.74,0.07V86.16h1.01l2.85,3.32l4.32,5.59
		c0.85,1.14,1.58,2.15,2.28,3.17l0.08,0.12l0.41-0.03c0.6-0.05,1.21-0.1,1.81-0.1c0.51,0,1.01,0.04,1.54,0.08l1.11,0.08L207.7,97.03
		z M193.33,74.69c1.5-0.07,3.82-0.16,5.08,0.04c2.52,0.41,3.81,1.87,3.81,4.36c0,2.54-1.67,4.41-4.47,5
		c-1.59,0.29-3.57,0.24-4.41,0.19L193.33,74.69L193.33,74.69z"/>
	<path class="st6" d="M225.6,97.97c-0.01-0.14-0.03-0.27-0.05-0.41c-0.03-0.23-0.05-0.44-0.05-0.66c0-0.2,0.02-0.39,0.05-0.59
		c0.02-0.15,0.04-0.31,0.05-0.48l0.02-0.31l-0.31,0.05c-1.22,0.18-2.28,0.28-3.33,0.31l-1.24,0.05c-1.67,0.08-3.4,0.15-5.13,0.11
		V85.85h5.43c0.61,0,1.23,0.05,1.83,0.09c0.47,0.04,0.94,0.07,1.42,0.09l0.28,0.01l-0.02-0.28c-0.01-0.18-0.03-0.34-0.05-0.49
		c-0.02-0.19-0.05-0.35-0.05-0.51c0-0.21,0.03-0.43,0.06-0.63c0.01-0.1,0.03-0.2,0.04-0.29l0.03-0.29l-0.29,0.01
		c-0.44,0.02-0.88,0.05-1.31,0.09c-0.63,0.05-1.28,0.1-1.93,0.1h-5.43v-8.68h2.58l3.64,0.08c1.19,0.06,2.25,0.19,3.25,0.39
		l0.34,0.07l-0.04-0.34c-0.01-0.11-0.03-0.23-0.04-0.35c-0.03-0.24-0.07-0.49-0.07-0.73c0-0.21,0.03-0.42,0.06-0.65
		c0.02-0.13,0.04-0.27,0.05-0.42l0.03-0.28H211.9v25.39h13.71L225.6,97.97z"/>
	<path class="st6" d="M246.91,98.19l0.06,0.18l0.52-0.04c0.9-0.08,1.89-0.11,2.95-0.01l0.94,0.07l-11.14-25.93l-0.06-0.15h-1.17
		l-11.65,26.11l0.64-0.09c0.33-0.04,0.67-0.09,1.05-0.09c0.3,0,0.58,0.03,0.9,0.07c0.14,0.02,0.28,0.03,0.43,0.05l0.21,0.02
		l0.06-0.2c0.91-3.08,2.08-6.01,3.21-8.85l0.34-0.84h8.95C244.73,92.12,246.07,95.76,246.91,98.19 M242.38,86.45h-7.28l3.6-8.48
		L242.38,86.45z"/>
	<path class="st6" d="M268.74,75.58l-0.03-0.31c-0.01-0.14-0.03-0.28-0.05-0.42c-0.03-0.22-0.06-0.45-0.06-0.66
		c0-0.19,0.03-0.39,0.06-0.59c0.02-0.15,0.04-0.31,0.06-0.48l0.02-0.27h-19.4l0.02,0.27c0.01,0.15,0.03,0.3,0.05,0.44
		c0.03,0.21,0.05,0.42,0.05,0.63c0,0.23-0.03,0.47-0.06,0.7c-0.02,0.13-0.03,0.25-0.04,0.37l-0.03,0.3l0.3-0.03
		c1.82-0.19,4.08-0.43,7.73-0.44v23.37l0.68-0.07c0.7-0.08,1.41-0.1,2.19-0.01c0.18,0.02,0.37,0.04,0.57,0.06l0.27,0.02V75.1
		c2.54,0.01,4.95,0.15,7.37,0.44L268.74,75.58z"/>
	<path class="st6" d="M273.1,72.89l-0.68-0.05v25.55l0.51-0.05c0.81-0.09,1.62-0.11,2.51-0.02l0.7,0.07V72.84l-0.26,0.02
		c-0.2,0.01-0.38,0.03-0.57,0.04C274.53,72.95,273.82,72.94,273.1,72.89"/>
	<path class="st6" d="M302.96,72.89c-0.71,0.07-1.28,0.05-1.85-0.01l-0.53-0.05l-0.33,0.76l-2.2,6.1l-3.85,9.92
		c-0.39,0.99-0.85,1.95-1.34,2.96c-0.21,0.43-0.42,0.86-0.62,1.29l-4.42-10.92l-2.46-6.4l-0.23-0.63c-0.36-0.98-0.73-1.99-1.13-2.93
		l-0.07-0.16l-0.17,0.01c-0.23,0.01-0.44,0.03-0.65,0.04c-0.82,0.06-1.61,0.05-2.43-0.01l-0.88-0.06l0.2,0.39
		c0.7,1.34,2.14,4.7,3.81,8.59c2.21,5.14,4.95,11.55,7.3,16.41l0.08,0.18l0.32-0.07c0.36-0.08,0.66-0.1,1.1-0.01l0.4,0.08l0.07-0.21
		c1.33-4.11,9.47-22.92,10.54-24.97l0.21-0.4l-0.45,0.04C303.25,72.86,303.11,72.88,302.96,72.89"/>
	<path class="st6" d="M320.44,95.83l0.02-0.32l-0.31,0.05c-1.1,0.18-2.18,0.28-3.33,0.31l-1.23,0.05c-1.67,0.07-3.4,0.15-5.13,0.11
		V85.86h5.42c0.65,0,1.3,0.05,1.93,0.09c0.44,0.03,0.88,0.07,1.33,0.08l0.29,0.01l-0.03-0.29c-0.02-0.15-0.04-0.28-0.05-0.41
		c-0.03-0.23-0.06-0.42-0.06-0.59c0-0.24,0.04-0.49,0.08-0.74l0.07-0.49l-0.3,0.01c-0.44,0.02-0.88,0.05-1.31,0.09
		c-0.64,0.05-1.29,0.1-1.95,0.1h-5.42v-8.68h2.56l3.66,0.08c1.19,0.07,2.25,0.19,3.25,0.39l0.34,0.07l-0.04-0.34
		c-0.01-0.11-0.03-0.23-0.04-0.35c-0.03-0.24-0.07-0.49-0.07-0.73c0-0.21,0.03-0.42,0.06-0.65c0.02-0.13,0.04-0.27,0.05-0.42
		l0.03-0.27h-13.51v25.39h13.71l-0.02-0.27c-0.01-0.13-0.03-0.26-0.05-0.39c-0.03-0.23-0.06-0.45-0.06-0.68
		c0-0.21,0.03-0.4,0.05-0.61C320.41,96.14,320.43,95.99,320.44,95.83"/>
	<path class="st6" d="M172.58,116.72c-2.72-1.06-5.28-2.07-5.28-5.14c0-2.34,1.84-4.05,4.37-4.05c1.98,0,3.54,1.1,4.31,3.02
		l0.06,0.16h0.71l0.05-0.18c0.07-0.22,0.13-0.44,0.19-0.65c0.23-0.81,0.45-1.57,0.79-2.3l0.08-0.17l-0.14-0.12
		c-1.49-1.34-3.76-1.82-5.38-1.82c-5.09,0-8.38,2.85-8.38,7.27c0,4.5,3.35,5.81,6.3,6.97c2.65,1.04,5.14,2.02,5.14,5.08
		c0,2.86-2.12,5.1-4.83,5.1c-2.47,0-4.12-1.07-5.69-3.69l-0.07-0.12h-0.73l-0.03,0.21c-0.17,1.2-0.36,2.21-0.69,3.22l-0.05,0.14
		l0.1,0.11c1.26,1.36,4.17,2.2,6.14,2.2c5.46,0,9.27-3.54,9.27-8.61C178.81,119.17,175.5,117.87,172.58,116.72"/>
	<path class="st6" d="M195.39,105.48c-8.4,0-14.04,5.29-14.04,13.15c0,8.23,5.03,13.35,13.13,13.35c3.22,0,6.14-0.76,8.21-2.15
		l0.1-0.07l0.25-3.01l-0.46,0.39c-0.57,0.48-3.63,2.9-7.58,2.9c-5.72,0-9.56-4.53-9.56-11.26c0-8.43,5.28-11.42,9.8-11.42
		c3.68,0,6.29,2.41,6.79,3.06l0.09,0.12l0.57-0.09l0.03-0.17c0.21-1.12,0.44-1.98,0.75-2.78l0.09-0.23l-0.22-0.1
		C200.75,106.06,198.01,105.48,195.39,105.48"/>
	<path class="st6" d="M210.7,106.07c-0.81,0.06-1.54,0.05-2.27-0.01l-0.63-0.05v25.55l0.47-0.05c0.81-0.09,1.62-0.11,2.53-0.02
		l0.72,0.07v-25.54l-0.27,0.02C211.07,106.04,210.88,106.05,210.7,106.07"/>
	<path class="st6" d="M231.46,129.01l0.04-0.33l-0.33,0.05c-1.09,0.17-2.18,0.27-3.33,0.31l-1.26,0.05
		c-1.67,0.07-3.39,0.15-5.11,0.11v-10.17h5.43c0.64,0,1.29,0.05,1.92,0.09c0.44,0.03,0.87,0.06,1.31,0.08l0.28,0.01l-0.02-0.28
		c-0.02-0.16-0.03-0.31-0.05-0.45c-0.02-0.2-0.05-0.39-0.05-0.55c0-0.22,0.03-0.46,0.07-0.68l0.07-0.54l-0.3,0.01
		c-0.44,0.02-0.87,0.05-1.31,0.09c-0.63,0.05-1.28,0.1-1.92,0.1h-5.43v-8.68h2.55l3.64,0.08c1.2,0.07,2.27,0.19,3.26,0.39l0.33,0.07
		l-0.03-0.33c-0.01-0.13-0.03-0.26-0.04-0.39c-0.03-0.23-0.06-0.47-0.06-0.69c0-0.21,0.03-0.41,0.05-0.62
		c0.02-0.14,0.04-0.29,0.05-0.45l0.02-0.27h-13.49v25.38h13.75l-0.08-0.51c-0.05-0.28-0.09-0.55-0.09-0.83
		c0-0.24,0.04-0.47,0.08-0.73C231.42,129.24,231.44,129.13,231.46,129.01"/>
	<path class="st6" d="M256.11,106.06l-0.53-0.06v18.86l-17.3-18.75l-0.07-0.08h-1.78v25.54l0.45-0.07c0.46-0.08,0.92-0.11,1.52-0.01
		l0.57,0.08v-19.72l15.72,17.37c0.86,0.96,1.53,1.75,1.9,2.22l0.08,0.1h1.46V106l-0.59,0.07
		C257.03,106.13,256.56,106.12,256.11,106.06"/>
	<path class="st6" d="M276.63,105.48c-8.39,0-14.03,5.29-14.03,13.15c0,8.23,5.02,13.35,13.11,13.35c3.22,0,6.14-0.76,8.22-2.15
		l0.1-0.07l0.24-3.01l-0.46,0.39c-0.57,0.48-3.63,2.9-7.58,2.9c-5.71,0-9.56-4.53-9.56-11.26c0-8.43,5.29-11.42,9.81-11.42
		c3.65,0,6.3,2.45,6.76,3.06l0.09,0.12l0.6-0.09l0.03-0.18c0.17-0.89,0.37-1.84,0.76-2.78l0.09-0.23l-0.23-0.1
		C282,106.06,279.24,105.48,276.63,105.48"/>
	<path class="st6" d="M302.54,129.01l0.04-0.33l-0.32,0.05c-1.09,0.17-2.18,0.27-3.34,0.31l-1.24,0.05
		c-1.67,0.07-3.4,0.15-5.12,0.11v-10.17h5.42c0.64,0,1.29,0.05,1.92,0.09c0.44,0.03,0.88,0.07,1.32,0.08l0.28,0.01l-0.02-0.28
		c-0.01-0.19-0.04-0.37-0.06-0.53c-0.02-0.17-0.05-0.33-0.05-0.48c0-0.18,0.03-0.38,0.06-0.58c0.02-0.12,0.04-0.24,0.05-0.35
		l0.03-0.29l-0.29,0.01c-0.44,0.02-0.88,0.05-1.32,0.09c-0.63,0.05-1.28,0.1-1.92,0.1h-5.42v-8.68h2.56l3.65,0.08
		c1.22,0.07,2.28,0.2,3.25,0.39l0.33,0.07l-0.03-0.33c-0.01-0.14-0.03-0.27-0.05-0.41c-0.03-0.22-0.06-0.45-0.06-0.67
		c0-0.19,0.03-0.39,0.06-0.6c0.02-0.15,0.04-0.31,0.06-0.47l0.02-0.27h-13.49v25.38h13.73l-0.07-0.55
		c-0.04-0.27-0.07-0.52-0.07-0.78c0-0.23,0.03-0.45,0.06-0.7C302.51,129.25,302.53,129.13,302.54,129.01"/>
</g>
</svg>
