<svg id="eLqAQYylvWM1" xmlns="http://www.w3.org/2000/svg" xmlns:xlink="http://www.w3.org/1999/xlink" viewBox="0 0 87 75" shape-rendering="geometricPrecision" text-rendering="geometricPrecision" project-id="fb8912c2fec34c70923334d4e01ecff9" export-id="7cfeadcfeea244ef9e828155f994d86a" cached="false">
<style><![CDATA[
#eLqAQYylvWM4_to {animation: eLqAQYylvWM4_to__to 3000ms linear infinite normal forwards}@keyframes eLqAQYylvWM4_to__to { 0% {transform: translate(27.270853px,37.834499px)} 33.333333% {transform: translate(27.270853px,37.834499px)} 50% {transform: translate(27.270853px,34.834499px)} 100% {transform: translate(27.270853px,34.834499px)}} #eLqAQYylvWM5_to {animation: eLqAQYylvWM5_to__to 3000ms linear infinite normal forwards}@keyframes eLqAQYylvWM5_to__to { 0% {transform: translate(60.51095px,37.834499px)} 33.333333% {transform: translate(60.51095px,37.834499px)} 50% {transform: translate(60.51095px,34.834499px)} 100% {transform: translate(60.51095px,34.834499px)}} #eLqAQYylvWM6 {animation-name: eLqAQYylvWM6_s_do, eLqAQYylvWM6_s_da;animation-duration: 3000ms;animation-fill-mode: forwards;animation-timing-function: linear;animation-direction: normal;animation-iteration-count: infinite;}@keyframes eLqAQYylvWM6_s_do { 0% {stroke-dashoffset: 223.59} 33.333333% {stroke-dashoffset: 447.18} 34% {stroke-dashoffset: 447.18} 100% {stroke-dashoffset: 447.18}}@keyframes eLqAQYylvWM6_s_da { 0% {stroke-dasharray: 223.59} 33.333333% {stroke-dasharray: 223.59} 34% {stroke-dasharray: 223.59} 100% {stroke-dasharray: 223.59}}
]]></style>
<g clip-path="url(#eLqAQYylvWM7)"><g><g id="eLqAQYylvWM4_to" transform="translate(27.270853,37.834499)"><path d="M43.8913,67.8858c0,0-18.7007-16-33.2409-6.2571v-56.72862c0,0,16.4713-10.25714,33.2409,6.44282v56.5429Z" transform="translate(-27.270853,-34.834499)" fill="none" stroke="#42badc" stroke-width="2.5" stroke-linecap="round" stroke-linejoin="round"/></g><g id="eLqAQYylvWM5_to" transform="translate(60.51095,37.834499)"><path d="M43.8905,67.8858c0,0,18.7006-16,33.2409-6.2571v-56.72862c0,0-16.4714-10.25714-33.2409,6.44282v56.5429Z" transform="translate(-60.51095,-34.834499)" fill="none" stroke="#42badc" stroke-width="2.5" stroke-linecap="round" stroke-linejoin="round"/></g><path id="eLqAQYylvWM6" d="M77.075,11.5144h6.9436c.6673,0,1.2069.6286,1.2069,1.4143v58.8714c0,.7857-.5396,1.4143-1.2069,1.4143h-81.03626c-.66737,0-1.20695-.6286-1.20695-1.4143v-60.7857c0-.7857.53958-1.4143,1.20695-1.4143h7.69606" fill="none" stroke="#42badc" stroke-width="2.5" stroke-linecap="round" stroke-linejoin="round" stroke-dashoffset="223.59" stroke-dasharray="223.59"/></g><clipPath id="eLqAQYylvWM7"><rect width="87" height="75" rx="0" ry="0" fill="#fff"/></clipPath></g></svg>
