<svg id="emUhWDCagG61" xmlns="http://www.w3.org/2000/svg" xmlns:xlink="http://www.w3.org/1999/xlink" viewBox="0 0 55 51" shape-rendering="geometricPrecision" text-rendering="geometricPrecision" project-id="859008e1c6634a5a919d1632635ecb65" export-id="3dc91b0cae24440bbb1440ca4a12a525" cached="false">
<style><![CDATA[
#emUhWDCagG66 {animation: emUhWDCagG66_s_do 3000ms linear infinite normal forwards}@keyframes emUhWDCagG66_s_do { 0% {stroke-dashoffset: 38.48} 33.333333% {stroke-dashoffset: 0} 100% {stroke-dashoffset: 0}} #emUhWDCagG67_tr {animation: emUhWDCagG67_tr__tr 3000ms linear infinite normal forwards}@keyframes emUhWDCagG67_tr__tr { 0% {transform: translate(41.822849px,47.275999px) rotate(0deg)} 23.333333% {transform: translate(41.822849px,47.275999px) rotate(0deg)} 63.333333% {transform: translate(41.822849px,47.275999px) rotate(1080deg)} 100% {transform: translate(41.822849px,47.275999px) rotate(1080deg)}} #emUhWDCagG67 {animation: emUhWDCagG67_s_do 3000ms linear infinite normal forwards}@keyframes emUhWDCagG67_s_do { 0% {stroke-dashoffset: 15.97} 30% {stroke-dashoffset: 15.97} 43.333333% {stroke-dashoffset: 0} 100% {stroke-dashoffset: 0}}
]]></style>
<g clip-path="url(#emUhWDCagG68)"><g><path d="M28.5094,28.0951L53.2561,16.1903c.7278-.3524.7278-1.3714,0-1.7333L28.5094,2.28555c-.2681-.13334-.5746-.13334-.8427,0L1.75165,14.3141c-.74699.3429-.74699,1.4,0,1.7429L27.6763,28.0951c.2681.1238.565.1238.8331,0Z" transform="translate(0-1.186748)" fill="none" stroke="#42badc" stroke-width="2.5" stroke-linecap="round" stroke-linejoin="round"/><path d="M46.1216,19.6284v15.2476c-4.6447,4.781-11.157,7.7619-18.3684,7.7619s-13.1778-2.7333-17.77468-7.1714v-15.5905" fill="none" stroke="#42badc" stroke-width="2.5" stroke-linecap="round" stroke-linejoin="round"/><path id="emUhWDCagG66" d="M28.041,14.7524l13.7811,6.9429v23.0476" fill="none" stroke="#42badc" stroke-width="2.5" stroke-linecap="round" stroke-linejoin="round" stroke-dashoffset="38.48" stroke-dasharray="38.48"/><g id="emUhWDCagG67_tr" transform="translate(41.822849,47.275999) rotate(0)"><path id="emUhWDCagG67" d="M41.8228,49.8093c1.407,0,2.5475-1.1342,2.5475-2.5333s-1.1405-2.5333-2.5475-2.5333-2.5474,1.1342-2.5474,2.5333s1.1405,2.5333,2.5474,2.5333Z" transform="translate(-41.822849,-47.275999)" fill="none" stroke="#42badc" stroke-width="2.5" stroke-linecap="round" stroke-linejoin="round" stroke-dashoffset="15.97" stroke-dasharray="15.97"/></g></g><clipPath id="emUhWDCagG68"><rect width="55" height="51" rx="0" ry="0" fill="#fff"/></clipPath></g></svg>
