<svg id="e7gvOTyXhHd1" xmlns="http://www.w3.org/2000/svg" xmlns:xlink="http://www.w3.org/1999/xlink" viewBox="0 0 60 50" shape-rendering="geometricPrecision" text-rendering="geometricPrecision" project-id="689a5100933646fdbed8a33638f1695e" export-id="69c00b8855dc498d94206c8aaf0b8ed9" cached="false">
<style><![CDATA[
#e7gvOTyXhHd5 {animation: e7gvOTyXhHd5_s_do 3000ms linear infinite normal forwards}@keyframes e7gvOTyXhHd5_s_do { 0% {stroke-dashoffset: -33.64} 20% {stroke-dashoffset: -33.64} 40% {stroke-dashoffset: 0} 100% {stroke-dashoffset: 0}} #e7gvOTyXhHd7 {animation: e7gvOTyXhHd7_s_do 3000ms linear infinite normal forwards}@keyframes e7gvOTyXhHd7_s_do { 0% {stroke-dashoffset: 31.57} 20% {stroke-dashoffset: 0} 100% {stroke-dashoffset: 0}}
]]></style>
<g clip-path="url(#e7gvOTyXhHd8)"><g><path d="M22.3284,22.5619c5.9232,0,10.7249-4.7842,10.7249-10.6858s-4.8017-10.68567-10.7249-10.68567-10.7249,4.78416-10.7249,10.68567s4.8017,10.6858,10.7249,10.6858Z" transform="translate(0 1)" fill="none" stroke="#42badc" stroke-width="2.5" stroke-linecap="round" stroke-linejoin="round"/><path id="e7gvOTyXhHd5" d="M38.3594,1.19043c5.9264,0,10.7248,4.78095,10.7248,10.68567s-4.7984,10.6858-10.7248,10.6858" transform="translate(.055449 0.91406)" fill="none" stroke="#42badc" stroke-width="2.5" stroke-linecap="round" stroke-linejoin="round" stroke-dashoffset="-33.64" stroke-dasharray="33.64"/><path d="M1.19531,48.8096h42.61269v-6.7714c0-5.2667-4.2823-9.5333-9.5682-9.5333h-23.4762c-5.28599,0-9.56829,4.2666-9.56829,9.5333v6.7714Z" fill="none" stroke="#42badc" stroke-width="2.5" stroke-linecap="round" stroke-linejoin="round"/><path id="e7gvOTyXhHd7" d="M49.0935,48.8096h9.7117v-6.6285c0-5.3429-4.3493-9.6762-9.7117-9.6762" transform="translate(.046149 0)" fill="none" stroke="#42badc" stroke-width="2.5" stroke-linecap="round" stroke-linejoin="round" stroke-dashoffset="31.57" stroke-dasharray="31.57"/></g><clipPath id="e7gvOTyXhHd8"><rect width="60" height="50" rx="0" ry="0" fill="#fff"/></clipPath></g></svg>
