<svg id="eMwFhHfE7xg1" xmlns="http://www.w3.org/2000/svg" xmlns:xlink="http://www.w3.org/1999/xlink" viewBox="0 0 50 50" shape-rendering="geometricPrecision" text-rendering="geometricPrecision" project-id="1e61cffc3e514fb9b96071cb86468074" export-id="8f323d3a7b3043e9a464e3e407d179da" cached="false">
<style><![CDATA[
#eMwFhHfE7xg4_tr {animation: eMwFhHfE7xg4_tr__tr 3000ms linear infinite normal forwards}@keyframes eMwFhHfE7xg4_tr__tr { 0% {transform: translate(24.9948px,25.004998px) rotate(0deg)} 76.666667% {transform: translate(24.9948px,25.004998px) rotate(1440deg)} 100% {transform: translate(24.9948px,25.004998px) rotate(1440deg)}} #eMwFhHfE7xg4 {animation: eMwFhHfE7xg4_s_do 3000ms linear infinite normal forwards}@keyframes eMwFhHfE7xg4_s_do { 0% {stroke-dashoffset: 79.46} 23.333333% {stroke-dashoffset: 0} 100% {stroke-dashoffset: 0}} #eMwFhHfE7xg5 {animation: eMwFhHfE7xg5_s_do 3000ms linear infinite normal forwards}@keyframes eMwFhHfE7xg5_s_do { 0% {stroke-dashoffset: 17.07} 13.333333% {stroke-dashoffset: 17.07} 33.333333% {stroke-dashoffset: 0} 100% {stroke-dashoffset: 0}}
]]></style>
<g clip-path="url(#eMwFhHfE7xg7)"><g transform="translate(-.004939 0.004804)"><g id="eMwFhHfE7xg4_tr" transform="translate(24.9948,25.004998) rotate(0)"><path id="eMwFhHfE7xg4" d="M24.9997,12.3579c-6.9733,0-12.652,5.6689-12.652,12.6422s5.6787,12.652,12.652,12.652s12.6422-5.6787,12.6422-12.652-5.6689-12.6422-12.6422-12.6422Z" transform="translate(-24.9948,-25.004998)" fill="none" stroke="#42badc" stroke-width="2.5" stroke-linecap="round" stroke-linejoin="round" stroke-dashoffset="79.46" stroke-dasharray="79.46"/></g><path id="eMwFhHfE7xg5" d="M18.8301,24.902l4.0506,3.9722l8.111-7.9933" fill="none" stroke="#42badc" stroke-width="2.5" stroke-linecap="round" stroke-linejoin="round" stroke-dashoffset="17.07" stroke-dasharray="17.07"/><path d="M27.3245,2.26569l4.3743,4.91369c.2942.33346.7257.51,1.1671.48058l6.5712-.3825c1.8537-.10789,3.3935,1.42212,3.2856,3.28564l-.3825,6.5712c-.0294.4413.1569.8729.4806,1.1671l4.9137,4.3743c1.3828,1.2357,1.3828,3.4032,0,4.639L42.8208,31.689c-.3335.2942-.51.7258-.4806,1.1671l.3825,6.5712c.1079,1.8537-1.4221,3.3935-3.2856,3.2856l-6.5712-.3825c-.4414-.0294-.8729.1569-1.1671.4806l-4.3743,4.9137c-1.2358,1.3829-3.4033,1.3829-4.6391,0L18.3112,42.811c-.2943-.3335-.7258-.51-1.1672-.4806l-6.5712.3825c-1.85364.1079-3.39346-1.4221-3.28558-3.2856l.38251-6.5712c.02942-.4413-.15693-.8729-.48059-1.1671L2.27545,27.3147c-1.382893-1.2358-1.382893-3.4033,0-4.639l4.91369-4.3743c.33347-.2942.51001-.7258.48059-1.1671l-.38251-6.5712C7.17934,8.70939,8.70935,7.16957,10.5728,7.27746l6.5712.3825c.4414.02942.8729-.15692,1.1672-.48058l4.3742-4.91369c1.2358-1.382898,3.4033-1.382898,4.6391,0Z" transform="translate(-.000001 0)" fill="none" stroke="#42badc" stroke-width="2.5" stroke-linecap="round" stroke-linejoin="round"/></g><clipPath id="eMwFhHfE7xg7"><rect width="50" height="50" rx="0" ry="0" fill="#fff"/></clipPath></g></svg>
