<svg id="eDOVu1ib53L1" xmlns="http://www.w3.org/2000/svg" xmlns:xlink="http://www.w3.org/1999/xlink" viewBox="0 0 51 50" shape-rendering="geometricPrecision" text-rendering="geometricPrecision" project-id="5f9f9b5db1644584bb02895434749937" export-id="3fed8c65507b405e8d0d8b77379848b5" cached="false">
<style><![CDATA[
#eDOVu1ib53L8 {animation: eDOVu1ib53L8_s_do 3000ms linear infinite normal forwards}@keyframes eDOVu1ib53L8_s_do { 0% {stroke-dashoffset: 14.44} 16.666667% {stroke-dashoffset: 14.44} 36.666667% {stroke-dashoffset: 0} 100% {stroke-dashoffset: 0}} #eDOVu1ib53L11 {animation: eDOVu1ib53L11_s_do 3000ms linear infinite normal forwards}@keyframes eDOVu1ib53L11_s_do { 0% {stroke-dashoffset: 43.41} 33.333333% {stroke-dashoffset: 0} 100% {stroke-dashoffset: 0}}
]]></style>
<g transform="translate(.004945 0)" clip-path="url(#eDOVu1ib53L9)"><g transform="translate(0-.047757)"><path d="M15.0931,1.19043h20.8132c1.8173,0,3.2903,1.46667,3.2903,3.27619v44.34288h-27.3939v-44.34288c0-1.80952,1.473-3.27619,3.2904-3.27619Z" transform="translate(.00035 0.02868)" fill="none" stroke="#42badc" stroke-width="2.5" stroke-linecap="round" stroke-linejoin="round"/><path d="M11.8028,48.8095h-10.60749v-30.6096c0-.7619.42086-1.4666,1.09997-1.8285l9.50752-5.0858" transform="translate(0 0.047551)" fill="none" stroke="#42badc" stroke-width="2.5" stroke-linecap="round" stroke-linejoin="round"/><path d="M39.1874,48.8095h10.6074v-30.6096c0-.7619-.4208-1.4666-1.0999-1.8285l-9.5075-5.0858" transform="translate(0 0.047551)" fill="none" stroke="#42badc" stroke-width="2.5" stroke-linecap="round" stroke-linejoin="round"/><path id="eDOVu1ib53L8" d="M18.2793,17.7334h14.4334" transform="translate(0 0.7334)" fill="none" stroke="#42badc" stroke-width="2.5" stroke-linecap="round" stroke-linejoin="round" stroke-dashoffset="14.44" stroke-dasharray="14.44"/></g><clipPath id="eDOVu1ib53L9"><rect width="51" height="50" rx="0" ry="0" fill="#fff"/></clipPath></g><path id="eDOVu1ib53L11" d="M15.09345,48.8093v-12.8952h17.61925v12.8952" transform="matrix(1 0 0 0.992594 1.60187 0.342605)" fill="none" stroke="#42badc" stroke-width="2.5" stroke-linecap="round" stroke-linejoin="round" stroke-dashoffset="43.41" stroke-dasharray="43.41"/></svg>
