<svg width="24" height="24" viewBox="0 0 24 24" fill="none" xmlns="http://www.w3.org/2000/svg">
<path d="M19.3763 2H6.60683C6.04641 0.822 4.85998 0 3.4778 0C1.56004 0 0 1.57 0 3.5V19.5C0 21.981 2.00619 24 4.47146 24H19.3763C21.8416 24 23.8478 21.981 23.8478 19.5V6.5C23.8478 4.019 21.8416 2 19.3763 2ZM22.8034 6H16.3953C15.5736 6 14.9049 5.327 14.9049 4.5V3H19.3763C21.1232 3 22.56 4.308 22.8034 6ZM0.993658 3.5C0.993658 2.121 2.10755 1 3.4778 1C4.84805 1 5.96195 2.121 5.96195 3.5V16.5C5.96195 17.879 4.84805 19 3.4778 19C2.10755 19 0.993658 17.879 0.993658 16.5V3.5ZM19.3763 23H4.47146C2.5537 23 0.993658 21.43 0.993658 19.5V18.942C1.62562 19.593 2.50402 20 3.4778 20C5.39556 20 6.9556 18.43 6.9556 16.5V3.5C6.9556 3.329 6.92877 3.165 6.90493 3H13.9112V4.5C13.9112 5.879 15.0251 7 16.3953 7H22.8541V19.5C22.8541 21.43 21.2941 23 19.3763 23ZM15.8985 11C15.8985 11.552 15.4534 12 14.9049 12C14.3564 12 13.9112 11.552 13.9112 11C13.9112 10.448 14.3564 10 14.9049 10C15.4534 10 15.8985 10.448 15.8985 11ZM11.9239 11C11.9239 11.552 11.4787 12 10.9302 12C10.3817 12 9.93657 11.552 9.93657 11C9.93657 10.448 10.3817 10 10.9302 10C11.4787 10 11.9239 10.448 11.9239 11ZM19.8731 11C19.8731 11.552 19.428 12 18.8795 12C18.331 12 17.8858 11.552 17.8858 11C17.8858 10.448 18.331 10 18.8795 10C19.428 10 19.8731 10.448 19.8731 11ZM15.8985 15C15.8985 15.552 15.4534 16 14.9049 16C14.3564 16 13.9112 15.552 13.9112 15C13.9112 14.448 14.3564 14 14.9049 14C15.4534 14 15.8985 14.448 15.8985 15ZM11.9239 15C11.9239 15.552 11.4787 16 10.9302 16C10.3817 16 9.93657 15.552 9.93657 15C9.93657 14.448 10.3817 14 10.9302 14C11.4787 14 11.9239 14.448 11.9239 15ZM19.8731 15C19.8731 15.552 19.428 16 18.8795 16C18.331 16 17.8858 15.552 17.8858 15C17.8858 14.448 18.331 14 18.8795 14C19.428 14 19.8731 14.448 19.8731 15ZM15.8985 19C15.8985 19.552 15.4534 20 14.9049 20C14.3564 20 13.9112 19.552 13.9112 19C13.9112 18.448 14.3564 18 14.9049 18C15.4534 18 15.8985 18.448 15.8985 19ZM11.9239 19C11.9239 19.552 11.4787 20 10.9302 20C10.3817 20 9.93657 19.552 9.93657 19C9.93657 18.448 10.3817 18 10.9302 18C11.4787 18 11.9239 18.448 11.9239 19ZM19.8731 19C19.8731 19.552 19.428 20 18.8795 20C18.331 20 17.8858 19.552 17.8858 19C17.8858 18.448 18.331 18 18.8795 18C19.428 18 19.8731 18.448 19.8731 19Z" fill="black"/>
</svg>
