<svg width="100" height="50" viewBox="0 0 100 50" fill="none" xmlns="http://www.w3.org/2000/svg">
<g clip-path="url(#clip0_1693_2521)">
<path d="M0 0H25L26.0312 1.03125H73.9688L75 0H100V50H75L73.9688 48.9688H26.0312L25 50H0V0Z" fill="#FF0000"/>
<path d="M25 0H75V50H25V0ZM50.9375 46.1458L50.4688 37.1562C50.4619 37.0084 50.4884 36.8609 50.5461 36.7247C50.6038 36.5884 50.6914 36.4668 50.8023 36.3689C50.9133 36.2709 51.0448 36.1991 51.1871 36.1587C51.3295 36.1183 51.4791 36.1103 51.625 36.1354L60.5729 37.7083L59.3646 34.375C59.3156 34.2424 59.3093 34.0977 59.3466 33.9613C59.384 33.825 59.4631 33.7037 59.5729 33.6146L69.375 25.6771L67.1667 24.6458C67.0175 24.5754 66.8992 24.4529 66.834 24.3013C66.7688 24.1498 66.7612 23.9797 66.8125 23.8229L68.75 17.8646L63.1042 19.0625C62.9512 19.0944 62.7919 19.0724 62.6533 19.0003C62.5147 18.9281 62.4054 18.8103 62.3438 18.6667L61.25 16.0938L56.8438 20.8229C56.743 20.9292 56.6105 20.9999 56.4662 21.0245C56.3218 21.0491 56.1734 21.0263 56.0431 20.9594C55.9128 20.8925 55.8078 20.7852 55.7437 20.6535C55.6795 20.5219 55.6598 20.373 55.6875 20.2292L57.8125 9.27083L54.4062 11.2396C54.3263 11.2865 54.2375 11.3164 54.1455 11.3276C54.0535 11.3388 53.9602 11.3309 53.8713 11.3045C53.7824 11.2782 53.6999 11.2338 53.6289 11.1743C53.5579 11.1147 53.4998 11.0412 53.4583 10.9583L50 4.16667L46.5417 10.9583C46.5002 11.0412 46.4421 11.1147 46.3711 11.1743C46.3001 11.2338 46.2176 11.2782 46.1287 11.3045C46.0398 11.3309 45.9465 11.3388 45.8545 11.3276C45.7625 11.3164 45.6737 11.2865 45.5938 11.2396L42.1875 9.27083L44.3125 20.2292C44.3402 20.373 44.3205 20.5219 44.2563 20.6535C44.1922 20.7852 44.0872 20.8925 43.9569 20.9594C43.8266 21.0263 43.6782 21.0491 43.5338 21.0245C43.3895 20.9999 43.257 20.9292 43.1562 20.8229L38.75 16.0938L37.6562 18.6667C37.5946 18.8103 37.4853 18.9281 37.3467 19.0003C37.2081 19.0724 37.0488 19.0944 36.8958 19.0625L31.25 17.8646L33.1875 23.8229C33.2388 23.9797 33.2312 24.1498 33.166 24.3013C33.1008 24.4529 32.9825 24.5754 32.8333 24.6458L30.625 25.6771L40.4271 33.6146C40.5369 33.7037 40.616 33.825 40.6534 33.9613C40.6907 34.0977 40.6844 34.2424 40.6354 34.375L39.4271 37.7083L48.375 36.1354C48.5209 36.1103 48.6705 36.1183 48.8129 36.1587C48.9552 36.1991 49.0867 36.2709 49.1977 36.3689C49.3086 36.4668 49.3962 36.5884 49.4539 36.7247C49.5116 36.8609 49.5381 37.0084 49.5312 37.1562L49.0625 46.1458H50.9375Z" fill="white"/>
</g>
<defs>
<clipPath id="clip0_1693_2521">
<rect width="100" height="50" fill="white"/>
</clipPath>
</defs>
</svg>
