<svg width="70" height="50" viewBox="0 0 70 50" fill="none" xmlns="http://www.w3.org/2000/svg">
<path d="M0 7.80577V15.3846H10.8231L0 7.80577ZM8.96923 50H25V38.775L8.96923 50ZM44.2308 38.7769V50H60.2596L44.2308 38.7769ZM0 34.6154V42.1942L10.8269 34.6154H0ZM60.2635 0H44.2308V11.225L60.2635 0ZM69.2308 42.1962V34.6154H58.4019L69.2308 42.1962ZM69.2308 15.3846V7.80577L58.4058 15.3846H69.2308ZM25 0H8.96923L25 11.225V0Z" fill="#00247D"/>
<path d="M48.3489 34.6154L67.0258 47.6943C67.938 46.7546 68.5935 45.5965 68.9297 44.3308L55.0547 34.6154H48.3489ZM25.0028 34.6154H20.8855L2.21046 47.6923C3.21238 48.7116 4.497 49.4404 5.93738 49.7789L25.0028 36.4289V34.6154ZM44.2335 15.3847H48.3508L67.0258 2.30773C66.0067 1.27364 64.715 0.550088 63.3008 0.221191L44.2335 13.5712V15.3847ZM20.8855 15.3847L2.21046 2.30773C1.29883 3.24807 0.642792 4.40589 0.304688 5.67119L14.1797 15.3847H20.8855Z" fill="#CF1B2B"/>
<path d="M69.2308 30.7692H40.3846V50H44.2308V38.7769L60.2596 50H61.5385C62.5601 50.0002 63.5715 49.7963 64.5134 49.4003C65.4552 49.0044 66.3084 48.4244 67.0231 47.6942L48.3462 34.6154H55.0519L68.9269 44.3308C69.1058 43.6827 69.2308 43.0115 69.2308 42.3077V42.1962L58.4019 34.6154H69.2308V30.7692ZM0 30.7692V34.6154H10.8269L0 42.1942V42.3077C0 44.4058 0.844231 46.3038 2.20769 47.6923L20.8827 34.6154H25V36.4289L5.93462 49.7769C6.5 49.9115 7.08462 50 7.69231 50H8.96923L25 38.775V50H28.8462V30.7692H0ZM69.2308 7.69231C69.2319 5.67689 68.4387 3.74222 67.0231 2.30769L48.3481 15.3846H44.2308V13.5712L63.2981 0.221154C62.722 0.0798604 62.1316 0.0056501 61.5385 7.2765e-07H60.2635L44.2308 11.225V7.2765e-07H40.3846V19.2308H69.2308V15.3846H58.4058L69.2308 7.80577V7.69231ZM25 7.2765e-07V11.225L8.96923 7.2765e-07H7.69231C6.67043 -0.000444562 5.65878 0.203487 4.71688 0.599799C3.77498 0.99611 2.92185 1.5768 2.20769 2.30769L20.8827 15.3846H14.1769L0.301923 5.67115C0.111116 6.32829 0.00956426 7.0081 0 7.69231L0 7.80577L10.8231 15.3846H0V19.2308H28.8462V7.2765e-07H25Z" fill="#EEEEEE"/>
<path d="M40.3846 19.2308V0H28.8462V19.2308H0V30.7692H28.8462V50H40.3846V30.7692H69.2308V19.2308H40.3846Z" fill="#CF1B2B"/>
</svg>
