<svg width="95" height="50" viewBox="0 0 95 50" fill="none" xmlns="http://www.w3.org/2000/svg">
<g clip-path="url(#clip0_1693_2524)">
<path d="M0 0H95V50H0" fill="#B31942"/>
<path d="M0 5.76929H95H0ZM95 13.4616H0H95ZM0 21.1539H95H0ZM95 28.8462H0H95ZM0 36.5385H95H0ZM95 44.2308H0H95Z" fill="black"/>
<path d="M0 5.76929H95M95 13.4616H0M0 21.1539H95M95 28.8462H0M0 36.5385H95M95 44.2308H0" stroke="white" stroke-width="3.15385"/>
<path d="M0 0H38V26.9231H0" fill="#0A3161"/>
<path d="M3.14676 1.1532L4.05104 3.9363L1.68359 2.21625H4.60992L2.24247 3.9363L3.14676 1.1532Z" fill="white"/>
<path d="M3.15066 6.53809L4.05495 9.32119L1.6875 7.60114H4.61383L2.24638 9.32119L3.15066 6.53809Z" fill="white"/>
<path d="M3.15066 11.9227L4.05495 14.7058L1.6875 12.9858H4.61383L2.24638 14.7058L3.15066 11.9227Z" fill="white"/>
<path d="M3.15066 17.3073L4.05495 20.0904L1.6875 18.3703H4.61383L2.24638 20.0904L3.15066 17.3073Z" fill="white"/>
<path d="M3.15457 22.692L4.05886 25.4751L1.69141 23.7551H4.61773L2.25029 25.4751L3.15457 22.692Z" fill="white"/>
<path d="M6.32254 3.84607L7.22682 6.62917L4.85938 4.90912H7.7857L5.41825 6.62917L6.32254 3.84607Z" fill="white"/>
<path d="M6.32254 9.23071L7.22682 12.0138L4.85938 10.2938H7.7857L5.41825 12.0138L6.32254 9.23071Z" fill="white"/>
<path d="M6.32254 14.6154L7.22682 17.3985L4.85938 15.6784H7.7857L5.41825 17.3985L6.32254 14.6154Z" fill="white"/>
<path d="M6.32254 20L7.22682 22.7831L4.85938 21.0631H7.7857L5.41825 22.7831L6.32254 20Z" fill="white"/>
<path d="M9.49441 1.15417L10.3987 3.93728L8.03125 2.21723H10.9576L8.59013 3.93728L9.49441 1.15417Z" fill="white"/>
<path d="M9.49441 6.53882L10.3987 9.32192L8.03125 7.60187H10.9576L8.59013 9.32192L9.49441 6.53882Z" fill="white"/>
<path d="M9.49441 11.9235L10.3987 14.7066L8.03125 12.9865H10.9576L8.59013 14.7066L9.49441 11.9235Z" fill="white"/>
<path d="M9.49441 17.3081L10.3987 20.0912L8.03125 18.3712H10.9576L8.59013 20.0912L9.49441 17.3081Z" fill="white"/>
<path d="M9.49441 22.6925L10.3987 25.4756L8.03125 23.7556H10.9576L8.59013 25.4756L9.49441 22.6925Z" fill="white"/>
<path d="M12.6624 3.84619L13.5667 6.62929L11.1992 4.90924H14.1255L11.7581 6.62929L12.6624 3.84619Z" fill="white"/>
<path d="M12.6624 9.23083L13.5667 12.0139L11.1992 10.2939H14.1255L11.7581 12.0139L12.6624 9.23083Z" fill="white"/>
<path d="M12.6624 14.6155L13.5667 17.3986L11.1992 15.6785H14.1255L11.7581 17.3986L12.6624 14.6155Z" fill="white"/>
<path d="M12.6624 20.0001L13.5667 22.7832L11.1992 21.0632H14.1255L11.7581 22.7832L12.6624 20.0001Z" fill="white"/>
<path d="M15.8147 1.15393L16.719 3.93703L14.3516 2.21698H17.2779L14.9104 3.93703L15.8147 1.15393Z" fill="white"/>
<path d="M15.8186 6.5387L16.7229 9.3218L14.3555 7.60175H17.2818L14.9143 9.3218L15.8186 6.5387Z" fill="white"/>
<path d="M15.8186 11.9233L16.7229 14.7064L14.3555 12.9864H17.2818L14.9143 14.7064L15.8186 11.9233Z" fill="white"/>
<path d="M15.8186 17.3079L16.7229 20.091L14.3555 18.3709H17.2818L14.9143 20.091L15.8186 17.3079Z" fill="white"/>
<path d="M15.8225 22.6925L16.7268 25.4756L14.3594 23.7556H17.2857L14.9183 25.4756L15.8225 22.6925Z" fill="white"/>
<path d="M18.9905 3.84631L19.8948 6.62942L17.5273 4.90936H20.4537L18.0862 6.62942L18.9905 3.84631Z" fill="white"/>
<path d="M18.9905 9.23096L19.8948 12.0141L17.5273 10.294H20.4537L18.0862 12.0141L18.9905 9.23096Z" fill="white"/>
<path d="M18.9905 14.6156L19.8948 17.3987L17.5273 15.6787H20.4537L18.0862 17.3987L18.9905 14.6156Z" fill="white"/>
<path d="M18.9905 20.0002L19.8948 22.7833L17.5273 21.0633H20.4537L18.0862 22.7833L18.9905 20.0002Z" fill="white"/>
<path d="M22.1624 1.15405L23.0667 3.93716L20.6992 2.2171H23.6255L21.2581 3.93716L22.1624 1.15405Z" fill="white"/>
<path d="M22.1624 6.53882L23.0667 9.32192L20.6992 7.60187H23.6255L21.2581 9.32192L22.1624 6.53882Z" fill="white"/>
<path d="M22.1624 11.9235L23.0667 14.7066L20.6992 12.9865H23.6255L21.2581 14.7066L22.1624 11.9235Z" fill="white"/>
<path d="M22.1624 17.3081L23.0667 20.0912L20.6992 18.3712H23.6255L21.2581 20.0912L22.1624 17.3081Z" fill="white"/>
<path d="M22.1624 22.6926L23.0667 25.4757L20.6992 23.7557H23.6255L21.2581 25.4757L22.1624 22.6926Z" fill="white"/>
<path d="M25.3304 3.84644L26.2346 6.62954L23.8672 4.90949H26.7935L24.4261 6.62954L25.3304 3.84644Z" fill="white"/>
<path d="M25.3304 9.23108L26.2346 12.0142L23.8672 10.2941H26.7935L24.4261 12.0142L25.3304 9.23108Z" fill="white"/>
<path d="M25.3304 14.6157L26.2346 17.3988L23.8672 15.6788H26.7935L24.4261 17.3988L25.3304 14.6157Z" fill="white"/>
<path d="M25.3304 20.0004L26.2346 22.7835L23.8672 21.0634H26.7935L24.4261 22.7835L25.3304 20.0004Z" fill="white"/>
<path d="M28.4866 1.15393L29.3909 3.93703L27.0234 2.21698H29.9498L27.5823 3.93703L28.4866 1.15393Z" fill="white"/>
<path d="M28.4866 6.5387L29.3909 9.3218L27.0234 7.60175H29.9498L27.5823 9.3218L28.4866 6.5387Z" fill="white"/>
<path d="M28.4866 11.9233L29.3909 14.7064L27.0234 12.9864H29.9498L27.5823 14.7064L28.4866 11.9233Z" fill="white"/>
<path d="M28.4866 17.3079L29.3909 20.091L27.0234 18.3709H29.9498L27.5823 20.091L28.4866 17.3079Z" fill="white"/>
<path d="M28.4905 22.6925L29.3948 25.4756L27.0273 23.7556H29.9537L27.5862 25.4756L28.4905 22.6925Z" fill="white"/>
<path d="M31.6624 3.84631L32.5667 6.62942L30.1992 4.90936H33.1255L30.7581 6.62942L31.6624 3.84631Z" fill="white"/>
<path d="M31.6624 9.23096L32.5667 12.0141L30.1992 10.294H33.1255L30.7581 12.0141L31.6624 9.23096Z" fill="white"/>
<path d="M31.6624 14.6156L32.5667 17.3987L30.1992 15.6787H33.1255L30.7581 17.3987L31.6624 14.6156Z" fill="white"/>
<path d="M31.6624 20.0002L32.5667 22.7833L30.1992 21.0633H33.1255L30.7581 22.7833L31.6624 20.0002Z" fill="white"/>
<path d="M34.8304 1.15393L35.7346 3.93703L33.3672 2.21698H36.2935L33.9261 3.93703L34.8304 1.15393Z" fill="white"/>
<path d="M34.8304 6.5387L35.7346 9.3218L33.3672 7.60175H36.2935L33.9261 9.3218L34.8304 6.5387Z" fill="white"/>
<path d="M34.8304 11.9233L35.7346 14.7064L33.3672 12.9864H36.2935L33.9261 14.7064L34.8304 11.9233Z" fill="white"/>
<path d="M34.8304 17.3079L35.7346 20.091L33.3672 18.3709H36.2935L33.9261 20.091L34.8304 17.3079Z" fill="white"/>
<path d="M34.8304 22.6925L35.7346 25.4756L33.3672 23.7556H36.2935L33.9261 25.4756L34.8304 22.6925Z" fill="white"/>
</g>
<defs>
<clipPath id="clip0_1693_2524">
<rect width="95" height="50" fill="white"/>
</clipPath>
</defs>
</svg>
