<svg width="87" height="75" viewBox="0 0 87 75" fill="none" xmlns="http://www.w3.org/2000/svg">
<g clip-path="url(#clip0_256_1670)">
<path d="M43.8913 67.8858C43.8913 67.8858 25.1906 51.8858 10.6504 61.6287V4.90008C10.6504 4.90008 27.1217 -5.35706 43.8913 11.3429V67.8858Z" stroke="#42BADC" stroke-width="2.5" stroke-linecap="round" stroke-linejoin="round"/>
<path d="M43.8905 67.8858C43.8905 67.8858 62.5911 51.8858 77.1314 61.6287V4.90008C77.1314 4.90008 60.66 -5.35706 43.8905 11.3429V67.8858Z" stroke="#42BADC" stroke-width="2.5" stroke-linecap="round" stroke-linejoin="round"/>
<path d="M77.075 11.5144H84.0186C84.6859 11.5144 85.2255 12.143 85.2255 12.9287V71.8001C85.2255 72.5858 84.6859 73.2144 84.0186 73.2144H2.98234C2.31497 73.2144 1.77539 72.5858 1.77539 71.8001V11.0144C1.77539 10.2287 2.31497 9.6001 2.98234 9.6001H10.6784" stroke="#42BADC" stroke-width="2.5" stroke-linecap="round" stroke-linejoin="round"/>
</g>
<defs>
<clipPath id="clip0_256_1670">
<rect width="87" height="75" fill="white"/>
</clipPath>
</defs>
</svg>
