<svg width="75" height="75" viewBox="0 0 75 75" fill="none" xmlns="http://www.w3.org/2000/svg">
<g clip-path="url(#clip0_256_1674)">
<path d="M19.6426 54.0429L25.8569 37.7286C25.9854 37.4143 26.4283 37.4143 26.5569 37.7286L32.714 54.0429" stroke="#42BADC" stroke-width="2.5" stroke-linecap="round" stroke-linejoin="round"/>
<path d="M21.5857 49.9858H30.8" stroke="#42BADC" stroke-width="2.5" stroke-linecap="round" stroke-linejoin="round"/>
<path d="M39.0996 14.4856H58.5568" stroke="#42BADC" stroke-width="2.5" stroke-linecap="round" stroke-linejoin="round"/>
<path d="M52.3282 14.4856V15.8856C52.3282 23.2142 46.871 29.3856 39.5996 30.2999" stroke="#42BADC" stroke-width="2.5" stroke-linecap="round" stroke-linejoin="round"/>
<path d="M45.3143 14.4856V15.8856C45.3143 23.2142 50.7714 29.3856 58.0428 30.2999" stroke="#42BADC" stroke-width="2.5" stroke-linecap="round" stroke-linejoin="round"/>
<path d="M48.8281 14.4857V9.25708" stroke="#42BADC" stroke-width="2.5" stroke-linecap="round" stroke-linejoin="round"/>
<path d="M42.2849 1.78564H30.6706C27.2134 1.78564 24.4277 4.58564 24.4277 8.0285V31.5428C24.4277 34.9999 27.2277 37.7856 30.6706 37.7856H56.0706L66.9563 47.0714V37.7856C70.4134 37.7856 73.1992 34.9856 73.1992 31.5428V8.0285C73.1992 4.57136 70.3992 1.78564 66.9563 1.78564H55.342" stroke="#42BADC" stroke-width="2.5" stroke-linecap="round" stroke-linejoin="round"/>
<path d="M50.5709 37.7857V57.6714C50.5709 61.1286 47.7709 63.9143 44.328 63.9143H18.9137L8.02801 73.2V63.9143C4.57087 63.9143 1.78516 61.1143 1.78516 57.6714V34.1572C1.78516 30.7 4.58516 27.9143 8.02801 27.9143H24.428" stroke="#42BADC" stroke-width="2.5" stroke-linecap="round" stroke-linejoin="round"/>
</g>
<defs>
<clipPath id="clip0_256_1674">
<rect width="75" height="75" fill="white"/>
</clipPath>
</defs>
</svg>
