<svg width="111" height="46" viewBox="0 0 111 46" fill="none" xmlns="http://www.w3.org/2000/svg">
<g clip-path="url(#clip0_256_1010)">
<path d="M14.3237 42.6098C18.8265 42.0791 23.3084 38.8214 25.9274 33.8269C25.4822 34.0872 25.0166 34.3149 24.5298 34.5073C16.7055 37.6053 6.49544 30.5745 1.72396 18.8035C1.42934 18.0772 1.16299 17.3505 0.923828 16.6243C1.37895 25.0235 3.91293 32.3212 10.1226 38.7629C11.5287 40.2211 13.0989 41.6501 14.7514 42.9521C14.608 42.839 14.4656 42.7252 14.3237 42.6098Z" fill="#00A94F"/>
<path d="M18.17 0.269653H11.0664C13.8097 1.60694 16.987 3.42881 20.1542 5.83909C27.3984 11.354 32.0376 17.9545 34.0874 25.11C35.0779 21.5339 35.4944 17.7363 35.4944 13.691V0.269653H18.17Z" fill="#27318B"/>
<path d="M20.9716 6.47461C20.9326 6.49938 20.894 6.52415 20.8558 6.54892C16.8794 9.1368 13.3936 12.2303 10.457 15.7494C13.4277 17.5929 16.5608 19.9502 19.3033 22.8812C21.9557 18.8912 24.9864 15.7025 27.8296 13.2311C25.9131 10.8464 23.6271 8.58581 20.9716 6.47461Z" fill="#00A94F"/>
<path d="M25.9279 33.8254C23.3108 38.821 18.8283 42.0792 14.3243 42.6099C15.563 43.612 16.8548 44.5461 18.1636 45.3669C21.0498 43.5559 23.8675 41.1991 26.2154 38.763C26.4521 38.5179 26.6836 38.27 26.9104 38.0215C26.6926 36.5572 26.3604 35.1593 25.9279 33.8254Z" fill="#27318B"/>
<path d="M35.4922 0.269653H35.4533C32.5738 0.920246 27.0054 2.57189 20.9688 6.47492C23.6243 8.58612 25.9103 10.8467 27.8268 13.2312C30.8069 10.6412 33.5811 8.83935 35.4922 7.73527V0.269653Z" fill="#7AC143"/>
<path d="M10.4558 15.7498C7.41955 19.3895 4.97222 23.4852 3.18185 27.9529C4.64668 31.8125 6.88604 35.4043 10.1234 38.7632C10.8326 39.4986 11.5839 40.2267 12.3662 40.9353C13.4612 33.6596 16.105 27.6897 19.3021 22.8812C17.9309 21.4159 16.4621 20.0939 14.9647 18.9079C13.4674 17.7218 11.9412 16.6715 10.4558 15.7498Z" fill="#27318B"/>
<path d="M19.3008 22.8813C23.0015 26.8344 25.9922 31.8307 26.9091 38.0214C30.5221 34.057 32.7932 29.7716 34.0855 25.1097C32.8863 20.9245 30.8015 16.9303 27.8271 13.2312C24.9836 15.7026 21.9531 18.8913 19.3008 22.8813Z" fill="#00703C"/>
<path d="M20.8547 6.54923C20.8928 6.52446 20.9312 6.49969 20.9704 6.47492C20.7011 6.26254 20.4299 6.04936 20.1537 5.83909C16.9865 3.42881 13.8092 1.60694 11.0659 0.269653H0.845703V11.0048C2.92589 11.7898 6.54956 13.3263 10.4558 15.7498C13.3924 12.2307 16.8782 9.13685 20.8547 6.54923Z" fill="#7AC143"/>
<path d="M42.3926 1.22876C42.5184 1.23746 42.6536 1.25564 42.7882 1.25564C42.9144 1.25564 43.041 1.23746 43.1844 1.22876V7.31414C43.041 7.30465 42.9144 7.28779 42.7882 7.28779C42.6536 7.28779 42.5184 7.30465 42.3926 7.31414V1.22876Z" fill="#27318B"/>
<path d="M50.1582 7.31414H49.8887C49.7895 7.18976 49.6098 6.97553 49.4202 6.77158L45.5318 2.51941H45.4409V7.31414C45.3513 7.30465 45.2705 7.28779 45.19 7.28779C45.0999 7.28779 45.0199 7.30465 44.9375 7.31414V1.22876H45.2886L49.5642 5.81137H49.6535V1.22876C49.7354 1.23746 49.8162 1.25564 49.9063 1.25564C49.9873 1.25564 50.0679 1.23746 50.1582 1.22876V7.31414Z" fill="#27318B"/>
<path d="M53.987 7.33232C53.8425 7.32283 53.7161 7.30465 53.5908 7.30465C53.4548 7.30465 53.321 7.32283 53.1946 7.33232V1.65643C52.2843 1.65643 51.7362 1.70913 51.2227 1.76262C51.2323 1.67487 51.2496 1.58475 51.2496 1.49622C51.2496 1.40689 51.2323 1.32678 51.2227 1.22876H55.8675C55.859 1.32678 55.8403 1.40689 55.8403 1.49622C55.8403 1.58475 55.859 1.67487 55.8675 1.76262C55.4169 1.70913 54.7879 1.65643 53.987 1.65643V7.33232Z" fill="#27318B"/>
<path d="M57.6395 3.87988H59.0342C59.3059 3.87988 59.5669 3.84483 59.8368 3.83535C59.8264 3.90676 59.8085 3.98686 59.8085 4.06644C59.8085 4.13732 59.8264 4.21848 59.8368 4.31598C59.5669 4.30649 59.3059 4.27145 59.0342 4.27145H57.6395V6.8696C58.1885 6.88699 58.73 6.85195 59.2691 6.8335C59.5491 6.82507 59.8181 6.79846 60.0973 6.75313C60.0887 6.85195 60.0701 6.93126 60.0701 7.02059C60.0701 7.10913 60.0887 7.19846 60.0973 7.28805H56.8477V1.22876H60.0431C60.0346 1.32705 60.0159 1.40689 60.0159 1.49622C60.0159 1.58475 60.0346 1.67514 60.0431 1.76288C59.773 1.70939 59.503 1.68251 59.2329 1.66539L58.3327 1.64694H57.6395V3.87988Z" fill="#27318B"/>
<path d="M61.3555 1.22876H63.2645C64.6509 1.22876 65.2636 1.68225 65.2636 2.58107C65.2636 3.61374 64.3264 4.11124 63.4175 4.27145L65.2732 6.59292L65.703 7.09226L65.8745 7.31414C65.6862 7.30439 65.523 7.28779 65.3524 7.28779C65.1812 7.28779 65.0013 7.30439 64.8397 7.31414C64.6419 7.03772 64.4622 6.78871 64.2734 6.5397L63.2104 5.17896L62.4899 4.34259H62.1473V7.31414C62.0044 7.30439 61.8778 7.28779 61.7517 7.28779C61.6176 7.28779 61.4816 7.30439 61.3555 7.31414V1.22876ZM62.1473 4.00452C62.2737 4.01348 62.8502 4.04905 63.309 3.95999C63.9673 3.82692 64.4622 3.38238 64.4622 2.68726C64.4622 2.07487 64.1457 1.67487 63.4717 1.56736C63.1376 1.51387 62.5259 1.5397 62.1473 1.55893V4.00452Z" fill="#27318B"/>
<path d="M72.1658 7.31414H71.8957C71.7968 7.18976 71.6168 6.97553 71.427 6.77158L67.5396 2.51941H67.449V7.31414C67.3588 7.30465 67.2783 7.28779 67.1978 7.28779C67.108 7.28779 67.025 7.30465 66.9453 7.31414V1.22876H67.2967L71.5723 5.81137H71.6613V1.22876C71.7427 1.23746 71.824 1.25564 71.9133 1.25564C71.9943 1.25564 72.0757 1.23746 72.1658 1.22876V7.31414Z" fill="#27318B"/>
<path d="M78.7474 7.31423C78.5759 7.30475 78.4325 7.28788 78.2789 7.28788C78.1083 7.28788 77.9555 7.30475 77.8017 7.31423C77.542 6.57484 77.2178 5.72161 76.8578 4.91212H74.5705C74.2548 5.69447 73.9324 6.47734 73.6799 7.31423C73.5549 7.30475 73.4544 7.28788 73.3469 7.28788C73.2288 7.28788 73.1299 7.30475 73.0312 7.31423L75.8393 1.09631H76.0468L78.7474 7.31423ZM75.7223 2.26127L74.7408 4.53874H76.7221L75.7223 2.26127Z" fill="#27318B"/>
<path d="M81.1689 7.33232C81.0247 7.32283 80.8988 7.30465 80.7741 7.30465C80.6375 7.30465 80.5029 7.32283 80.3771 7.33232V1.65643C79.4689 1.65643 78.9184 1.70913 78.4062 1.76262C78.415 1.67487 78.4331 1.58475 78.4331 1.49622C78.4331 1.40689 78.415 1.32678 78.4062 1.22876H83.0507C83.0417 1.32678 83.0244 1.40689 83.0244 1.49622C83.0244 1.58475 83.0417 1.67487 83.0507 1.76262C82.6012 1.70913 81.9712 1.65643 81.1689 1.65643V7.33232Z" fill="#27318B"/>
<path d="M84.0859 1.22876C84.2118 1.23746 84.3464 1.25564 84.4819 1.25564C84.6077 1.25564 84.7336 1.23746 84.8789 1.22876V7.31414C84.7336 7.30465 84.6077 7.28779 84.4819 7.28779C84.3464 7.28779 84.2118 7.30465 84.0859 7.31414V1.22876Z" fill="#27318B"/>
<path d="M86.1113 4.27154C86.1113 2.32319 87.5783 1.09631 89.442 1.09631C91.1337 1.09631 92.8531 2.00251 92.8531 4.13716C92.8531 6.1224 91.4312 7.42042 89.4233 7.42042C87.4343 7.42042 86.1113 6.1751 86.1113 4.27154ZM91.4049 2.25257C90.954 1.6921 90.253 1.39012 89.531 1.39012C87.9465 1.39012 86.9931 2.57299 86.9931 4.37826C86.9931 6.18459 88.1091 7.12688 89.4516 7.12688C91.3489 7.12688 92.0341 5.18775 91.9704 4.20909C91.9704 3.47049 91.8714 2.84862 91.4049 2.25257Z" fill="#27318B"/>
<path d="M99.351 7.31414H99.0809C98.9812 7.18976 98.8012 6.97553 98.6119 6.77158L94.7235 2.51941H94.6342V7.31414C94.5443 7.30465 94.4627 7.28779 94.3806 7.28779C94.2923 7.28779 94.2102 7.30465 94.1289 7.31414V1.22876H94.4803L98.7567 5.81137H98.8457V1.22876C98.927 1.23746 99.0086 1.25564 99.0985 1.25564C99.1798 1.25564 99.2601 1.23746 99.351 1.22876V7.31414Z" fill="#27318B"/>
<path d="M105.93 7.31423C105.76 7.30475 105.616 7.28788 105.463 7.28788C105.292 7.28788 105.138 7.30475 104.986 7.31423C104.726 6.57484 104.4 5.72161 104.04 4.91212H101.755C101.439 5.69447 101.114 6.47734 100.864 7.31423C100.737 7.30475 100.639 7.28788 100.531 7.28788C100.414 7.28788 100.315 7.30475 100.215 7.31423L103.023 1.09631H103.23L105.93 7.31423ZM102.906 2.26127L101.924 4.53874H103.906L102.906 2.26127Z" fill="#27318B"/>
<path d="M107.668 6.86971C108.216 6.8871 108.756 6.85231 109.296 6.8336C109.584 6.82517 109.862 6.78907 110.152 6.7535C110.143 6.85231 110.124 6.93137 110.124 7.02069C110.124 7.10923 110.143 7.19856 110.152 7.28815H106.875V1.22913C107.001 1.23782 107.135 1.25574 107.271 1.25574C107.397 1.25574 107.523 1.23782 107.668 1.22913V6.86971Z" fill="#27318B"/>
<path d="M42.6733 15.5908C43.0557 16.2045 43.494 16.5905 44.2541 16.5905C45.042 16.5905 45.608 15.9471 45.608 15.1792C45.608 13.3908 42.5544 14.1813 42.5544 12.0061C42.5544 10.7658 43.5511 10.1558 44.7215 10.1558C45.1916 10.1558 45.7518 10.301 46.1154 10.6187C45.9965 10.8675 45.9296 11.1407 45.8517 11.4064H45.7518C45.5502 10.8891 45.1209 10.5713 44.5464 10.5713C43.8726 10.5713 43.3164 11.0145 43.3164 11.6965C43.3164 13.4699 46.386 12.7563 46.386 14.8082C46.386 16.185 45.3044 17.0069 43.9814 17.0069C43.502 17.0069 42.7221 16.8016 42.3926 16.4475C42.4886 16.1663 42.5374 15.877 42.5744 15.5908H42.6733Z" fill="#27318B"/>
<path d="M52.7783 16.4536C52.1632 16.8613 51.3633 17.0072 50.6256 17.0072C48.4827 17.0072 47.1934 15.666 47.1934 13.5559C47.1934 11.3859 48.8131 10.1561 50.8682 10.1561C51.5801 10.1561 52.3101 10.3211 52.9641 10.5991C52.8674 10.842 52.8082 11.0897 52.7586 11.3395L52.6927 11.3514C52.5549 11.1756 51.8326 10.5221 50.829 10.5221C49.0368 10.5221 48.15 11.9574 48.15 13.5964C48.15 15.4439 49.2224 16.6291 50.7621 16.6291C51.8129 16.6291 52.6306 16.0144 52.8303 15.8486L52.7783 16.4536Z" fill="#27318B"/>
<path d="M59.1632 10.301C59.2989 10.3118 59.4477 10.3287 59.5925 10.3287C59.7253 10.3287 59.8652 10.3118 60.0202 10.301V16.8907C59.8652 16.8778 59.7253 16.8612 59.5925 16.8612C59.4477 16.8612 59.2989 16.8778 59.1632 16.8907V13.5767C58.4711 13.5558 57.7981 13.5261 57.1161 13.5261C56.4311 13.5261 55.7611 13.5558 55.061 13.5767V16.8907C54.9023 16.8778 54.7677 16.8612 54.6296 16.8612C54.4848 16.8612 54.3363 16.8778 54.2014 16.8907V10.301C54.3363 10.3118 54.4848 10.3287 54.6296 10.3287C54.7677 10.3287 54.9023 10.3118 55.061 10.301V13.0673C55.7611 13.0842 56.4421 13.1168 57.1161 13.1168C57.7981 13.1168 58.4711 13.0842 59.1632 13.0673V10.301Z" fill="#27318B"/>
<path d="M61.3184 13.5963C61.3184 11.4851 62.904 10.1558 64.922 10.1558C66.7524 10.1558 68.6148 11.1407 68.6148 13.4472C68.6148 15.5984 67.0758 17.0069 64.9031 17.0069C62.7501 17.0069 61.3184 15.6538 61.3184 13.5963ZM67.0459 11.4064C66.5607 10.8011 65.7998 10.4757 65.0217 10.4757C63.3044 10.4757 62.2718 11.7544 62.2718 13.7107C62.2718 15.6656 63.4812 16.6841 64.933 16.6841C66.987 16.6841 67.7293 14.5861 67.6629 13.526C67.6629 12.7294 67.5531 12.0525 67.0459 11.4064Z" fill="#27318B"/>
<path d="M69.4336 13.5963C69.4336 11.4851 71.0235 10.1558 73.0383 10.1558C74.8719 10.1558 76.7324 11.1407 76.7324 13.4472C76.7324 15.5984 75.1945 17.0069 73.0215 17.0069C70.8675 17.0069 69.4336 15.6538 69.4336 13.5963ZM75.1644 11.4064C74.6773 10.8011 73.9171 10.4757 73.1394 10.4757C71.4229 10.4757 70.3902 11.7544 70.3902 13.7107C70.3902 15.6656 71.5975 16.6841 73.0493 16.6841C75.1076 16.6841 75.8456 14.5861 75.7776 13.526C75.7776 12.7294 75.6707 12.0525 75.1644 11.4064Z" fill="#27318B"/>
<path d="M78.8666 16.407C79.4588 16.4278 80.044 16.3893 80.6279 16.3716C80.9417 16.3595 81.2454 16.3224 81.5568 16.2836C81.547 16.3893 81.527 16.4773 81.527 16.5709C81.527 16.6676 81.547 16.7643 81.5568 16.8612H78.0078V10.301C78.1446 10.3118 78.2894 10.329 78.4384 10.329C78.5728 10.329 78.712 10.3118 78.8666 10.301V16.407Z" fill="#27318B"/>
<path d="M84.209 13.5937C84.209 11.4849 85.7967 10.1558 87.8143 10.1558C89.6452 10.1558 91.511 11.1384 91.511 13.4483C91.511 15.5982 89.9675 17.0069 87.794 17.0069C85.6408 17.0069 84.209 15.6577 84.209 13.5937ZM89.9416 11.4064C89.4527 10.8006 88.6893 10.4767 87.911 10.4767C86.1967 10.4767 85.1624 11.7558 85.1624 13.7104C85.1624 15.6675 86.3718 16.6883 87.8252 16.6883C89.8814 16.6883 90.6221 14.589 90.5554 13.5268C90.5554 12.7268 90.4458 12.0522 89.9416 11.4064Z" fill="#27318B"/>
<path d="M92.7852 10.3005H96.2443C96.2347 10.4046 96.2163 10.4937 96.2163 10.5875C96.2163 10.6839 96.2347 10.7828 96.2443 10.8773C95.9508 10.8199 95.6604 10.7891 95.3693 10.7733L94.3932 10.7509H93.6453V13.1712H95.1533C95.4476 13.1712 95.7284 13.1337 96.0219 13.1211C96.0121 13.1986 95.9926 13.2858 95.9926 13.3727C95.9926 13.4484 96.0121 13.5335 96.0219 13.6418C95.7284 13.6323 95.4476 13.5938 95.1533 13.5938H93.6453V16.8903C93.4858 16.8766 93.3493 16.8586 93.2139 16.8586C93.067 16.8586 92.9217 16.8766 92.7852 16.8903V10.3005Z" fill="#27318B"/>
<path d="M47.9767 25.5546C47.3606 25.958 46.561 26.1069 45.8203 26.1069C43.6748 26.1069 42.3926 24.7675 42.3926 22.6563C42.3926 20.4879 44.0091 19.2557 46.0642 19.2557C46.7772 19.2557 47.5091 19.4194 48.1604 19.6968C48.0636 19.9398 48.0045 20.1875 47.9551 20.4426L47.8895 20.4531C47.752 20.2768 47.0273 19.621 46.0256 19.621C44.2304 19.621 43.3447 21.0576 43.3447 22.6937C43.3447 24.5419 44.4162 25.7308 45.9568 25.7308C47.0102 25.7308 47.8314 25.1137 48.026 24.9501L47.9767 25.5546Z" fill="#27318B"/>
<path d="M49.3985 19.4001H51.4624C52.9672 19.4001 53.6292 19.8887 53.6292 20.8621C53.6292 21.9817 52.6179 22.5232 51.6309 22.6934L53.641 25.2112L54.1057 25.7467L54.2915 25.9899C54.0873 25.9762 53.9111 25.958 53.7274 25.958C53.5413 25.958 53.3456 25.9762 53.1682 25.9899C52.9587 25.6892 52.7598 25.4183 52.5587 25.1517L51.4075 23.6771L50.6249 22.7751H50.2573V25.9899C50.097 25.9762 49.9608 25.958 49.8264 25.958C49.6822 25.958 49.5328 25.9762 49.3985 25.9899V19.4001ZM50.2573 22.4065C50.3916 22.4149 51.0163 22.4499 51.5128 22.3596C52.2223 22.2133 52.7598 21.7319 52.7598 20.9788C52.7598 20.3137 52.4212 19.8824 51.689 19.7656C51.328 19.7082 50.6625 19.7377 50.2573 19.7559V22.4065Z" fill="#27318B"/>
<path d="M56.1993 22.2708H57.714C58.0062 22.2708 58.2867 22.2333 58.5803 22.221C58.5715 22.2982 58.5534 22.3854 58.5534 22.4726C58.5534 22.548 58.5715 22.6331 58.5803 22.7414C58.2867 22.7316 58.0062 22.6934 57.714 22.6934H56.1993V25.5077C56.7968 25.5258 57.3818 25.4897 57.9665 25.4663C58.271 25.4579 58.5643 25.4278 58.8618 25.3843C58.8544 25.4897 58.8352 25.5767 58.8352 25.6713C58.8352 25.7691 58.8544 25.8637 58.8618 25.958H55.3438V19.4001H58.8058C58.7952 19.5042 58.7749 19.5936 58.7749 19.6871C58.7749 19.7838 58.7952 19.8826 58.8058 19.9772C58.5126 19.9195 58.2211 19.8889 57.9287 19.8729L56.9549 19.8505H56.1993V22.2708Z" fill="#27318B"/>
<path d="M65.6963 25.9899C65.5105 25.9764 65.3548 25.958 65.1903 25.958C65.0042 25.958 64.8386 25.9764 64.673 25.9899C64.3917 25.1891 64.039 24.2657 63.6486 23.3904H61.1731C60.8336 24.2339 60.4798 25.0818 60.2089 25.9899C60.0703 25.9764 59.9671 25.958 59.8469 25.958C59.7197 25.958 59.6125 25.9764 59.5059 25.9899L62.547 19.2557H62.7704L65.6963 25.9899ZM62.42 20.5158L61.3602 22.9835H63.5033L62.42 20.5158Z" fill="#27318B"/>
<path d="M68.3186 26.0123C68.1615 25.9983 68.025 25.9762 67.8885 25.9762C67.7435 25.9762 67.5995 25.9983 67.463 26.0123V19.8602C66.4783 19.8602 65.8774 19.9195 65.3281 19.9772C65.3367 19.8824 65.3551 19.7835 65.3551 19.6871C65.3551 19.5936 65.3367 19.5042 65.3281 19.4001H70.3574C70.3489 19.5042 70.3276 19.5936 70.3276 19.6871C70.3276 19.7835 70.3489 19.8824 70.3574 19.9772C69.8695 19.9195 69.1848 19.8602 68.3186 19.8602V26.0123Z" fill="#27318B"/>
<path d="M71.4785 19.4001C71.615 19.4096 71.7611 19.4257 71.9054 19.4257C72.0427 19.4257 72.1792 19.4096 72.3352 19.4001V25.9899C72.1792 25.9762 72.0427 25.958 71.9054 25.958C71.7611 25.958 71.615 25.9762 71.4785 25.9899V19.4001Z" fill="#27318B"/>
<path d="M78.311 21.1627L78.8978 19.5543L78.9645 19.4004C79.0794 19.4099 79.1989 19.4257 79.3247 19.4257C79.4297 19.4257 79.5524 19.4099 79.675 19.4004C79.3655 19.9856 77.209 24.9213 76.8598 25.9899C76.7899 25.9764 76.7233 25.958 76.6651 25.958C76.5953 25.958 76.5254 25.9764 76.4577 25.9899C75.3486 23.7271 73.924 20.2173 73.4942 19.4004C73.6424 19.4099 73.8091 19.4257 73.9651 19.4257C74.1197 19.4257 74.2626 19.4099 74.4391 19.4004C74.5692 19.6968 74.6831 20.0173 74.8001 20.3329L75.4571 22.0188L76.6531 24.9406H76.7403C76.9283 24.5419 77.1317 24.168 77.2853 23.7783L78.311 21.1627Z" fill="#27318B"/>
<path d="M81.4854 22.2708H82.9969C83.2912 22.2708 83.5738 22.2333 83.8674 22.221C83.8557 22.2982 83.8373 22.3875 83.8373 22.4726C83.8373 22.548 83.8557 22.6362 83.8674 22.7435C83.5738 22.7316 83.2912 22.6966 82.9969 22.6966H81.4854V25.5077C82.0829 25.5258 82.6679 25.4897 83.2515 25.4663C83.5557 25.4579 83.8461 25.4323 84.1479 25.3843C84.1393 25.4897 84.1202 25.5767 84.1202 25.6713C84.1202 25.7691 84.1393 25.8637 84.1479 25.958H80.6309V19.4001H84.0919C84.0812 19.5042 84.061 19.5936 84.061 19.6871C84.061 19.7838 84.0812 19.8826 84.0919 19.9772C83.7975 19.9195 83.504 19.8889 83.216 19.8729L82.2367 19.8505H81.4854V22.2708Z" fill="#27318B"/>
<path d="M42.6784 33.4285C43.0543 34.0488 43.4951 34.4333 44.2525 34.4333C45.0433 34.4333 45.6075 33.7861 45.6075 33.0227C45.6075 31.2322 42.5579 32.0222 42.5579 29.8462C42.5579 28.6017 43.5519 27.9974 44.7255 27.9974C45.1897 27.9974 45.7582 28.1418 46.116 28.4594C45.9965 28.711 45.932 28.9795 45.8515 29.2472H45.7582C45.5497 28.7268 45.1207 28.4093 44.5482 28.4093C43.8742 28.4093 43.3175 28.8533 43.3175 29.5413C43.3175 31.3118 46.3866 30.5959 46.3866 32.6467C46.3866 34.0272 45.3076 34.8486 43.9808 34.8486C43.5025 34.8486 42.7224 34.6414 42.3926 34.2886C42.488 34.004 42.5376 33.7173 42.5795 33.4285H42.6784Z" fill="#27318B"/>
<path d="M52.7797 34.2939C52.1684 34.6973 51.3656 34.8483 50.6286 34.8483C48.4804 34.8483 47.1953 33.5071 47.1953 31.3969C47.1953 29.2291 48.8137 27.9972 50.8726 27.9972C51.5818 27.9972 52.3123 28.1608 52.9645 28.4378C52.869 28.681 52.8088 28.9287 52.7616 29.1835L52.6939 29.194C52.5563 29.018 51.8343 28.3624 50.8304 28.3624C49.0371 28.3624 48.1506 29.7982 48.1506 31.437C48.1506 33.2818 49.2251 34.4702 50.7649 34.4702C51.8183 34.4702 52.6347 33.8533 52.8301 33.6897L52.7797 34.2939Z" fill="#27318B"/>
<path d="M54.252 28.1416C54.3861 28.1511 54.5346 28.1672 54.6828 28.1672C54.8193 28.1672 54.9537 28.1511 55.1115 28.1416V34.7292C54.9537 34.7155 54.8193 34.6973 54.6828 34.6973C54.5346 34.6973 54.3861 34.7155 54.252 34.7292V28.1416Z" fill="#27318B"/>
<path d="M57.7597 31.0112H59.2728C59.5632 31.0112 59.8466 30.974 60.1369 30.9614C60.1274 31.0388 60.11 31.1279 60.11 31.213C60.11 31.2886 60.1274 31.3766 60.1369 31.4839C59.8466 31.472 59.5632 31.437 59.2728 31.437H57.7597V34.2473C58.354 34.2654 58.9409 34.2293 59.5288 34.2059C59.8274 34.1975 60.1207 34.1719 60.4236 34.1239C60.4097 34.2293 60.3905 34.3163 60.3905 34.4106C60.3905 34.5084 60.4097 34.603 60.4236 34.6973H56.9023V28.1416H60.3604C60.3518 28.2457 60.3324 28.335 60.3324 28.4283C60.3324 28.525 60.3518 28.6238 60.3604 28.7184C60.0682 28.661 59.7778 28.6301 59.4824 28.6143L58.509 28.5919H57.7597V31.0112Z" fill="#27318B"/>
<path d="M67.5328 34.7292H67.2427C67.1342 34.5932 66.9366 34.3672 66.7345 34.1419L62.5232 29.5413H62.4278V34.7292C62.3278 34.7155 62.2406 34.6973 62.1548 34.6973C62.0558 34.6973 61.9687 34.7155 61.8828 34.7292V28.1416H62.2611L66.8871 33.1034H66.9881V28.1416C67.0742 28.1511 67.1643 28.1672 67.259 28.1672C67.3483 28.1672 67.4384 28.1511 67.5328 28.1416V34.7292Z" fill="#27318B"/>
<path d="M74.443 34.2939C73.8292 34.6973 73.0288 34.8483 72.2895 34.8483C70.1448 34.8483 68.8594 33.5071 68.8594 31.3969C68.8594 29.2291 70.4778 27.9972 72.5324 27.9972C73.2437 27.9972 73.9735 28.1608 74.6299 28.4378C74.5299 28.681 74.4731 28.9287 74.4249 29.1835L74.3515 29.194C74.2161 29.018 73.4994 28.3624 72.4958 28.3624C70.7001 28.3624 69.8126 29.7982 69.8126 31.437C69.8126 33.2818 70.887 34.4702 72.4268 34.4702C73.4791 34.4702 74.2969 33.8533 74.4926 33.6897L74.443 34.2939Z" fill="#27318B"/>
<path d="M76.7147 31.0112H78.2267C78.5181 31.0112 78.8005 30.974 79.093 30.9614C79.0855 31.0388 79.0639 31.1279 79.0639 31.213C79.0639 31.2886 79.0855 31.3766 79.093 31.4839C78.8005 31.472 78.5181 31.437 78.2267 31.437H76.7147V34.2473C77.3082 34.2654 77.8958 34.2293 78.4792 34.2059C78.7824 34.1975 79.0756 34.1719 79.3777 34.1239C79.3657 34.2293 79.3476 34.3163 79.3476 34.4106C79.3476 34.5084 79.3657 34.603 79.3777 34.6973H75.8594V28.1416H79.3164C79.3079 28.2457 79.2865 28.335 79.2865 28.4283C79.2865 28.525 79.3079 28.6238 79.3164 28.7184C79.0274 28.661 78.7309 28.6301 78.4408 28.6143L77.4647 28.5919H76.7147V31.0112Z" fill="#27318B"/>
<path d="M47.051 43.9054C47.0278 43.6098 46.9985 43.2764 46.9633 42.9023C46.9283 42.5292 46.8771 42.0314 46.8113 41.4093C46.3516 42.2298 45.9208 43.0414 45.5131 43.8464C45.4403 43.9942 45.3806 44.1183 45.3355 44.2206C45.2907 44.3212 45.2494 44.4259 45.2065 44.5328C45.1998 44.5539 45.1932 44.5695 45.1886 44.5824C45.1484 44.5745 45.1185 44.5695 45.102 44.5695C45.0889 44.5695 45.0689 44.5745 45.0391 44.5824H45.0193C44.9497 44.4198 44.8951 44.301 44.8567 44.2206C44.8202 44.14 44.7754 44.053 44.7274 43.9571C44.4487 43.4285 44.2035 42.9629 43.9851 42.5531C43.7643 42.1439 43.5622 41.7821 43.3751 41.4633C43.3404 41.6825 43.3052 41.9407 43.2737 42.2396C43.2396 42.54 43.2108 42.8332 43.1898 43.1202C43.1666 43.4053 43.1476 43.6804 43.1364 43.9452C43.125 44.2082 43.1167 44.4198 43.1167 44.5824C43.017 44.5573 42.9375 44.546 42.881 44.546C42.8045 44.546 42.7106 44.5573 42.5963 44.5824H42.5781C42.5997 44.496 42.6376 44.2823 42.6957 43.9426C42.752 43.6016 42.8149 43.2108 42.881 42.7692C42.9503 42.3292 43.017 41.8809 43.0802 41.4311C43.1415 40.9782 43.1898 40.5945 43.2228 40.277C43.2657 40.2857 43.302 40.2888 43.3287 40.2888C43.3553 40.2888 43.3951 40.2857 43.4548 40.277C43.5046 40.3829 43.6073 40.5842 43.7593 40.8794C43.9123 41.175 44.0877 41.5068 44.2864 41.8762C44.4871 42.2448 44.6743 42.5887 44.8532 42.9054C45.0327 43.224 45.1681 43.4575 45.2643 43.6111C45.427 43.3152 45.5563 43.0767 45.6523 42.8991C46.2189 41.8556 46.5873 41.1779 46.7542 40.8646C46.8238 40.7268 46.8785 40.6248 46.915 40.5558C46.9483 40.4854 46.9913 40.3929 47.0427 40.277C47.051 40.277 47.0577 40.2788 47.0678 40.282C47.1043 40.2873 47.1342 40.2888 47.1555 40.2888C47.1702 40.2888 47.2006 40.2873 47.2419 40.282L47.2733 40.277C47.3176 40.6933 47.3624 41.0743 47.4024 41.4174C47.4427 41.7613 47.4818 42.1226 47.5266 42.4975C47.5714 42.8717 47.6144 43.2274 47.6608 43.565C47.7077 43.9004 47.7487 44.1842 47.7871 44.4153C47.7954 44.4738 47.8069 44.5294 47.8234 44.5824C47.8202 44.5824 47.8015 44.5797 47.7671 44.5763C47.7007 44.5639 47.648 44.556 47.6064 44.5508C47.5616 44.546 47.5205 44.546 47.4754 44.546C47.3941 44.546 47.3293 44.5476 47.2765 44.5539C47.2251 44.5605 47.1656 44.5695 47.0974 44.5824H47.0862C47.0862 44.4259 47.0742 44.2003 47.051 43.9054Z" fill="#6D6E71"/>
<path d="M48.9199 41.2477C48.9129 41.0986 48.91 40.9576 48.9033 40.8219C48.8967 40.6859 48.8903 40.5115 48.8748 40.3018H48.8929C49.0559 40.3276 49.175 40.3386 49.2446 40.3386C49.3457 40.3386 49.467 40.3276 49.6094 40.3018C49.596 40.4746 49.584 40.6823 49.5763 40.9228C49.568 41.1645 49.5611 41.394 49.5576 41.6114C49.5526 41.8883 49.5496 42.1571 49.5496 42.4164C49.5496 42.8498 49.568 43.1745 49.6024 43.3945C49.6342 43.6145 49.7107 43.7921 49.8248 43.9331C49.9272 44.0522 50.0682 44.1495 50.2522 44.223C50.4364 44.297 50.6287 44.3357 50.8292 44.3357C50.9035 44.3357 50.9929 44.326 51.1008 44.3107C51.207 44.2938 51.3261 44.2551 51.4587 44.1964C51.5885 44.1363 51.7106 44.0438 51.8234 43.9162C51.9362 43.7908 52.0156 43.6293 52.062 43.4314C52.0852 43.3331 52.1055 43.2182 52.1201 43.0881C52.1351 42.9589 52.1449 42.8343 52.1519 42.7139C52.1583 42.595 52.1615 42.4854 52.1652 42.3855C52.1681 42.2881 52.1681 42.2106 52.1681 42.1571C52.1681 42.0994 52.1652 41.9856 52.1615 41.8132C52.1583 41.6417 52.1519 41.4604 52.1449 41.2699C52.1385 41.0767 52.13 40.8907 52.1167 40.7097C52.1055 40.5281 52.0922 40.3919 52.0788 40.3018L52.0985 40.3083C52.1449 40.3149 52.1863 40.3215 52.2249 40.3307C52.2625 40.3352 52.311 40.3386 52.3734 40.3386C52.4332 40.3386 52.4796 40.3352 52.5158 40.3307C52.551 40.3215 52.5891 40.3149 52.6305 40.3083L52.6489 40.3018C52.6126 40.5737 52.5859 40.8857 52.5694 41.2364C52.551 41.5866 52.5427 42.0032 52.5427 42.4854C52.5427 42.6672 52.5395 42.8293 52.5313 42.9737C52.523 43.1178 52.503 43.2657 52.4716 43.4135C52.4401 43.5605 52.3937 43.6999 52.3342 43.8311C52.2724 43.9605 52.1929 44.0775 52.0921 44.1798C51.9463 44.3321 51.7639 44.4517 51.5453 44.5386C51.3261 44.6259 51.0494 44.6696 50.7164 44.6696C50.5836 44.6696 50.4476 44.6593 50.3119 44.6409C50.1762 44.623 50.0402 44.5895 49.9008 44.5415C49.7651 44.4933 49.6342 44.4311 49.5099 44.351C49.3873 44.2699 49.2809 44.1684 49.1884 44.0438C49.0806 43.8994 49.0095 43.74 48.9759 43.5674C48.9428 43.3945 48.9247 43.1603 48.9247 42.863C48.9244 42.008 48.9231 41.4709 48.9199 41.2477Z" fill="#6D6E71"/>
<path d="M58.3694 42.5347C58.4524 42.296 58.5214 42.0978 58.5699 41.9439C58.6193 41.7895 58.671 41.6319 58.7174 41.4722C58.7651 41.3149 58.8134 41.1371 58.8632 40.9373C58.9144 40.7392 58.9624 40.5281 59.0091 40.3018C59.0749 40.3263 59.1648 40.3386 59.2754 40.3386C59.3535 40.3386 59.4117 40.3352 59.453 40.33C59.4962 40.3228 59.5311 40.3131 59.5655 40.3018C59.3901 40.7292 59.2064 41.1985 59.0157 41.7057C58.8232 42.2116 58.6081 42.809 58.3694 43.4936C58.2759 43.75 58.2084 43.9479 58.1639 44.0941C58.1177 44.2383 58.069 44.4011 58.018 44.5824C57.9927 44.5692 57.958 44.5605 57.9066 44.5547C57.8551 44.5487 57.8087 44.5452 57.7674 44.5452C57.7327 44.5452 57.6896 44.5468 57.6432 44.5518C57.597 44.5547 57.5533 44.5655 57.5141 44.5824C57.4573 44.3724 57.3816 44.1126 57.2835 43.8024C57.1859 43.4936 57.0814 43.1747 56.9705 42.8498C56.8596 42.5242 56.758 42.2256 56.6604 41.9542C56.5641 41.6804 56.485 41.4578 56.4234 41.2846L56.3868 41.1858C56.3439 41.2965 56.2727 41.4975 56.1679 41.7895C56.0669 42.0801 55.9626 42.3782 55.8531 42.6836C55.7435 42.9895 55.6411 43.2854 55.5448 43.5737C55.4454 43.863 55.3779 44.0691 55.3395 44.1929C55.3227 44.2469 55.3065 44.2986 55.2897 44.3513C55.2734 44.4011 55.2532 44.4799 55.227 44.5824C55.1772 44.5692 55.1276 44.5605 55.0812 44.5547C55.0313 44.5487 54.9879 44.5452 54.9516 44.5452C54.9151 44.5452 54.8722 44.5468 54.829 44.5518C54.7794 44.5547 54.7346 44.5655 54.6898 44.5824C54.617 44.3102 54.5306 43.9932 54.4248 43.6327C54.3218 43.2722 54.2059 42.8883 54.0763 42.4823C53.9504 42.0757 53.8198 41.6838 53.6873 41.3025C53.5561 40.9244 53.4271 40.5903 53.3105 40.3018C53.4039 40.3263 53.5132 40.3386 53.6388 40.3386C53.7153 40.3386 53.7979 40.3336 53.8843 40.3263C53.9686 40.3184 54.0331 40.3083 54.0731 40.3018C54.1299 40.5502 54.2029 40.8285 54.2885 41.1389C54.3762 41.4509 54.4709 41.7695 54.5706 42.0949C54.6701 42.4217 54.766 42.73 54.8604 43.0209C54.9548 43.3107 55.0412 43.5771 55.1204 43.8224L55.5779 42.5347C55.6243 42.4098 55.6811 42.2451 55.7504 42.039C55.82 41.8338 55.8896 41.6198 55.956 41.3966C56.0256 41.174 56.0885 40.9663 56.1447 40.7713C56.2013 40.5787 56.241 40.4209 56.2674 40.3018L56.2927 40.3083C56.3372 40.3184 56.3754 40.3281 56.4071 40.3326C56.4383 40.3371 56.4799 40.3386 56.5295 40.3386C56.6023 40.3386 56.6687 40.3281 56.7348 40.3083L56.7678 40.3018C56.8014 40.424 56.8342 40.5518 56.8694 40.6825C56.9073 40.8114 56.9505 40.9574 56.9985 41.1165C57.0531 41.2862 57.1166 41.482 57.1944 41.7089C57.2686 41.9336 57.3533 42.1824 57.4475 42.4533C57.5408 42.7271 57.6978 43.1832 57.9186 43.8224L58.3694 42.5347Z" fill="#6D6E71"/>
<path d="M60.5238 42.963C60.5169 42.9693 60.5142 42.9843 60.5041 43.0049C60.3948 43.2478 60.2953 43.4911 60.2042 43.7348C60.1127 43.9791 60.0231 44.2613 59.9405 44.5825C59.9207 44.578 59.9007 44.5746 59.8773 44.5696C59.8077 44.554 59.7453 44.5461 59.685 44.5461C59.6253 44.5461 59.5579 44.554 59.48 44.5696C59.4534 44.5746 59.4302 44.578 59.4102 44.5825C59.5629 44.2528 59.7349 43.885 59.9194 43.4774C60.1028 43.0721 60.2833 42.6755 60.4575 42.2897C60.6316 41.9037 60.7955 41.5322 60.9512 41.1727C61.1077 40.8138 61.2368 40.5082 61.3362 40.2523L61.3792 40.2568C61.4272 40.2676 61.4634 40.271 61.4935 40.271C61.5365 40.271 61.5813 40.2637 61.6311 40.2523C61.7439 40.5525 61.898 40.9337 62.0918 41.3893C62.2843 41.8489 62.4878 42.3137 62.6984 42.7886C62.9088 43.2626 63.0959 43.6755 63.2554 44.0294C63.4143 44.3817 63.5004 44.5667 63.5105 44.5825C63.3679 44.5575 63.2453 44.5461 63.1394 44.5461C63.0314 44.5461 62.8976 44.5575 62.74 44.5825C62.652 44.2774 62.5576 44.0038 62.4595 43.7664C62.3635 43.5266 62.2561 43.2816 62.1382 43.0302L62.1068 42.963H60.5238ZM61.3064 41.1177L60.6484 42.6526H61.9825L61.3064 41.1177Z" fill="#6D6E71"/>
<path d="M64.4432 41.4328C64.4382 41.2736 64.435 41.1258 64.4312 40.9975C64.4267 40.8676 64.4166 40.6344 64.4067 40.301C64.4598 40.3145 64.5115 40.3224 64.5592 40.3297C64.6088 40.3363 64.6717 40.3398 64.7512 40.3398C64.8341 40.3398 64.9008 40.3363 64.9504 40.3297C65.0018 40.3224 65.053 40.3145 65.1127 40.301C65.0797 40.9561 65.0629 41.6934 65.0629 42.5097C65.0629 42.9629 65.0663 43.3216 65.0725 43.5835C65.0778 43.8449 65.0882 44.1363 65.0994 44.4594L65.1063 44.5809C64.9472 44.5561 64.8208 44.5458 64.7184 44.5458C64.6285 44.5458 64.5248 44.5561 64.3998 44.5809H64.3867C64.3934 44.4336 64.4035 44.2844 64.4131 44.1329C64.42 43.9825 64.4267 43.8301 64.435 43.6736C64.4398 43.516 64.4448 43.3355 64.447 43.1303C64.4483 42.9279 64.4483 42.6778 64.4483 42.3788C64.4483 41.9261 64.4483 41.6106 64.4432 41.4328Z" fill="#6D6E71"/>
<path d="M67.5071 44.2388C67.5767 44.2409 67.6596 44.2409 67.7588 44.2409C67.9399 44.2409 68.1404 44.2354 68.3595 44.2225C68.5813 44.2111 68.7568 44.1919 68.8914 44.1685C68.8744 44.2409 68.8664 44.3097 68.8664 44.3719C68.8664 44.4454 68.8744 44.516 68.8914 44.5827C68.812 44.5779 68.6973 44.5745 68.5483 44.5695C68.3974 44.5619 68.2451 44.5561 68.0897 44.5511C67.9316 44.5461 67.7492 44.5461 67.5389 44.5461C67.3352 44.5461 67.1821 44.5461 67.0827 44.5511C66.9835 44.5561 66.8507 44.5619 66.6883 44.5695C66.6174 44.5745 66.5526 44.5779 66.4961 44.5827C66.5158 44.2225 66.5292 43.877 66.5396 43.5426C66.5462 43.2096 66.5508 42.8032 66.5508 42.3237C66.5508 42.1105 66.5494 41.9005 66.5449 41.6971C66.5396 41.4918 66.5358 41.2907 66.5292 41.0936C66.523 40.8963 66.5158 40.7237 66.5094 40.5766C66.5028 40.4299 66.4996 40.3397 66.4996 40.3013C66.5094 40.3013 66.5196 40.3026 66.5326 40.3079C66.5859 40.3158 66.6355 40.3226 66.6787 40.33C66.7222 40.3363 66.7747 40.3397 66.8376 40.3397C66.9523 40.3397 67.0827 40.3258 67.2336 40.3013C67.2189 40.6451 67.2088 40.9735 67.2026 41.2907C67.1938 41.6093 67.1858 41.8907 67.1821 42.1392C67.1794 42.5018 67.1757 43.1998 67.1757 44.2304C67.332 44.2338 67.441 44.2372 67.5071 44.2388Z" fill="#6D6E71"/>
<path d="M70.5835 42.1695C70.663 42.1743 70.7408 42.1743 70.8205 42.1743C71.2215 42.1743 71.5559 42.1595 71.8281 42.126L71.8246 42.1513C71.81 42.2214 71.8028 42.2826 71.8028 42.3376C71.8028 42.3656 71.8086 42.4027 71.8182 42.4475C71.8246 42.4844 71.8281 42.5118 71.8281 42.5287C71.6737 42.5081 71.51 42.4918 71.3341 42.481C71.1583 42.4715 70.9997 42.4665 70.8565 42.4665C70.7309 42.4665 70.5582 42.4699 70.3531 42.4797C70.343 42.8333 70.3395 43.1036 70.3395 43.2878C70.3395 43.4285 70.343 43.593 70.3462 43.7811C70.3494 43.9693 70.3531 44.1253 70.3598 44.248C70.6414 44.248 70.9067 44.2444 71.1506 44.2365C71.3935 44.2278 71.6788 44.2075 72.0033 44.1737L71.9987 44.1988C71.9838 44.2694 71.9803 44.3297 71.9803 44.3853C71.9803 44.4388 71.9838 44.4976 71.9987 44.5645L72.0033 44.5809C71.811 44.5569 71.5226 44.5461 71.1325 44.5461C70.8088 44.5461 70.3246 44.5569 69.6815 44.5809C69.6932 44.4141 69.7066 44.2768 69.7133 44.1737C69.7199 44.0715 69.7263 43.9426 69.7332 43.7885C69.7362 43.6338 69.7412 43.4462 69.7447 43.2312C69.7479 43.0156 69.7516 42.7258 69.7516 42.3677C69.7516 42.0422 69.7466 41.6884 69.738 41.3063C69.7316 40.925 69.7167 40.5911 69.6999 40.3079C69.9916 40.3313 70.4291 40.3445 71.0093 40.3445C71.3874 40.3445 71.7055 40.3313 71.9606 40.3079C71.9438 40.3985 71.9355 40.4707 71.9355 40.5237C71.9355 40.578 71.9403 40.6365 71.9539 40.7031L71.9606 40.7221C71.8182 40.6931 71.6788 40.6739 71.5399 40.6599C71.4036 40.6486 71.2114 40.6417 70.9645 40.6417H70.6678C70.6 40.6417 70.4953 40.6451 70.3598 40.6549C70.3494 40.7774 70.3462 40.876 70.3462 40.95V41.3661C70.3462 41.6826 70.3462 41.9516 70.3531 42.1695H70.5835Z" fill="#6D6E71"/>
<path d="M73.6678 43.4009V44.038C73.6678 44.1579 73.6747 44.3387 73.6811 44.5822C73.5489 44.5569 73.4356 44.5453 73.3431 44.5453C73.2468 44.5453 73.129 44.5569 72.9863 44.5822C72.9986 44.3305 73.0117 44.1002 73.0253 43.8889C73.0378 43.6797 73.0463 43.4881 73.053 43.3208C73.0596 43.1514 73.0629 42.9933 73.0647 42.8441C73.0663 42.6947 73.0676 42.5221 73.0676 42.3237C73.0676 42.1129 73.0663 41.9016 73.0618 41.6865C73.053 41.4889 73.0482 41.3174 73.0429 41.1732C73.0378 41.0288 73.0317 40.7909 73.0181 40.4557C73.0181 40.4099 73.0149 40.3603 73.0117 40.301C73.0663 40.3131 73.1178 40.3229 73.1674 40.33C73.2204 40.3348 73.2836 40.3382 73.3628 40.3382C73.4425 40.3382 73.5086 40.3348 73.5569 40.33C73.6068 40.3229 73.658 40.3131 73.7139 40.301C73.7046 40.4336 73.6955 40.667 73.6862 41.0019C73.6747 41.3398 73.6678 41.705 73.6678 42.1029C74.2179 42.1176 74.6359 42.1263 74.9143 42.1263C75.1361 42.1263 75.3353 42.1226 75.5158 42.1192C75.6965 42.116 75.8808 42.1129 76.0741 42.1081C76.0741 42.0373 76.0741 41.9131 76.0775 41.7355V41.5071C76.0775 41.3427 76.0775 41.1875 76.0741 41.0407C76.0677 40.895 76.0618 40.6726 76.0482 40.3748L76.041 40.301C76.0957 40.3131 76.1471 40.3229 76.1967 40.33C76.2487 40.3348 76.3135 40.3382 76.3927 40.3382C76.5252 40.3382 76.6407 40.3263 76.7425 40.301C76.7174 40.7843 76.7009 41.2676 76.6908 41.7521C76.6796 42.2373 76.6726 42.7416 76.6726 43.2697C76.6726 43.5271 76.6761 43.7337 76.6809 43.8889C76.6841 43.9882 76.6873 44.0844 76.6908 44.174C76.6977 44.2649 76.7009 44.4012 76.7108 44.5822C76.6908 44.5772 76.6761 44.5772 76.6679 44.5772C76.542 44.5569 76.4487 44.5453 76.3863 44.5453C76.3063 44.5453 76.1871 44.5569 76.0298 44.5822C76.0328 44.5416 76.0378 44.4478 76.0445 44.305C76.0509 44.1593 76.0546 44.0299 76.0618 43.9147C76.064 43.7985 76.0677 43.6942 76.0712 43.5993C76.0712 43.5037 76.0741 43.4428 76.0741 43.4125V42.4855C75.985 42.4807 75.8952 42.4786 75.8043 42.4757C75.7128 42.4731 75.6267 42.4699 75.5459 42.4665H74.8708H74.2179C74.1019 42.4665 73.9195 42.4699 73.6678 42.4807V43.4009Z" fill="#6D6E71"/>
</g>
<defs>
<clipPath id="clip0_256_1010">
<rect x="0.574219" y="0.0909424" width="109.848" height="45.4545" rx="7" fill="white"/>
</clipPath>
</defs>
</svg>
