<svg width="196" height="65" viewBox="0 0 196 65" fill="none" xmlns="http://www.w3.org/2000/svg">
<g clip-path="url(#clip0_256_1497)">
<path d="M10.9778 59.6913L11.9034 62.5193H10.0571L10.9778 59.6913ZM10.5078 58.8799L8.48828 64.8753H9.2923L9.83484 63.1995H12.1238L12.6676 64.8753H13.5071L11.4894 58.8799H10.5078Z" fill="#9B1C36"/>
<mask id="mask0_256_1497" style="mask-type:luminance" maskUnits="userSpaceOnUse" x="0" y="0" width="194" height="65">
<path d="M193.498 0H0V65H193.498V0Z" fill="white"/>
</mask>
<g mask="url(#mask0_256_1497)">
<path d="M15.8005 64.9752C15.4919 64.9752 15.2093 64.928 14.9521 64.8333C14.6943 64.7373 14.4736 64.5939 14.2886 64.4004C14.1031 64.207 13.9598 63.9636 13.8572 63.6691C13.7562 63.3757 13.7051 63.0296 13.7051 62.6324C13.7051 62.2367 13.7574 61.8973 13.864 61.6095C13.9693 61.3226 14.1111 61.0804 14.2886 60.8842C14.4659 60.6887 14.6851 60.5369 14.9494 60.4306C15.2133 60.3254 15.4971 60.2715 15.8005 60.2715C16.0479 60.2715 16.2855 60.3083 16.5155 60.3779C16.7439 60.4477 16.9478 60.5277 17.1275 60.6188V61.4685H17.0843C17.0304 61.4222 16.9609 61.371 16.8767 61.3119C16.7913 61.2527 16.69 61.1923 16.5693 61.1304C16.464 61.0764 16.3406 61.0292 16.1989 60.9897C16.0568 60.9489 15.9203 60.9293 15.7889 60.9293C15.3973 60.9293 15.0832 61.0777 14.8456 61.3738C14.6077 61.6711 14.4895 62.0907 14.4895 62.6324C14.4895 63.1642 14.6037 63.5768 14.8336 63.8741C15.0624 64.1702 15.3817 64.3189 15.7889 64.3189C16.036 64.3189 16.2696 64.2686 16.4919 64.1663C16.7151 64.0636 16.9123 63.9324 17.0843 63.7718H17.1275V64.6215C17.0528 64.657 16.9594 64.6993 16.8464 64.7477C16.7335 64.7977 16.6324 64.8345 16.5403 64.8596C16.4117 64.8961 16.2972 64.9252 16.1949 64.9464C16.0923 64.9663 15.9607 64.9752 15.8005 64.9752Z" fill="#9B1C36"/>
</g>
<mask id="mask1_256_1497" style="mask-type:luminance" maskUnits="userSpaceOnUse" x="0" y="0" width="194" height="65">
<path d="M193.498 0H0V65H193.498V0Z" fill="white"/>
</mask>
<g mask="url(#mask1_256_1497)">
<path d="M19.5782 64.9752C19.2693 64.9752 18.9867 64.928 18.7295 64.8333C18.472 64.7373 18.2509 64.5939 18.066 64.4004C17.8805 64.207 17.7372 63.9636 17.6349 63.6691C17.5336 63.3757 17.4824 63.0296 17.4824 62.6324C17.4824 62.2367 17.5348 61.8973 17.6413 61.6095C17.7479 61.3226 17.8884 61.0804 18.066 60.8842C18.2433 60.6887 18.4625 60.5369 18.7267 60.4306C18.9906 60.3254 19.2748 60.2715 19.5782 60.2715C19.8253 60.2715 20.0629 60.3083 20.2928 60.3779C20.5212 60.4477 20.7263 60.5277 20.9052 60.6188V61.4685H20.8617C20.8078 61.4222 20.7383 61.371 20.6541 61.3119C20.5699 61.2527 20.4673 61.1923 20.3467 61.1304C20.2414 61.0764 20.118 61.0292 19.9762 60.9897C19.8342 60.9489 19.6976 60.9293 19.5663 60.9293C19.175 60.9293 18.8605 61.0777 18.6229 61.3738C18.3863 61.6711 18.2668 62.0907 18.2668 62.6324C18.2668 63.1642 18.381 63.5768 18.611 63.8741C18.8397 64.1702 19.159 64.3189 19.5663 64.3189C19.8133 64.3189 20.0469 64.2686 20.2705 64.1663C20.4924 64.0636 20.6896 63.9324 20.8617 63.7718H20.9052V64.6215C20.8301 64.657 20.7368 64.6993 20.6238 64.7477C20.5108 64.7977 20.4098 64.8345 20.3179 64.8596C20.189 64.8961 20.0748 64.9252 19.9722 64.9464C19.8709 64.9663 19.7383 64.9752 19.5782 64.9752Z" fill="#9B1C36"/>
</g>
<mask id="mask2_256_1497" style="mask-type:luminance" maskUnits="userSpaceOnUse" x="0" y="0" width="194" height="65">
<path d="M193.498 0H0V65H193.498V0Z" fill="white"/>
</mask>
<g mask="url(#mask2_256_1497)">
<path d="M23.9744 61.1899H23.9337C23.8773 61.1739 23.8179 61.1635 23.7549 61.1607C23.6918 61.1558 23.6171 61.1543 23.5277 61.1543C23.3241 61.1543 23.1217 61.1991 22.9209 61.2858C22.7194 61.3753 22.5289 61.5068 22.3489 61.6819V64.8744H21.5939V60.377H22.3489V61.0452C22.6251 60.8018 22.8654 60.6283 23.0718 60.5284C23.2769 60.4272 23.475 60.377 23.6682 60.377C23.7457 60.377 23.8048 60.3794 23.8443 60.3822C23.8822 60.3877 23.9257 60.3941 23.9744 60.4009V61.1899Z" fill="#9B1C36"/>
</g>
<mask id="mask3_256_1497" style="mask-type:luminance" maskUnits="userSpaceOnUse" x="0" y="0" width="194" height="65">
<path d="M193.498 0H0V65H193.498V0Z" fill="white"/>
</mask>
<g mask="url(#mask3_256_1497)">
<path d="M26.4717 64.9793C25.7556 64.9793 25.1987 64.7766 24.8031 64.3729C24.4078 63.9692 24.2109 63.3954 24.2109 62.6512C24.2109 61.9186 24.4026 61.3358 24.7859 60.9018C25.1696 60.4678 25.6705 60.252 26.2908 60.252C26.5691 60.252 26.8159 60.2912 27.0302 60.3727C27.2445 60.4533 27.4322 60.5796 27.5939 60.7507C27.7543 60.9226 27.8777 61.1332 27.9628 61.3806C28.0498 61.6292 28.0917 61.9342 28.0917 62.2934V62.7039H24.9791C24.9791 63.2274 25.1108 63.6284 25.3732 63.9049C25.6362 64.1811 25.9987 64.319 26.4625 64.319C26.6294 64.319 26.7923 64.2994 26.9515 64.2626C27.1116 64.2246 27.2549 64.1771 27.3838 64.1179C27.5204 64.056 27.6358 63.9953 27.7307 63.9389C27.8238 63.8797 27.9013 63.8273 27.9628 63.7758H28.0078V64.6007C27.9196 64.6359 27.8091 64.6795 27.6781 64.731C27.5464 64.7834 27.4282 64.8254 27.3232 64.8545C27.1759 64.8937 27.0434 64.9256 26.924 64.9465C26.8042 64.9688 26.6527 64.9793 26.4717 64.9793ZM27.356 62.1236C27.3508 61.921 27.3257 61.7435 27.2837 61.5961C27.2405 61.449 27.1787 61.3242 27.0985 61.2215C27.0106 61.1093 26.8961 61.0241 26.7583 60.9637C26.6202 60.9055 26.4494 60.8767 26.2458 60.8767C26.0449 60.8767 25.8741 60.9055 25.7332 60.9662C25.5915 61.0266 25.4641 61.1148 25.3484 61.2307C25.2366 61.349 25.15 61.479 25.0912 61.6225C25.033 61.7671 24.9951 61.9342 24.9791 62.1236H27.356Z" fill="#9B1C36"/>
</g>
<mask id="mask4_256_1497" style="mask-type:luminance" maskUnits="userSpaceOnUse" x="0" y="0" width="194" height="65">
<path d="M193.498 0H0V65H193.498V0Z" fill="white"/>
</mask>
<g mask="url(#mask4_256_1497)">
<path d="M32.3185 64.8755H31.5616V64.4166C31.4434 64.5153 31.3421 64.5981 31.2554 64.6627C31.1703 64.7271 31.069 64.7863 30.9535 64.839C30.847 64.8902 30.7352 64.9297 30.6195 64.9573C30.5053 64.9864 30.3712 65.0005 30.2175 65.0005C29.9744 65.0005 29.7472 64.9481 29.5396 64.8466C29.332 64.7452 29.156 64.5956 29.0102 64.3994C28.8642 64.2008 28.75 63.9562 28.6698 63.6656C28.5883 63.3735 28.5488 63.0393 28.5488 62.6608C28.5488 62.2663 28.5987 61.9239 28.7013 61.6361C28.8036 61.3467 28.9444 61.0953 29.1229 60.8808C29.2873 60.6849 29.4845 60.531 29.7169 60.4191C29.9493 60.3075 30.1924 60.2521 30.4474 60.2521C30.6722 60.2521 30.8678 60.2772 31.0347 60.3269C31.2003 60.3768 31.3764 60.4532 31.5616 60.5586V58.6094H32.3185V64.8755ZM31.5616 63.7796V61.187C31.3739 61.095 31.2055 61.0319 31.0558 60.9963C30.9073 60.9623 30.7472 60.9451 30.5711 60.9451C30.1835 60.9451 29.8785 61.091 29.659 61.3816C29.4383 61.6738 29.3293 62.0934 29.3293 62.6445C29.3293 63.173 29.4135 63.577 29.5828 63.8587C29.7512 64.1389 30.0231 64.2796 30.3948 64.2796C30.5932 64.2796 30.7928 64.2348 30.9939 64.1438C31.1951 64.0546 31.3843 63.9323 31.5616 63.7796Z" fill="#9B1C36"/>
</g>
<mask id="mask5_256_1497" style="mask-type:luminance" maskUnits="userSpaceOnUse" x="0" y="0" width="194" height="65">
<path d="M193.498 0H0V65H193.498V0Z" fill="white"/>
</mask>
<g mask="url(#mask5_256_1497)">
<path d="M34.2341 59.6232H33.375V58.8379H34.2341V59.6232ZM34.1818 64.8744H33.4249V60.377H34.1818V64.8744Z" fill="#9B1C36"/>
</g>
<mask id="mask6_256_1497" style="mask-type:luminance" maskUnits="userSpaceOnUse" x="0" y="0" width="194" height="65">
<path d="M193.498 0H0V65H193.498V0Z" fill="white"/>
</mask>
<g mask="url(#mask6_256_1497)">
<path d="M36.6681 64.9638C36.2553 64.9638 35.9339 64.8468 35.7024 64.6116C35.4724 64.3771 35.357 64.005 35.357 63.4986V61.0059H34.8457V60.3769H35.357V59.084H36.1136V60.3769H37.5048V61.0059H36.1136V63.1437C36.1136 63.3723 36.116 63.5486 36.1255 63.6709C36.1319 63.7957 36.1638 63.91 36.2174 64.0182C36.2636 64.1117 36.3371 64.1813 36.4381 64.2297C36.5407 64.276 36.6785 64.2996 36.8533 64.2996C36.977 64.2996 37.0952 64.2809 37.2106 64.2456C37.3263 64.2089 37.409 64.1785 37.4604 64.1534H37.5048V64.8348C37.3634 64.8759 37.2186 64.9062 37.0713 64.9298C36.9271 64.9522 36.7914 64.9638 36.6681 64.9638Z" fill="#9B1C36"/>
</g>
<mask id="mask7_256_1497" style="mask-type:luminance" maskUnits="userSpaceOnUse" x="0" y="0" width="194" height="65">
<path d="M193.498 0H0V65H193.498V0Z" fill="white"/>
</mask>
<g mask="url(#mask7_256_1497)">
<path d="M40.0157 64.9793C39.2996 64.9793 38.7439 64.7766 38.3486 64.3729C37.953 63.9692 37.7559 63.3954 37.7559 62.6512C37.7559 61.9186 37.9466 61.3358 38.3299 60.9018C38.7139 60.4678 39.2157 60.252 39.8348 60.252C40.1131 60.252 40.3602 60.2912 40.5745 60.3727C40.7898 60.4533 40.9777 60.5796 41.1379 60.7507C41.2983 60.9226 41.4217 61.1332 41.5083 61.3806C41.5941 61.6292 41.6372 61.9342 41.6372 62.2934V62.7039H38.5231C38.5231 63.2274 38.6548 63.6284 38.9175 63.9049C39.1802 64.1811 39.5427 64.319 40.0081 64.319C40.1734 64.319 40.3363 64.2994 40.497 64.2626C40.6556 64.2246 40.8002 64.1771 40.9291 64.1179C41.0656 64.056 41.1813 63.9953 41.2747 63.9389C41.369 63.8797 41.4465 63.8273 41.5083 63.7758H41.553V64.6007C41.4636 64.6359 41.3531 64.6795 41.2221 64.731C41.0907 64.7834 40.9738 64.8254 40.8684 64.8545C40.7199 64.8937 40.5877 64.9256 40.468 64.9465C40.3482 64.9688 40.1973 64.9793 40.0157 64.9793ZM40.9003 62.1236C40.8948 61.921 40.8712 61.7435 40.8292 61.5961C40.7845 61.449 40.7227 61.3242 40.6425 61.2215C40.5546 61.1093 40.4416 61.0241 40.3035 60.9637C40.1658 60.9055 39.9937 60.8767 39.7898 60.8767C39.5905 60.8767 39.4181 60.9055 39.2776 60.9662C39.1367 61.0266 39.0093 61.1148 38.8936 61.2307C38.7809 61.349 38.6955 61.479 38.6361 61.6225C38.5773 61.7671 38.5391 61.9342 38.5231 62.1236H40.9003Z" fill="#9B1C36"/>
</g>
<mask id="mask8_256_1497" style="mask-type:luminance" maskUnits="userSpaceOnUse" x="0" y="0" width="194" height="65">
<path d="M193.498 0H0V65H193.498V0Z" fill="white"/>
</mask>
<g mask="url(#mask8_256_1497)">
<path d="M45.8595 64.8755H45.1026V64.4166C44.9844 64.5153 44.8831 64.5981 44.7964 64.6627C44.7113 64.7271 44.6103 64.7863 44.4945 64.839C44.388 64.8902 44.2762 64.9297 44.162 64.9573C44.0463 64.9864 43.9122 65.0005 43.7597 65.0005C43.5154 65.0005 43.2894 64.9481 43.0818 64.8466C42.873 64.7452 42.697 64.5956 42.5525 64.3994C42.4052 64.2008 42.291 63.9562 42.2111 63.6656C42.1293 63.3735 42.0898 63.0393 42.0898 62.6608C42.0898 62.2663 42.1413 61.9239 42.2423 61.6361C42.3449 61.3467 42.4854 61.0953 42.6654 60.8808C42.8283 60.6849 43.0267 60.531 43.2591 60.4191C43.4903 60.3075 43.7334 60.2521 43.9884 60.2521C44.2147 60.2521 44.4088 60.2772 44.5757 60.3269C44.7413 60.3768 44.9177 60.4532 45.1026 60.5586V58.6094H45.8595V64.8755ZM45.1029 63.7796V61.187C44.9152 61.095 44.7468 61.0319 44.5986 60.9963C44.4498 60.9623 44.2885 60.9451 44.1136 60.9451C43.7248 60.9451 43.4199 61.091 43.2003 61.3816C42.9796 61.6738 42.8706 62.0934 42.8706 62.6445C42.8706 63.173 42.9548 63.577 43.1244 63.8587C43.2925 64.1389 43.5647 64.2796 43.9361 64.2796C44.1348 64.2796 44.3344 64.2348 44.5365 64.1438C44.7361 64.0546 44.9253 63.9323 45.1029 63.7796Z" fill="#9B1C36"/>
</g>
<mask id="mask9_256_1497" style="mask-type:luminance" maskUnits="userSpaceOnUse" x="-32" y="-3" width="66" height="194">
<path d="M33.5962 190.899L33.4785 -2.82324L-31.4465 -2.7836L-31.3288 190.938L33.5962 190.899Z" fill="white"/>
</mask>
<g mask="url(#mask9_256_1497)">
<path d="M18.5128 30.7152L18.4941 0L17.7841 0.000433312L17.8028 30.7157L18.5128 30.7152Z" fill="#9B1C36"/>
</g>
<mask id="mask10_256_1497" style="mask-type:luminance" maskUnits="userSpaceOnUse" x="0" y="0" width="194" height="65">
<path d="M193.498 0H0V65H193.498V0Z" fill="white"/>
</mask>
<g mask="url(#mask10_256_1497)">
<path d="M28.4346 49.3174C26.8339 49.3174 25.514 48.8226 24.6169 47.8862C23.8199 47.0543 23.4264 45.9477 23.4788 44.6857C23.578 42.3184 25.5063 40.8443 26.3134 40.329C25.6266 39.2515 24.9876 37.3302 26.4756 36.0274C27.3645 35.2482 28.2245 34.938 29.0307 35.1054C29.6391 35.2314 30.0882 35.6072 30.3852 35.9511L30.962 34.1208L31.639 34.3345L30.8423 36.8621L30.1834 36.9075C30.1791 36.8992 29.7239 35.9723 28.8825 35.8003C28.3063 35.6829 27.6541 35.9392 26.9435 36.5623C26.2953 37.1297 26.1177 37.9046 26.4153 38.8662C26.6526 39.631 27.1002 40.2165 27.1045 40.2226L26.9876 40.7548C26.9815 40.7584 26.2938 41.1223 25.6064 41.8019C24.709 42.6883 24.2317 43.6686 24.1882 44.7151C24.1438 45.7791 24.4693 46.7051 25.1294 47.3942C25.889 48.1875 27.0323 48.6065 28.4346 48.6065C31.0282 48.6065 31.9773 46.3863 32.0165 46.2922L32.1521 45.9645L32.807 46.2334L32.6732 46.5617C32.6273 46.6742 31.5138 49.3174 28.4346 49.3174ZM21.4265 9.37864H20.7168V0.0166016H21.4265V9.37864Z" fill="#9B1C36"/>
</g>
<mask id="mask11_256_1497" style="mask-type:luminance" maskUnits="userSpaceOnUse" x="0" y="0" width="194" height="65">
<path d="M193.498 0H0V65H193.498V0Z" fill="white"/>
</mask>
<g mask="url(#mask11_256_1497)">
<path d="M36.3893 32.9419H20.1758V32.2311H36.3893V32.9419ZM21.3141 28.8786H20.6044V23.1682L20.9593 22.8129H36.6113V23.5238H21.3141V28.8786ZM21.3141 19.4935H20.6044V13.0662L20.9593 12.7109H34.6747V13.4215H21.3141V19.4935Z" fill="#9B1C36"/>
</g>
<mask id="mask12_256_1497" style="mask-type:luminance" maskUnits="userSpaceOnUse" x="0" y="0" width="194" height="65">
<path d="M193.498 0H0V65H193.498V0Z" fill="white"/>
</mask>
<g mask="url(#mask12_256_1497)">
<path d="M24.7 53.8064L24.0539 53.5122L33.5778 32.5572L34.2239 32.8514L24.7 53.8064ZM10.9062 50.9275C10.8413 50.9275 10.7767 50.9269 10.7111 50.9263C8.44605 50.8984 5.3846 50.2814 3.66267 47.502C2.633 45.8403 2.58402 44.2062 2.58249 44.1376L2.57422 43.7826L3.28393 43.7661L3.2922 44.1207C3.29251 44.1357 3.34303 45.6543 4.28176 47.1532C5.53157 49.1478 7.69745 50.1781 10.7197 50.2158C10.7819 50.2164 10.8437 50.217 10.9046 50.217C13.6596 50.217 15.5897 49.4329 16.4923 47.9447C17.2559 46.6861 17.1038 45.1942 16.7523 44.5367L16.5848 44.2234L17.2106 43.8878L17.3781 44.2013C17.7795 44.9517 18.059 46.7317 17.0992 48.3134C16.372 49.512 14.707 50.9269 10.9062 50.9275ZM16.8542 34.6839L16.7198 34.3553C16.68 34.2615 15.6797 32.0119 11.3774 31.5803C7.10745 31.153 6.3515 33.276 6.34446 33.2977L6.2324 33.6346L5.55882 33.4102L5.67118 33.0731C5.70731 32.9633 6.62032 30.3888 11.4484 30.8731C16.2058 31.3507 17.3313 33.9746 17.3766 34.0858L17.5113 34.4147L16.8542 34.6839Z" fill="#9B1C36"/>
</g>
<mask id="mask13_256_1497" style="mask-type:luminance" maskUnits="userSpaceOnUse" x="0" y="0" width="194" height="65">
<path d="M193.498 0H0V65H193.498V0Z" fill="white"/>
</mask>
<g mask="url(#mask13_256_1497)">
<path d="M46.3756 50.9283C40.915 50.9283 36.4727 46.4821 36.4727 41.0169C36.4727 35.55 40.915 31.1025 46.3756 31.1025C48.8363 31.1025 51.1942 32.012 53.015 33.6636L53.278 33.9021L52.8013 34.4287L52.5383 34.1902C50.8482 32.6576 48.6597 31.8134 46.3756 31.8134C41.3062 31.8134 37.1827 35.9417 37.1827 41.0169C37.1827 46.0903 41.3062 50.2177 46.3756 50.2177C48.2598 50.2177 50.0708 49.6507 51.6124 48.5778C53.1197 47.5292 54.2691 46.0741 54.9359 44.3701L55.0655 44.0393L55.7262 44.2987L55.5967 44.6294C54.8784 46.4649 53.6408 48.0322 52.0178 49.1614C50.3565 50.3174 48.4055 50.9283 46.3756 50.9283Z" fill="#9B1C36"/>
</g>
<mask id="mask14_256_1497" style="mask-type:luminance" maskUnits="userSpaceOnUse" x="0" y="0" width="194" height="65">
<path d="M193.498 0H0V65H193.498V0Z" fill="white"/>
</mask>
<g mask="url(#mask14_256_1497)">
<path d="M17.9605 21.2041L0.775236 0.801123H0.705734V21.2041H0V0.0605469H1.05753L18.2416 20.4635" fill="#9B1C36"/>
</g>
<mask id="mask15_256_1497" style="mask-type:luminance" maskUnits="userSpaceOnUse" x="0" y="0" width="194" height="65">
<path d="M193.498 0H0V65H193.498V0Z" fill="white"/>
</mask>
<g mask="url(#mask15_256_1497)">
<path d="M18.4004 30.1667H35.2125V30.9588H17.8027V10.2178H34.5649V10.9571H18.4004V20.3369H49.0724V21.0748H18.4004V30.1667Z" fill="#9B1C36"/>
</g>
<mask id="mask16_256_1497" style="mask-type:luminance" maskUnits="userSpaceOnUse" x="0" y="0" width="194" height="65">
<path d="M193.498 0H0V65H193.498V0Z" fill="white"/>
</mask>
<g mask="url(#mask16_256_1497)">
<path d="M18.5244 32.7878C17.0673 30.7319 15.1966 29.1968 10.6848 29.0444C6.98589 28.9194 3.25086 30.5664 3.63572 33.8404C4.05212 37.3851 7.94514 38.5441 12.4597 39.2675C17.0909 40.0081 20.427 40.9577 20.427 45.8904C20.427 50.3587 15.3751 53.0277 10.9052 53.0041C4.14275 52.9673 0.107054 49.3763 0.0703125 43.6727H0.736244C0.736244 49.3327 5.62892 52.2675 11.197 52.2675C15.2992 52.2675 19.6952 49.9274 19.6952 45.8576C19.6952 41.0908 15.14 40.5053 11.1275 39.8594C6.96783 39.19 2.95265 37.4575 2.90274 33.8404C2.84365 29.6032 6.32394 28.2695 10.5363 28.2695C15.6641 28.2695 18.4849 30.2926 19.1172 32.4904L18.5244 32.7878Z" fill="#9B1C36"/>
</g>
<mask id="mask17_256_1497" style="mask-type:luminance" maskUnits="userSpaceOnUse" x="0" y="0" width="194" height="65">
<path d="M193.498 0H0V65H193.498V0Z" fill="white"/>
</mask>
<g mask="url(#mask17_256_1497)">
<path d="M46.2481 53.2416C42.9041 53.2416 39.7722 51.9809 37.4291 49.6914C35.0706 47.3863 33.7715 44.2861 33.7715 40.9611C33.7715 34.0728 39.3684 28.4688 46.2481 28.4688C48.9712 28.4688 51.2749 29.0359 53.1178 30.1575L44.4797 11.8055L35.0663 31.2797L34.4276 30.9701L44.164 10.8262L44.8048 10.8295L54.3367 31.0795L53.7895 31.5053C51.924 29.9619 49.3867 29.1793 46.2481 29.1793C39.76 29.1793 34.4812 34.4645 34.4812 40.9611C34.4812 44.093 35.7041 47.013 37.9248 49.1826C40.1344 51.3421 43.0905 52.5311 46.2481 52.5311C51.3793 52.5311 55.5139 49.8162 57.5916 45.0827L57.7346 44.7572L58.3843 45.0432L58.2416 45.3684C56.0451 50.3722 51.6739 53.2416 46.2481 53.2416Z" fill="#9B1C36"/>
</g>
<mask id="mask18_256_1497" style="mask-type:luminance" maskUnits="userSpaceOnUse" x="0" y="0" width="194" height="65">
<path d="M193.498 0H0V65H193.498V0Z" fill="white"/>
</mask>
<g mask="url(#mask18_256_1497)">
<path d="M3.16543 21.2293H2.4701L2.45326 5.28418L3.15991 6.12622L3.16543 21.2293Z" fill="#9B1C36"/>
</g>
<mask id="mask19_256_1497" style="mask-type:luminance" maskUnits="userSpaceOnUse" x="0" y="0" width="194" height="65">
<path d="M193.498 0H0V65H193.498V0Z" fill="white"/>
</mask>
<g mask="url(#mask19_256_1497)">
<path d="M17.0676 15.6116L16.1846 15.6233L3.20096 0.111328L4.16541 0.112554L17.0676 15.6116Z" fill="#9B1C36"/>
</g>
<mask id="mask20_256_1497" style="mask-type:luminance" maskUnits="userSpaceOnUse" x="0" y="0" width="194" height="65">
<path d="M193.498 0H0V65H193.498V0Z" fill="white"/>
</mask>
<g mask="url(#mask20_256_1497)">
<path d="M42.9693 19.6646L42.123 19.6965L44.7035 14.2979L45.0568 15.3039L42.9693 19.6646Z" fill="#9B1C36"/>
</g>
<mask id="mask21_256_1497" style="mask-type:luminance" maskUnits="userSpaceOnUse" x="0" y="0" width="194" height="65">
<path d="M193.498 0H0V65H193.498V0Z" fill="white"/>
</mask>
<g mask="url(#mask21_256_1497)">
<path d="M36.4082 32.955L35.8418 32.2671L41.1815 21.5205H42.0287L36.4082 32.955Z" fill="#9B1C36"/>
</g>
<mask id="mask22_256_1497" style="mask-type:luminance" maskUnits="userSpaceOnUse" x="0" y="0" width="194" height="65">
<path d="M193.498 0H0V65H193.498V0Z" fill="white"/>
</mask>
<g mask="url(#mask22_256_1497)">
<path d="M48.7858 22.793L49.1419 23.5627L40.3887 23.5758L40.5911 22.8181L48.7858 22.793Z" fill="#9B1C36"/>
</g>
<mask id="mask23_256_1497" style="mask-type:luminance" maskUnits="userSpaceOnUse" x="0" y="0" width="194" height="65">
<path d="M193.498 0H0V65H193.498V0Z" fill="white"/>
</mask>
<g mask="url(#mask23_256_1497)">
<path d="M56.8784 31.1187L56.0888 31.123L46.6133 10.8516L47.4305 10.8608L56.8784 31.1187Z" fill="#9B1C36"/>
</g>
<mask id="mask24_256_1497" style="mask-type:luminance" maskUnits="userSpaceOnUse" x="0" y="0" width="194" height="65">
<path d="M193.498 0H0V65H193.498V0Z" fill="white"/>
</mask>
<g mask="url(#mask24_256_1497)">
<path d="M88.6421 6.71484V19.2013H87.1811L79.6978 9.88988V19.2013H77.9162V6.71484H79.3773L86.8605 16.0263V6.71484H88.6421Z" fill="#9B1C36"/>
<path d="M101.434 17.6497V19.2017H92.383V6.71484H101.185V8.26681H94.1646V12.1021H100.419V13.6182H94.1646V17.6497H101.434Z" fill="#9B1C36"/>
<path d="M112.267 16.0806H105.639L104.267 19.2023H102.432L108.08 6.71582H109.844L115.51 19.2023H113.639L112.267 16.0806ZM111.643 14.6534L108.953 8.53508L106.262 14.6534H111.643Z" fill="#9B1C36"/>
<path d="M118.211 18.907C117.337 18.6158 116.652 18.2379 116.153 17.7744L116.812 16.3828C117.287 16.811 117.896 17.1589 118.638 17.4265C119.38 17.6941 120.144 17.8277 120.928 17.8277C121.961 17.8277 122.733 17.6524 123.244 17.3014C123.755 16.9508 124.01 16.4839 124.01 15.9012C124.01 15.473 123.87 15.1251 123.591 14.8578C123.312 14.5902 122.968 14.3851 122.558 14.2423C122.148 14.0994 121.569 13.9391 120.821 13.7607C119.882 13.5351 119.125 13.3089 118.549 13.083C117.973 12.8574 117.48 12.5094 117.07 12.0395C116.66 11.5699 116.455 10.9366 116.455 10.1397C116.455 9.47388 116.63 8.87308 116.981 8.33819C117.331 7.80298 117.863 7.37476 118.576 7.05382C119.288 6.73289 120.173 6.57227 121.23 6.57227C121.967 6.57227 122.692 6.6676 123.404 6.85765C124.117 7.048 124.729 7.32142 125.24 7.67823L124.652 9.10543C124.129 8.77254 123.571 8.51965 122.977 8.34738C122.383 8.17511 121.801 8.08867 121.23 8.08867C120.221 8.08867 119.464 8.2732 118.959 8.64165C118.454 9.01041 118.201 9.48614 118.201 10.0685C118.201 10.4968 118.344 10.8447 118.629 11.1123C118.914 11.3799 119.267 11.588 119.689 11.7367C120.111 11.8854 120.684 12.0429 121.408 12.2094C122.346 12.4353 123.101 12.6615 123.671 12.8871C124.241 13.113 124.732 13.4578 125.142 13.9216C125.551 14.3854 125.756 15.0098 125.756 15.7945C125.756 16.4487 125.578 17.0464 125.222 17.5874C124.865 18.1288 124.325 18.557 123.6 18.8718C122.876 19.1869 121.985 19.3445 120.928 19.3445C119.989 19.3438 119.084 19.1985 118.211 18.907Z" fill="#9B1C36"/>
<path d="M130.558 18.515C129.554 17.962 128.768 17.2009 128.197 16.2316C127.627 15.2627 127.342 14.1715 127.342 12.9585C127.342 11.7453 127.627 10.6546 128.197 9.68508C128.768 8.71583 129.557 7.95472 130.567 7.40174C131.576 6.84876 132.705 6.57227 133.952 6.57227C134.926 6.57227 135.817 6.73595 136.625 7.06302C137.433 7.39009 138.121 7.87441 138.692 8.51689L137.534 9.64063C136.595 8.6536 135.425 8.16009 134.024 8.16009C133.097 8.16009 132.259 8.36823 131.511 8.78449C130.763 9.20107 130.178 9.77459 129.756 10.506C129.335 11.2373 129.124 12.0552 129.124 12.9588C129.124 13.8628 129.335 14.6803 129.756 15.4114C130.178 16.1427 130.763 16.7166 131.511 17.1328C132.259 17.5491 133.097 17.7572 134.024 17.7572C135.413 17.7572 136.583 17.2579 137.534 16.2589L138.692 17.383C138.121 18.0251 137.43 18.5128 136.616 18.8454C135.803 19.1786 134.908 19.3448 133.935 19.3448C132.687 19.3441 131.562 19.0677 130.558 18.515Z" fill="#9B1C36"/>
</g>
<mask id="mask25_256_1497" style="mask-type:luminance" maskUnits="userSpaceOnUse" x="0" y="0" width="194" height="65">
<path d="M193.498 0H0V65H193.498V0Z" fill="white"/>
</mask>
<g mask="url(#mask25_256_1497)">
<path d="M85.8626 35.2916H79.2345L77.8626 38.4133H76.0273L81.6754 25.9268H83.4392L89.105 38.4133H87.2343L85.8626 35.2916ZM85.2389 33.8644L82.5486 27.746L79.8582 33.8644H85.2389Z" fill="#9B1C36"/>
<path d="M92.8547 37.7259C91.8508 37.1726 91.0639 36.4121 90.4938 35.4426C89.9237 34.4736 89.6387 33.3824 89.6387 32.1694C89.6387 30.9565 89.9237 29.8656 90.4938 28.896C91.0639 27.9268 91.8539 27.1657 92.8636 26.6127C93.8731 26.0597 95.0016 25.7832 96.249 25.7832C97.2226 25.7832 98.1136 25.9469 98.9216 26.274C99.7293 26.601 100.418 27.0853 100.988 27.7278L99.8303 28.8516C98.8919 27.8645 97.7217 27.371 96.3203 27.371C95.3938 27.371 94.5565 27.5792 93.8082 27.9954C93.0599 28.412 92.4748 28.9855 92.0532 29.7169C91.6313 30.4483 91.4206 31.2661 91.4206 32.1698C91.4206 33.0737 91.6313 33.8912 92.0532 34.6223C92.4745 35.3537 93.0599 35.9275 93.8082 36.3438C94.5565 36.76 95.3938 36.9679 96.3203 36.9679C97.7104 36.9679 98.88 36.4685 99.8303 35.4696L100.988 36.5933C100.418 37.2355 99.7262 37.7232 98.9127 38.0557C98.0992 38.3889 97.2052 38.5554 96.2312 38.5554C94.9839 38.5554 93.8584 38.2789 92.8547 37.7259Z" fill="#9B1C36"/>
<path d="M105.488 37.7259C104.484 37.1726 103.697 36.4121 103.127 35.4426C102.557 34.4736 102.271 33.3824 102.271 32.1694C102.271 30.9565 102.557 29.8656 103.127 28.896C103.697 27.9268 104.487 27.1657 105.496 26.6127C106.506 26.0597 107.634 25.7832 108.882 25.7832C109.856 25.7832 110.747 25.9469 111.554 26.274C112.362 26.601 113.051 27.0853 113.621 27.7278L112.463 28.8516C111.525 27.8645 110.355 27.371 108.953 27.371C108.027 27.371 107.189 27.5792 106.441 27.9954C105.693 28.412 105.108 28.9855 104.686 29.7169C104.264 30.4483 104.053 31.2661 104.053 32.1698C104.053 33.0737 104.264 33.8912 104.686 34.6223C105.108 35.3537 105.693 35.9275 106.441 36.3438C107.189 36.76 108.027 36.9679 108.953 36.9679C110.343 36.9679 111.512 36.4685 112.463 35.4696L113.621 36.5933C113.051 37.2355 112.359 37.7232 111.546 38.0557C110.732 38.3889 109.838 38.5554 108.864 38.5554C107.617 38.5554 106.491 38.2789 105.488 37.7259Z" fill="#9B1C36"/>
<path d="M124.506 38.4136L121.816 34.5783C121.483 34.6022 121.222 34.6138 121.032 34.6138H117.95V38.4136H116.168V25.9268H121.032C122.647 25.9268 123.919 26.3133 124.845 27.0861C125.771 27.8591 126.235 28.9234 126.235 30.2792C126.235 31.2423 125.997 32.0629 125.522 32.7406C125.047 33.4187 124.37 33.9122 123.491 34.2212L126.449 38.4133L124.506 38.4136ZM123.562 32.3663C124.156 31.879 124.453 31.1831 124.453 30.2792C124.453 29.3755 124.156 28.6828 123.562 28.2009C122.968 27.7193 122.107 27.4784 120.979 27.4784H117.95V33.0974H120.979C122.107 33.0977 122.968 32.854 123.562 32.3663Z" fill="#9B1C36"/>
<path d="M138.051 37.9348V39.4868H129V27H137.802V28.552H130.782V32.3873H137.036V33.9034H130.782V37.9348H138.051Z" fill="#9B1C36"/>
<path d="M141.061 25.9268H146.317C147.635 25.9268 148.805 26.1885 149.827 26.7115C150.848 27.235 151.641 27.9692 152.206 28.9145C152.77 29.8598 153.052 30.9453 153.052 32.1702C153.052 33.3954 152.77 34.4802 152.206 35.4258C151.641 36.3712 150.848 37.1053 149.827 37.6288C148.805 38.1524 147.635 38.4139 146.317 38.4139H141.061V25.9268ZM146.21 36.8616C147.219 36.8616 148.107 36.6651 148.873 36.2728C149.64 35.8804 150.231 35.3305 150.646 34.6227C151.062 33.9152 151.27 33.0974 151.27 32.1702C151.27 31.2426 151.062 30.4251 150.646 29.7173C150.231 29.0098 149.64 28.4596 148.873 28.0673C148.107 27.6749 147.219 27.4787 146.21 27.4787H142.842V36.8616H146.21Z" fill="#9B1C36"/>
<path d="M155.777 25.9268H157.559V38.4133H155.777V25.9268Z" fill="#9B1C36"/>
<path d="M163.778 27.4787H159.502V25.9268H169.818V27.4787H165.542V38.4136H163.778V27.4787H163.778Z" fill="#9B1C36"/>
<path d="M180.811 36.8616V38.4136H171.76V25.9268H180.562V27.4787H173.541V31.314H179.795V32.8301H173.541V36.8616H180.811Z" fill="#9B1C36"/>
<path d="M183.697 25.9268H188.953C190.272 25.9268 191.442 26.1885 192.463 26.7115C193.485 27.235 194.278 27.9692 194.842 28.9145C195.406 29.8598 195.689 30.9453 195.689 32.1702C195.689 33.3954 195.406 34.4802 194.842 35.4258C194.278 36.3712 193.485 37.1053 192.463 37.6288C191.442 38.1524 190.272 38.4139 188.953 38.4139H183.697V25.9268ZM188.847 36.8616C189.856 36.8616 190.744 36.6651 191.51 36.2728C192.276 35.8804 192.867 35.3305 193.283 34.6227C193.698 33.9152 193.906 33.0974 193.906 32.1702C193.906 31.2426 193.698 30.4251 193.283 29.7173C192.867 29.0098 192.276 28.4596 191.51 28.0673C190.744 27.6749 189.856 27.4787 188.847 27.4787H185.479V36.8616H188.847Z" fill="#9B1C36"/>
</g>
<path d="M78.8335 57.3286C77.9603 57.0374 77.2745 56.6594 76.7754 56.196L77.4346 54.8046C77.9095 55.2326 78.5184 55.5805 79.2609 55.8481C80.0031 56.1157 80.7664 56.2496 81.5505 56.2496C82.5838 56.2496 83.3557 56.0743 83.8667 55.7233C84.3774 55.3723 84.6328 54.9058 84.6328 54.3231C84.6328 53.8952 84.4928 53.5472 84.2139 53.2796C83.9347 53.012 83.5902 52.807 83.1806 52.6641C82.7709 52.5213 82.1916 52.361 81.4433 52.1826C80.5049 51.957 79.7474 51.7307 79.1715 51.5048C78.5953 51.2789 78.1024 50.931 77.6927 50.4611C77.283 49.9918 77.0779 49.3582 77.0779 48.5615C77.0779 47.8958 77.253 47.295 77.6036 46.7598C77.9539 46.2249 78.4857 45.7966 79.1982 45.4757C79.9106 45.1548 80.7955 44.9941 81.853 44.9941C82.5894 44.9941 83.3141 45.0895 84.0268 45.2795C84.7396 45.4699 85.3511 45.7436 85.8621 46.1004L85.2742 47.5273C84.7513 47.1944 84.1931 46.9418 83.5994 46.7689C83.0054 46.5967 82.4234 46.5102 81.8533 46.5102C80.8435 46.5102 80.0864 46.6951 79.5815 47.0635C79.0766 47.432 78.8243 47.908 78.8243 48.4904C78.8243 48.9183 78.967 49.2662 79.252 49.5339C79.5371 49.8015 79.8904 50.0096 80.312 50.1579C80.7333 50.3069 81.3068 50.4645 82.0315 50.6309C82.9696 50.8568 83.724 51.0831 84.2944 51.3087C84.8645 51.5346 85.3544 51.8794 85.7644 52.3432C86.1741 52.8073 86.3792 53.4314 86.3792 54.2161C86.3792 54.8705 86.201 55.468 85.8446 56.009C85.4882 56.5503 84.9475 56.9782 84.2234 57.2934C83.4987 57.6085 82.608 57.766 81.5508 57.766C80.6124 57.7654 79.7067 57.6201 78.8335 57.3286Z" fill="#9B1C36"/>
<path d="M91.1809 56.9359C90.177 56.3826 89.3901 55.6221 88.82 54.6525C88.2499 53.6836 87.9649 52.5924 87.9649 51.3791C87.9649 50.1662 88.2499 49.0752 88.82 48.106C89.3901 47.1367 90.1801 46.3753 91.1898 45.8226C92.1993 45.2697 93.3278 44.9932 94.5752 44.9932C95.5491 44.9932 96.4398 45.1569 97.2478 45.4839C98.0555 45.811 98.7444 46.2953 99.3145 46.9375L98.1565 48.0615C97.2181 47.0745 96.0479 46.581 94.6465 46.581C93.7201 46.581 92.8827 46.7891 92.1344 47.2051C91.3861 47.6214 90.801 48.1952 90.3794 48.9266C89.9575 49.6579 89.7468 50.4758 89.7468 51.3791C89.7468 52.2831 89.9575 53.1006 90.3794 53.832C90.8007 54.5633 91.3861 55.1372 92.1344 55.5534C92.8827 55.9697 93.7201 56.1775 94.6465 56.1775C96.0366 56.1775 97.2062 55.6782 98.1565 54.6792L99.3145 55.8029C98.7444 56.4451 98.0524 56.9328 97.2389 57.2654C96.4251 57.5986 95.5314 57.765 94.5574 57.765C93.3101 57.7654 92.1846 57.4889 91.1809 56.9359Z" fill="#9B1C36"/>
<path d="M112.587 45.1367V57.6232H110.806V52.0579H103.643V57.6232H101.861V45.1367H103.643V50.5059H110.806V45.1367H112.587Z" fill="#9B1C36"/>
<path d="M118.557 56.9359C117.548 56.3826 116.755 55.6187 116.178 54.6433C115.602 53.6683 115.314 52.5804 115.314 51.3791C115.314 50.1781 115.602 49.0899 116.178 48.1149C116.755 47.1398 117.548 46.3756 118.557 45.8226C119.567 45.2697 120.701 44.9932 121.961 44.9932C123.208 44.9932 124.336 45.2697 125.346 45.8226C126.355 46.3756 127.145 47.1367 127.715 48.106C128.286 49.0752 128.571 50.1662 128.571 51.3791C128.571 52.5924 128.286 53.6836 127.715 54.6525C127.145 55.6221 126.355 56.3829 125.346 56.9359C124.336 57.4889 123.208 57.7654 121.961 57.7654C120.701 57.7654 119.567 57.4889 118.557 56.9359ZM124.428 55.5537C125.159 55.1375 125.735 54.5636 126.156 53.8323C126.578 53.1009 126.789 52.2834 126.789 51.3794C126.789 50.4761 126.578 49.6582 126.156 48.9269C125.735 48.1955 125.159 47.6217 124.428 47.2054C123.698 46.7894 122.875 46.5813 121.96 46.5813C121.045 46.5813 120.217 46.7894 119.475 47.2054C118.732 47.6217 118.15 48.1955 117.729 48.9269C117.307 49.6582 117.096 50.4761 117.096 51.3794C117.096 52.2834 117.307 53.1009 117.729 53.8323C118.15 54.5636 118.732 55.1375 119.475 55.5537C120.217 55.97 121.045 56.1778 121.96 56.1778C122.875 56.1778 123.698 55.97 124.428 55.5537Z" fill="#9B1C36"/>
<path d="M133.114 56.9359C132.104 56.3826 131.311 55.6187 130.735 54.6433C130.159 53.6683 129.871 52.5804 129.871 51.3791C129.871 50.1781 130.159 49.0899 130.735 48.1149C131.311 47.1398 132.104 46.3756 133.114 45.8226C134.124 45.2697 135.258 44.9932 136.517 44.9932C137.764 44.9932 138.893 45.2697 139.903 45.8226C140.912 46.3756 141.702 47.1367 142.272 48.106C142.842 49.0752 143.128 50.1662 143.128 51.3791C143.128 52.5924 142.842 53.6836 142.272 54.6525C141.702 55.6221 140.912 56.3829 139.903 56.9359C138.893 57.4889 137.765 57.7654 136.517 57.7654C135.258 57.7654 134.124 57.4889 133.114 56.9359ZM138.985 55.5537C139.715 55.1375 140.291 54.5636 140.713 53.8323C141.135 53.1009 141.346 52.2834 141.346 51.3794C141.346 50.4761 141.135 49.6582 140.713 48.9269C140.291 48.1955 139.715 47.6217 138.985 47.2054C138.254 46.7894 137.431 46.5813 136.517 46.5813C135.602 46.5813 134.774 46.7894 134.031 47.2054C133.289 47.6217 132.707 48.1955 132.285 48.9269C131.863 49.6582 131.653 50.4761 131.653 51.3794C131.653 52.2834 131.863 53.1009 132.285 53.8323C132.707 54.5636 133.289 55.1375 134.031 55.5537C134.774 55.97 135.602 56.1778 136.517 56.1778C137.431 56.1778 138.254 55.97 138.985 55.5537Z" fill="#9B1C36"/>
<path d="M145.854 45.1367H147.635V56.0716H154.388V57.6235H145.854V45.1367Z" fill="#9B1C36"/>
</g>
<defs>
<clipPath id="clip0_256_1497">
<rect width="196" height="65" fill="white"/>
</clipPath>
</defs>
</svg>
