<svg width="71" height="70" viewBox="0 0 71 70" fill="none" xmlns="http://www.w3.org/2000/svg">
<path d="M62.6072 41.1717C65.6675 37.6513 65.6675 32.3458 62.6072 28.8283C59.6982 25.4858 49.1705 14.5833 35.8298 14.5833C22.489 14.5833 11.9584 25.4858 9.04939 28.8254C5.98329 32.3458 5.98329 37.6513 9.04939 41.1688C11.9584 44.5113 22.4861 55.4138 35.8268 55.4138C49.1676 55.4138 59.6982 44.5113 62.6072 41.1688V41.1717ZM35.8268 52.5C26.2009 52.5 16.8165 45.6575 11.2399 39.2525C9.12793 36.8288 9.12793 33.1713 11.2399 30.7446C16.8135 24.3425 26.198 17.5 35.8239 17.5C45.4498 17.5 54.8372 24.3425 60.4109 30.7446C62.5228 33.1713 62.5228 36.8288 60.4109 39.2554C54.8343 45.6575 45.4498 52.5 35.8239 52.5H35.8268ZM35.8268 26.25C31.0153 26.25 27.0998 30.1758 27.0998 35C27.0998 39.8242 31.0153 43.75 35.8268 43.75C40.6383 43.75 44.5539 39.8242 44.5539 35C44.5539 30.1758 40.6383 26.25 35.8268 26.25ZM35.8268 40.8333C32.6182 40.8333 30.0088 38.2171 30.0088 35C30.0088 31.7829 32.6182 29.1667 35.8268 29.1667C39.0355 29.1667 41.6449 31.7829 41.6449 35C41.6449 38.2171 39.0355 40.8333 35.8268 40.8333ZM0.918701 18.9583V13.125C0.918701 5.88875 6.792 0 14.0093 0H19.8273C20.6302 0 21.2818 0.653333 21.2818 1.45833C21.2818 2.26333 20.6302 2.91667 19.8273 2.91667H14.0093C8.39486 2.91667 3.82771 7.49583 3.82771 13.125V18.9583C3.82771 19.7633 3.17609 20.4167 2.37321 20.4167C1.57032 20.4167 0.918701 19.7633 0.918701 18.9583ZM21.2818 68.5417C21.2818 69.3467 20.6302 70 19.8273 70H14.0093C6.792 70 0.918701 64.1112 0.918701 56.875V51.0417C0.918701 50.2367 1.57032 49.5833 2.37321 49.5833C3.17609 49.5833 3.82771 50.2367 3.82771 51.0417V56.875C3.82771 62.5042 8.39486 67.0833 14.0093 67.0833H19.8273C20.6302 67.0833 21.2818 67.7367 21.2818 68.5417ZM70.735 51.0417V56.875C70.735 64.1112 64.8617 70 57.6444 70H51.8264C51.0235 70 50.3719 69.3467 50.3719 68.5417C50.3719 67.7367 51.0235 67.0833 51.8264 67.0833H57.6444C63.2588 67.0833 67.826 62.5042 67.826 56.875V51.0417C67.826 50.2367 68.4776 49.5833 69.2805 49.5833C70.0834 49.5833 70.735 50.2367 70.735 51.0417ZM70.735 13.125V18.9583C70.735 19.7633 70.0834 20.4167 69.2805 20.4167C68.4776 20.4167 67.826 19.7633 67.826 18.9583V13.125C67.826 7.49583 63.2588 2.91667 57.6444 2.91667H51.8264C51.0235 2.91667 50.3719 2.26333 50.3719 1.45833C50.3719 0.653333 51.0235 0 51.8264 0H57.6444C64.8617 0 70.735 5.88875 70.735 13.125Z" fill="black"/>
</svg>
