<svg width="21" height="24" viewBox="0 0 21 24" fill="none" xmlns="http://www.w3.org/2000/svg">
<path d="M16.2979 1.32527V1.40564M16.2979 1.40564C18.1122 1.40564 19.5843 2.82536 19.5843 4.56653C19.5843 6.30771 18.1082 7.72743 16.2979 7.72743C14.4877 7.72743 13.0116 6.30771 13.0116 4.56653C13.0116 2.82536 14.4877 1.40564 16.2979 1.40564ZM16.2979 16.2955V16.2152M16.2979 16.2955C18.1122 16.2955 19.5843 17.7153 19.5843 19.4564C19.5843 21.1976 18.1082 22.6173 16.2979 22.6173C14.4877 22.6173 13.0116 21.1976 13.0116 19.4564C13.0116 17.7153 14.4877 16.2955 16.2979 16.2955ZM18.0287 16.33C17.4995 16.0583 16.9027 15.9167 16.3019 15.9167C15.1959 15.9167 14.1574 16.3874 13.4572 17.2101L13.3498 17.3364L7.85523 13.812L7.9348 13.6666C8.51171 12.6295 8.51171 11.3896 7.9348 10.3526L7.85523 10.2072L13.3498 6.68273L13.4572 6.80901C14.1614 7.63176 15.1998 8.10245 16.3099 8.10245C17.1613 8.10245 17.9929 7.81545 18.6533 7.29501C19.4132 6.69421 19.8867 5.84084 19.9822 4.89563C20.0777 3.95043 19.7872 3.02818 19.1626 2.29727C18.4584 1.47452 17.4199 1 16.3099 1C15.4584 1 14.6269 1.28701 13.9664 1.80744C12.6137 2.87511 12.2318 4.73108 13.0514 6.21586L13.1309 6.36128L7.6364 9.88572L7.52898 9.75561C6.82874 8.93286 5.79031 8.46217 4.68424 8.46217C2.65114 8.46982 1 10.0579 1 12.0096C1 12.9548 1.38195 13.8426 2.07822 14.5123C2.77448 15.1819 3.69753 15.5493 4.68424 15.5493C5.79031 15.5493 6.82874 15.0786 7.52898 14.2559L7.6364 14.1296L13.1309 17.654L13.0514 17.7994C12.5898 18.6337 12.4943 19.5942 12.7808 20.4973C13.0673 21.4004 13.7078 22.1428 14.5752 22.5867C15.1043 22.8584 15.7011 23 16.2979 23C17.6666 23 18.9119 22.2806 19.5525 21.1172C20.014 20.283 20.1095 19.3225 19.823 18.4194C19.5366 17.5163 18.896 16.77 18.0287 16.33ZM4.68424 15.1743C2.86997 15.1743 1.39787 13.7546 1.39787 12.0134C1.39787 10.2722 2.87395 8.8525 4.68424 8.8525C6.49453 8.8525 7.97061 10.2722 7.97061 12.0134C7.97061 13.7546 6.49453 15.1743 4.68424 15.1743Z" stroke="black"/>
</svg>
