<svg width="32" height="32" viewBox="0 0 32 32" fill="none" xmlns="http://www.w3.org/2000/svg">
<g clip-path="url(#clip0_229_11595)">
<path d="M26.6671 28.0001V32.0001H25.3338V28.0001C25.3338 25.7948 23.5391 24.0001 21.3338 24.0001H10.6671C8.46179 24.0001 6.66712 25.7948 6.66712 28.0001V32.0001H5.33379V28.0001C5.33379 25.0588 7.72579 22.6668 10.6671 22.6668H21.3338C24.2751 22.6668 26.6671 25.0588 26.6671 28.0001ZM29.3338 6.00012V16.0001H28.0004V6.64545L24.0004 8.63478V12.0001C24.0004 16.4121 20.4124 20.0001 16.0005 20.0001C11.5885 20.0001 8.00046 16.4121 8.00046 12.0001V8.63478L2.70312 6.00012L13.7485 0.505451C15.0925 -0.162549 16.9018 -0.163882 18.2498 0.504118L29.2964 6.00012H29.3338ZM22.6671 9.29745L18.2511 11.4935C17.5778 11.8281 16.7885 11.9961 16.0005 11.9961C15.2125 11.9961 14.4218 11.8295 13.7498 11.4935L9.33379 9.29745V11.9988C9.33379 15.6748 12.3245 18.6654 16.0005 18.6654C19.6764 18.6654 22.6671 15.6748 22.6671 11.9988V9.29745ZM26.3044 6.00012L17.6591 1.69878C16.6818 1.21612 15.3178 1.21478 14.3431 1.69878L5.69779 5.99878L14.3431 10.3001C15.3191 10.7855 16.6818 10.7855 17.6578 10.3001L26.3044 6.00012Z" fill="black"/>
</g>
<defs>
<clipPath id="clip0_229_11595">
<rect width="32" height="32" fill="white"/>
</clipPath>
</defs>
</svg>
