<svg width="32" height="32" viewBox="0 0 32 32" fill="none" xmlns="http://www.w3.org/2000/svg">
<g clip-path="url(#clip0_229_11589)">
<path d="M27.3333 5.33346H20V4.66679C20 2.09346 17.9067 0.00012207 15.3333 0.00012207H4.66666C1.91867 0.00012207 0 2.26412 0 5.50412V31.3335C0 31.7015 0.298667 32.0001 0.666666 32.0001C1.03467 32.0001 1.33333 31.7015 1.33333 31.3335V17.3335H14.6667V18.0001C14.6667 20.5735 16.76 22.6668 19.3333 22.6668H27.3333C29.9067 22.6668 32 20.5735 32 18.0001V10.0001C32 7.42679 29.9067 5.33346 27.3333 5.33346ZM1.33333 5.50412C1.33333 3.00946 2.67333 1.33346 4.66666 1.33346H15.3333C17.1707 1.33346 18.6667 2.82946 18.6667 4.66679V12.6668C18.6667 14.5041 17.1707 16.0001 15.3333 16.0001H1.33333V5.50412ZM30.6667 18.0001C30.6667 19.8375 29.1707 21.3335 27.3333 21.3335H19.3333C17.496 21.3335 16 19.8375 16 18.0001V17.2855C18.2587 16.9615 20 15.0135 20 12.6668V6.66679H27.3333C29.1707 6.66679 30.6667 8.16279 30.6667 10.0001V18.0001Z" fill="black"/>
</g>
<defs>
<clipPath id="clip0_229_11589">
<rect width="32" height="32" fill="white"/>
</clipPath>
</defs>
</svg>
