<svg width="32" height="32" viewBox="0 0 32 32" fill="none" xmlns="http://www.w3.org/2000/svg">
<g clip-path="url(#clip0_229_11592)">
<path d="M9.33333 18.6668C12.2747 18.6668 14.6667 16.2748 14.6667 13.3335C14.6667 10.3921 12.2747 8.00012 9.33333 8.00012C6.392 8.00012 4 10.3921 4 13.3335C4 16.2748 6.392 18.6668 9.33333 18.6668ZM9.33333 9.33346C11.5387 9.33346 13.3333 11.1281 13.3333 13.3335C13.3333 15.5388 11.5387 17.3335 9.33333 17.3335C7.128 17.3335 5.33333 15.5388 5.33333 13.3335C5.33333 11.1281 7.128 9.33346 9.33333 9.33346ZM18.6667 30.6668V31.3335C18.6667 31.7015 18.368 32.0001 18 32.0001C17.632 32.0001 17.3333 31.7015 17.3333 31.3335V30.6668C17.3333 26.2548 13.7453 22.6668 9.33333 22.6668C4.92133 22.6668 1.33333 26.2548 1.33333 30.6668V31.3335C1.33333 31.7015 1.03467 32.0001 0.666666 32.0001C0.298667 32.0001 0 31.7015 0 31.3335V30.6668C0 25.5215 4.18667 21.3335 9.33333 21.3335C14.48 21.3335 18.6667 25.5215 18.6667 30.6668ZM26.0467 0.00012207H12.6667C9.92666 0.00012207 7.53733 1.85079 6.856 4.50012C6.764 4.85746 6.97866 5.22012 7.336 5.31212C7.68666 5.40412 8.056 5.18946 8.148 4.83346C8.67733 2.77212 10.5373 1.33346 12.668 1.33346H26.048C28.6213 1.33346 30.7147 3.42679 30.7147 5.99746L30.668 18.0001C30.668 20.5735 28.5747 22.6668 26.0013 22.6668H25.3347V20.6668C25.3347 19.5641 24.4373 18.6668 23.3347 18.6668H20.668C19.5653 18.6668 18.668 19.5641 18.668 20.6668V22.0001C18.668 23.1028 19.5653 24.0001 20.668 24.0001H26.0013C29.3093 24.0001 32.0013 21.3081 32.0013 18.0028L32.048 6.00012C32.048 2.69212 29.3547 0.00012207 26.0467 0.00012207ZM24 22.6668H20.6667C20.2987 22.6668 20 22.3668 20 22.0001V20.6668C20 20.3001 20.2987 20.0001 20.6667 20.0001H23.3333C23.7013 20.0001 24 20.3001 24 20.6668V22.6668Z" fill="black"/>
</g>
<defs>
<clipPath id="clip0_229_11592">
<rect width="32" height="32" fill="white"/>
</clipPath>
</defs>
</svg>
